<?xml version="1.0" encoding="UTF-8"?>
<svg width="1440px" height="676px" viewBox="0 0 1440 676" version="1.1" xmlns="http://www.w3.org/2000/svg" xmlns:xlink="http://www.w3.org/1999/xlink">
    <!-- Generator: Sketch 58 (84663) - https://sketch.com -->
    <title>Group 8</title>
    <desc>Created with Sketch.</desc>
    <defs>
        <rect id="path-1" x="0" y="0" width="1440" height="676"></rect>
        <linearGradient x1="82.418%" y1="50%" x2="50%" y2="63.5286544%" id="linearGradient-3">
            <stop stop-color="#E8F2FF" offset="0%"></stop>
            <stop stop-color="#D1E2FE" offset="100%"></stop>
        </linearGradient>
        <linearGradient x1="50%" y1="7.636%" x2="50%" y2="71.853%" id="linearGradient-4">
            <stop stop-color="#E8F2FF" offset="0%"></stop>
            <stop stop-color="#D1E2FE" stop-opacity="0" offset="100%"></stop>
        </linearGradient>
        <linearGradient x1="65.941%" y1="91.942%" x2="65.941%" y2="4.582%" id="linearGradient-5">
            <stop stop-color="#E8F2FF" stop-opacity="0" offset="0%"></stop>
            <stop stop-color="#D1E2FE" offset="100%"></stop>
        </linearGradient>
        <linearGradient x1="82.418%" y1="50%" x2="50%" y2="63.581743%" id="linearGradient-6">
            <stop stop-color="#E8F2FF" offset="0%"></stop>
            <stop stop-color="#D1E2FE" offset="100%"></stop>
        </linearGradient>
        <linearGradient x1="50%" y1="7.636%" x2="50%" y2="71.397%" id="linearGradient-7">
            <stop stop-color="#E8F2FF" offset="0%"></stop>
            <stop stop-color="#D1E2FE" stop-opacity="0" offset="100%"></stop>
        </linearGradient>
        <linearGradient x1="65.941%" y1="68.124%" x2="65.941%" y2="4.582%" id="linearGradient-8">
            <stop stop-color="#E8F2FF" stop-opacity="0" offset="0%"></stop>
            <stop stop-color="#D1E2FE" offset="100%"></stop>
        </linearGradient>
        <linearGradient x1="77.009%" y1="40.245126%" x2="79.099%" y2="73.9078704%" id="linearGradient-9">
            <stop stop-color="#0E36BA" offset="3.99%"></stop>
            <stop stop-color="#0549D5" stop-opacity="0" offset="97.22%"></stop>
        </linearGradient>
        <linearGradient x1="0%" y1="43.2836866%" x2="100%" y2="57.4253022%" id="linearGradient-10">
            <stop stop-color="#0643CF" offset="0%"></stop>
            <stop stop-color="#0E1593" offset="100%"></stop>
        </linearGradient>
        <linearGradient x1="0%" y1="43.2836866%" x2="100%" y2="57.4253022%" id="linearGradient-11">
            <stop stop-color="#370ACC" offset="0%"></stop>
            <stop stop-color="#0E1593" offset="100%"></stop>
        </linearGradient>
        <linearGradient x1="5.286%" y1="50%" x2="100%" y2="50%" id="linearGradient-12">
            <stop stop-color="#8BBBFF" stop-opacity="0" offset="0%"></stop>
            <stop stop-color="#8BBBFF" offset="100%"></stop>
        </linearGradient>
        <linearGradient x1="100%" y1="100%" x2="0%" y2="0%" id="linearGradient-13">
            <stop stop-color="#E6F1FF" offset="0%"></stop>
            <stop stop-color="#FFFFFF" offset="100%"></stop>
        </linearGradient>
        <linearGradient x1="77.009%" y1="31.605601%" x2="79.099%" y2="95.0837025%" id="linearGradient-14">
            <stop stop-color="#0E36BA" offset="3.99%"></stop>
            <stop stop-color="#0549D5" stop-opacity="0" offset="97.22%"></stop>
        </linearGradient>
        <linearGradient x1="0%" y1="43.2921291%" x2="100%" y2="57.4159685%" id="linearGradient-15">
            <stop stop-color="#8BBBFF" offset="0%"></stop>
            <stop stop-color="#0260F5" offset="100%"></stop>
        </linearGradient>
        <linearGradient x1="0.966005068%" y1="43.4285661%" x2="100%" y2="57.4159685%" id="linearGradient-16">
            <stop stop-color="#510FA8" offset="0%"></stop>
            <stop stop-color="#320FA8" offset="100%"></stop>
        </linearGradient>
        <linearGradient x1="0%" y1="43.2921291%" x2="100%" y2="57.4159685%" id="linearGradient-17">
            <stop stop-color="#320FA8" offset="0%"></stop>
            <stop stop-color="#510FA8" offset="100%"></stop>
        </linearGradient>
    </defs>
    <g id="Iteration-2" stroke="none" stroke-width="1" fill="none" fill-rule="evenodd">
        <g id="Developers" transform="translate(0.000000, -53.000000)">
            <g id="Oreti" transform="translate(0.000000, 53.000000)">
                <g id="Group-8">
                    <mask id="mask-2" fill="white">
                        <use xlink:href="#path-1"></use>
                    </mask>
                    <use id="Mask" fill="#02182C" xlink:href="#path-1"></use>
                    <g id="developers" opacity="0.314429874" style="mix-blend-mode: luminosity;" mask="url(#mask-2)" fill-rule="nonzero">
                        <g transform="translate(624.000000, 130.000000)">
                            <polygon id="Path" fill="url(#linearGradient-3)" transform="translate(126.751438, 440.500000) scale(-1, 1) translate(-126.751438, -440.500000) " points="126.751438 368 0.751438435 440.498811 126.751438 513 252.751438 440.498811"></polygon>
                            <polygon id="Path" fill="url(#linearGradient-4)" transform="translate(188.751438, 570.500000) scale(-1, 1) translate(-188.751438, -570.500000) " points="251.751438 513.774236 125.751438 441 125.751438 627.225764 251.751438 700"></polygon>
                            <polygon id="Path" fill="url(#linearGradient-5)" transform="translate(63.751438, 579.000000) scale(-1, 1) translate(-63.751438, -579.000000) " points="0.751438435 513.657164 126.751438 441 126.751438 644.342836 0.751438435 717"></polygon>
                            <polygon id="Path" fill="url(#linearGradient-6)" transform="translate(728.751438, 248.500000) scale(-1, 1) translate(-728.751438, -248.500000) " points="728.753223 192 630.751438 248.5 728.753223 305 826.751438 248.5"></polygon>
                            <polygon id="Path" fill="url(#linearGradient-7)" transform="translate(777.751438, 522.000000) scale(-1, 1) translate(-777.751438, -522.000000) " points="826.751438 304.642056 728.751438 248 728.751438 739.357944 826.751438 796"></polygon>
                            <polygon id="Path" fill="url(#linearGradient-8)" transform="translate(679.751438, 523.500000) scale(-1, 1) translate(-679.751438, -523.500000) " points="630.751438 305.690295 728.751438 249 728.751438 741.309705 630.751438 798"></polygon>
                            <polygon id="Path" fill-opacity="0.06" fill="url(#linearGradient-9)" points="339.751438 407.273138 759.751438 369 759.751438 670 339.751438 670"></polygon>
                            <path d="M568.241393,341.846163 C574.187002,338.406012 583.194708,338.031803 588.343653,341.011025 L756.276377,438.171719 C761.424012,441.150941 760.778919,446.362281 754.831473,449.802432 L531.261814,579.154075 C525.315941,582.593964 516.3085,582.968172 511.159292,579.988951 L343.22709,482.828519 C338.078144,479.849297 338.724812,474.637695 344.670421,471.197804 L568.241393,341.846163 Z" id="Path" fill-opacity="0.1" fill="url(#linearGradient-10)"></path>
                            <path d="M568.241393,305.846163 C574.187002,302.406012 583.194708,302.031803 588.343653,305.011025 L756.276377,402.171719 C761.424012,405.150941 760.778919,410.362281 754.831473,413.802432 L531.261814,543.154075 C525.315941,546.593964 516.3085,546.968172 511.159292,543.988951 L343.22709,446.828519 C338.078144,443.849297 338.724812,438.637695 344.670421,435.197804 L568.241393,305.846163 Z" id="Path" fill-opacity="0.3" fill="url(#linearGradient-10)"></path>
                            <path d="M568.241393,269.846163 C574.187002,266.406012 583.194708,266.031803 588.343653,269.011025 L756.276377,366.171719 C761.424012,369.150941 760.778919,374.362281 754.831473,377.802432 L531.261814,507.154075 C525.315941,510.593964 516.3085,510.968172 511.159292,507.988951 L343.22709,410.828519 C338.078144,407.849297 338.724812,402.637695 344.670421,399.197804 L568.241393,269.846163 Z" id="Path" fill="url(#linearGradient-11)"></path>
                            <path d="M568.337618,333.581174 C569.548981,332.878633 571.383964,332.80231 572.433089,333.410771 L610.042594,355.22476 C611.092513,355.833223 610.960613,356.897501 609.749777,357.600041 L603.165364,361.418826 C601.954529,362.121367 600.118491,362.19769 599.068572,361.589227 L561.459594,339.775505 C560.410469,339.167042 560.542369,338.102764 561.753468,337.400224 L568.337618,333.581174 Z" id="Path" fill="#FFFFFF"></path>
                            <path d="M589.269476,321.567671 C590.469891,320.881646 592.288416,320.806868 593.327985,321.40092 L700.049942,382.384629 C701.089776,382.978678 700.958151,384.018007 699.757735,384.703769 L693.234424,388.432478 C692.034008,389.118503 690.214957,389.19302 689.175123,388.598968 L582.453166,327.61526 C581.413598,327.02121 581.544168,325.982142 582.744584,325.296119 L589.269476,321.567671 Z" id="Path" fill="#CCE1FF"></path>
                            <path d="M569.634924,307.315496 C575.550277,310.643083 575.028365,316.339686 568.469627,320.028977 C561.910891,323.718269 551.783697,324.011834 545.868084,320.684502 C539.952469,317.356917 540.474643,311.660314 547.033117,307.971023 C553.591852,304.281732 563.719309,303.988167 569.634924,307.315496 Z" id="Path" fill="#478EFA"></path>
                            <path d="M563.693153,310.157914 C566.650976,311.821561 566.389798,314.669966 563.110466,316.514533 C559.831134,318.359103 554.767444,318.505923 551.809621,316.842277 C548.852059,315.178628 549.112973,312.330222 552.392305,310.485655 C555.671637,308.640834 560.735327,308.494011 563.693153,310.157914 Z" id="Path" fill="#B8D6FF"></path>
                            <path d="M506.337739,368.581218 C507.549101,367.878676 509.384081,367.802353 510.433208,368.410552 L548.043193,390.224592 C549.092318,390.833057 548.960684,391.897337 547.749322,392.599879 L541.165181,396.418676 C539.953819,397.121216 538.118839,397.197804 537.069712,396.589342 L499.459463,374.775299 C498.410602,374.166837 498.542236,373.102555 499.753598,372.400013 L506.337739,368.581218 Z" id="Path" fill="#CCE1FF"></path>
                            <path d="M527.26946,357.567523 C528.469871,356.881496 530.288392,356.806981 531.32796,357.401031 L638.049943,418.384874 C639.089775,418.978927 638.95815,420.017996 637.757737,420.704022 L631.231807,424.432479 C630.031394,425.118503 628.21498,425.19302 627.175149,424.598967 L520.453166,363.615387 C519.413597,363.021334 519.544169,361.982005 520.744583,361.295979 L527.26946,357.567523 Z" id="Path" fill="#FFFFFF"></path>
                            <path d="M507.634777,343.315626 C513.550416,346.642955 513.028237,352.339814 506.469737,356.029105 C499.910974,359.71814 489.783476,360.011961 483.868099,356.684376 C477.952462,353.356789 478.474639,347.660186 485.033139,343.970895 C491.591902,340.281859 501.7194,339.988038 507.634777,343.315626 Z" id="Path" fill="#478EFA"></path>
                            <path d="M501.693164,346.157715 C504.65097,347.821606 504.389794,350.669737 501.110484,352.514545 C497.831173,354.359099 492.767516,354.505921 489.809713,352.842284 C486.851907,351.178395 487.113083,348.33001 490.392393,346.485456 C493.671704,344.6409 498.735361,344.49408 501.693164,346.157715 Z" id="Path" fill="#B8D6FF"></path>
                            <path d="M439.337703,407.581324 C440.549066,406.878784 442.384049,406.802196 443.433176,407.410659 L481.043192,429.224619 C482.092319,429.833079 481.960683,430.897355 480.74932,431.599895 L474.165174,435.418677 C472.953811,436.121217 471.118828,436.197802 470.069701,435.589342 L432.459685,413.775382 C431.410558,413.166922 431.542194,412.102644 432.753557,411.400106 L439.337703,407.581324 Z" id="Path" fill="#FFFFFF"></path>
                            <path d="M459.269477,395.567522 C460.469893,394.881498 462.288419,394.80698 463.32799,395.401031 L570.049709,456.384613 C571.08928,456.978666 570.958709,458.017995 569.758293,458.704022 L563.2334,462.432478 C562.032984,463.118502 560.214458,463.19302 559.174887,462.598969 L452.453168,401.615126 C451.413597,401.021073 451.544168,399.982005 452.744584,399.295978 L459.269477,395.567522 Z" id="Path" fill="#CCE1FF"></path>
                            <path d="M440.634924,381.315497 C446.550276,384.643082 446.028365,390.339685 439.469629,394.028977 C432.910893,397.718268 422.783436,398.011833 416.868084,394.684504 C410.952469,391.356917 411.474643,385.660316 418.033117,381.971024 C424.591855,378.281733 434.719309,377.988165 440.634924,381.315497 Z" id="Path" fill="#478EFA"></path>
                            <path d="M434.693152,385.157722 C437.650975,386.821371 437.389799,389.669777 434.110468,391.514345 C430.831136,393.359166 425.767446,393.505989 422.809621,391.842086 C419.852059,390.178439 420.112973,387.330033 423.392307,385.485466 C426.671639,383.640899 431.735327,383.494076 434.693152,385.157722 Z" id="Path" fill="#B8D6FF"></path>
                            <path d="M533.323801,143 C531.35084,143 529.751438,141.432996 529.751438,139.5 C529.751438,137.567004 531.35084,136 533.323801,136 L711.179076,136 C713.152037,136 714.751438,137.567004 714.751438,139.5 C714.751438,141.432996 713.152037,143 711.179076,143 L533.323801,143 Z" id="Path" fill="url(#linearGradient-12)" transform="translate(622.251438, 139.500000) rotate(-90.000000) translate(-622.251438, -139.500000) "></path>
                            <circle id="Oval" fill="url(#linearGradient-13)" transform="translate(621.751438, 19.000000) scale(-1, 1) rotate(-90.000000) translate(-621.751438, -19.000000) " cx="621.751438" cy="19" r="19"></circle>
                            <circle id="Oval" fill="#120078" transform="translate(621.251438, 18.500000) scale(-1, 1) rotate(-90.000000) translate(-621.251438, -18.500000) " cx="621.251438" cy="18.5" r="9.5"></circle>
                            <polygon id="Path" fill-opacity="0.06" fill="url(#linearGradient-14)" points="81.7514384 193.809615 648.751438 155 648.751438 713 81.7514384 713"></polygon>
                            <path d="M393.442609,93.7915995 C401.369154,89.2091768 413.37907,88.7102478 420.243997,92.6779189 L644.117733,222.125259 C650.982662,226.094115 650.119727,233.037541 642.193182,237.620555 L335.059589,415.208275 C327.133043,419.791291 315.124906,420.289922 308.260572,416.320767 L84.3850577,286.87432 C77.5207214,282.905163 78.3827681,275.962037 86.3090156,271.378723 L393.442609,93.7915995 Z" id="Path" fill-opacity="0.1" fill="url(#linearGradient-15)"></path>
                            <path d="M393.442609,46.7915995 C401.369154,42.2091768 413.37907,41.7102478 420.243997,45.6779189 L644.117733,175.125256 C650.982662,179.094115 650.119727,186.037541 642.193182,190.620555 L335.059589,368.208275 C327.133043,372.791291 315.124906,373.289922 308.260572,369.320767 L84.3850577,239.87432 C77.5207214,235.905163 78.3827681,228.962035 86.3090156,224.378723 L393.442609,46.7915995 Z" id="Path" fill-opacity="0.3" fill="url(#linearGradient-16)"></path>
                            <path d="M393.442609,4.79159884 C401.369154,0.209176627 413.37907,-0.289751889 420.243997,3.67791878 L644.117733,133.125259 C650.982662,137.094115 650.119727,144.037541 642.193182,148.620558 L335.059589,326.208275 C327.133043,330.791291 315.124906,331.289922 308.260572,327.320767 L84.3850577,197.87432 C77.5207214,193.905163 78.3827681,186.962037 86.3090156,182.378723 L393.442609,4.79159884 Z" id="Path" fill="url(#linearGradient-17)"></path>
                            <path d="M406.529164,48.6772563 C414.994346,53.6797097 414.797617,61.9184594 406.088726,67.0639598 C397.382772,72.2091586 383.441502,72.3251592 374.973381,67.3227081 C366.508786,62.3202546 366.70522,54.081505 375.413819,48.9363062 C384.119773,43.7908058 398.063982,43.6748052 406.529164,48.6772563 Z" id="Path" fill-opacity="0.826431381" fill="#3800F3"></path>
                            <path d="M398.639682,52.8385826 C402.87183,55.3398581 402.775579,59.4590948 398.420931,62.0320142 C394.066279,64.6046338 387.09534,64.6625449 382.863195,62.1612717 C378.631047,59.6602959 378.727298,55.5407595 383.081946,52.9681398 C387.436597,50.3955202 394.407536,50.3373094 398.639682,52.8385826 Z" id="Path" fill="#150D42"></path>
                            <path d="M429.557425,63.5779075 C430.766352,62.8794775 432.596079,62.8033915 433.644609,63.4082034 L576.045545,145.670636 C577.091105,146.275744 576.960409,147.333793 575.751482,148.032521 L569.178126,151.829313 C567.969198,152.527746 566.139471,152.603829 565.090942,151.998721 L422.690005,69.7362883 C421.644448,69.1314764 421.775141,68.0731297 422.984069,67.3746997 L429.557425,63.5779075 Z M403.076869,78.8744459 C404.285796,78.1757176 406.118494,78.0999299 407.164053,78.7047418 L549.56499,160.967172 C550.613519,161.572283 550.482823,162.630331 549.273896,163.328763 L542.70054,167.125852 C541.491612,167.824284 539.658915,167.900069 538.613356,167.295257 L396.212421,85.0328267 C395.163892,84.4280149 395.294585,83.3696681 396.503513,82.6712382 L403.076869,78.8744459 Z M339.324226,72.638196 C340.533449,71.9397661 342.365256,71.8636801 343.412598,72.4687903 L523.087404,176.263711 C524.132963,176.868523 524.002267,177.92687 522.79334,178.625299 L516.219984,182.422092 C515.011056,183.120524 513.181329,183.196608 512.1328,182.591796 L332.45829,78.7965768 C331.411247,78.191765 331.542536,77.1334206 332.751759,76.4349883 L339.324226,72.638196 Z" id="Shape" fill="#FFFFFF"></path>
                            <path d="M279.179365,107.578197 C280.389261,106.879212 282.222088,106.803364 283.269714,107.408654 L463.043944,211.285713 C464.093057,211.891004 463.959317,212.950188 462.749717,213.649173 L456.175675,217.448967 C454.966075,218.148251 453.132355,218.224096 452.083242,217.618806 L272.309311,113.741747 C271.261683,113.13616 271.393344,112.077272 272.60324,111.37829 L279.179365,107.578197 Z M247.466739,125.902583 C248.676339,125.203302 250.509164,125.127454 251.557088,125.732745 L431.332805,229.609803 C432.378946,230.215393 432.248178,231.274278 431.038577,231.973559 L424.461562,235.773356 C423.251962,236.472339 421.418244,236.548485 420.372103,235.942896 L240.596684,132.065838 C239.549056,131.460547 239.680717,130.401363 240.890317,129.70238 L247.466739,125.902583 Z M215.753814,144.226671 C216.96371,143.527689 218.796537,143.451545 219.844462,144.056835 L399.618691,247.93419 C400.667804,248.539481 400.534064,249.598665 399.324464,250.29765 L392.75042,254.097444 C391.54082,254.796429 389.707102,254.872573 388.657989,254.267283 L208.884058,150.389928 C207.83643,149.784637 207.967792,148.725453 209.177691,148.026468 L215.753814,144.226671 Z M184.041187,162.550762 C185.251084,161.851779 187.083911,161.775633 188.131539,162.381222 L367.906363,266.25828 C368.953989,266.863571 368.822627,267.922755 367.61273,268.621738 L361.036605,272.421535 C359.826709,273.120816 357.993882,273.196664 356.945957,272.591373 L177.171432,168.714315 C176.123508,168.108725 176.255166,167.04984 177.465062,166.350558 L184.041187,162.550762 Z M152.328561,180.874852 C153.538457,180.175867 155.371285,180.100019 156.41891,180.70531 L241.654712,229.956023 C242.702338,230.561314 242.570978,231.620498 241.361079,232.319483 L234.784957,236.119277 C233.575058,236.818559 231.742233,236.894406 230.694309,236.289116 L145.458805,187.038405 C144.410881,186.432816 144.54254,185.37393 145.752436,184.674945 L152.328561,180.874852 Z" id="Shape" fill="#CCE1FF"></path>
                            <path d="M40.3238009,391 C38.3508399,391 36.7514384,389.432996 36.7514384,387.5 C36.7514384,385.567004 38.3508399,384 40.3238009,384 L218.179076,384 C220.152037,384 221.751438,385.567004 221.751438,387.5 C221.751438,389.432996 220.152037,391 218.179076,391 L40.3238009,391 Z" id="Path" fill="url(#linearGradient-12)" transform="translate(129.251438, 387.500000) rotate(-90.000000) translate(-129.251438, -387.500000) "></path>
                            <circle id="Oval" fill="url(#linearGradient-13)" transform="translate(127.751438, 264.000000) scale(-1, 1) rotate(-90.000000) translate(-127.751438, -264.000000) " cx="127.751438" cy="264" r="19"></circle>
                            <circle id="Oval" fill="#120078" transform="translate(128.251438, 264.500000) scale(-1, 1) rotate(-90.000000) translate(-128.251438, -264.500000) " cx="128.251438" cy="264.5" r="9.5"></circle>
                        </g>
                    </g>
                </g>
            </g>
        </g>
    </g>
</svg>