<?xml version="1.0" encoding="UTF-8"?>
<svg width="380px" height="335px" viewBox="0 0 380 335" version="1.1" xmlns="http://www.w3.org/2000/svg" xmlns:xlink="http://www.w3.org/1999/xlink">
    <!-- Generator: Sketch 58 (84663) - https://sketch.com -->
    <title>Group 17</title>
    <desc>Created with Sketch.</desc>
    <defs>
        <rect id="path-1" x="0.651521798" y="0.888635857" width="379" height="334" rx="14"></rect>
        <path d="M17.5978919,-9.9475983e-14 L137.698891,-9.9475983e-14 C141.277696,-1.03686112e-13 144.178891,2.90119465 144.178891,6.47999961 C144.178891,6.79509078 144.155909,7.10976232 144.110128,7.42150987 L133.413345,80.2615106 C132.946201,83.4425389 130.217254,85.8 127.002108,85.8 L6.90110858,85.8 C3.32230361,85.8 0.421108963,82.8988054 0.421108963,79.3200004 C0.421108963,79.0049092 0.444090971,78.6902377 0.489872079,78.3784901 L11.1866554,5.53848936 C11.6537994,2.35746108 14.3827458,-9.71090134e-14 17.5978919,-9.9475983e-14 Z" id="path-3"></path>
        <filter x="-10.4%" y="-12.8%" width="118.1%" height="130.3%" filterUnits="objectBoundingBox" id="filter-4">
            <feOffset dx="-2" dy="2" in="SourceAlpha" result="shadowOffsetOuter1"></feOffset>
            <feGaussianBlur stdDeviation="4" in="shadowOffsetOuter1" result="shadowBlurOuter1"></feGaussianBlur>
            <feColorMatrix values="0 0 0 0 0.0925881443   0 0 0 0 0.430615208   0 0 0 0 0.573539402  0 0 0 0.16329764 0" type="matrix" in="shadowBlurOuter1"></feColorMatrix>
        </filter>
        <path d="M17.7179465,-8.52651283e-14 L249.411802,-8.52651283e-14 C252.990607,-8.59225441e-14 255.891802,2.90119465 255.891802,6.47999961 C255.891802,6.80301969 255.867649,7.12558764 255.819544,7.44500576 L245.030558,79.0850065 C244.553098,82.25539 241.828951,84.6 238.622816,84.6 L6.92896014,84.6 C3.35015518,84.6 0.448960528,81.6988054 0.448960528,78.1200004 C0.448960528,77.7969803 0.473113717,77.4744124 0.521218096,77.1549942 L11.3102044,5.51499347 C11.7876643,2.34461003 14.5118119,-8.28998141e-14 17.7179465,-8.52651283e-14 Z" id="path-5"></path>
        <filter x="-5.9%" y="-13.0%" width="110.2%" height="130.7%" filterUnits="objectBoundingBox" id="filter-6">
            <feOffset dx="-2" dy="2" in="SourceAlpha" result="shadowOffsetOuter1"></feOffset>
            <feGaussianBlur stdDeviation="4" in="shadowOffsetOuter1" result="shadowBlurOuter1"></feGaussianBlur>
            <feColorMatrix values="0 0 0 0 0.0925881443   0 0 0 0 0.430615208   0 0 0 0 0.573539402  0 0 0 0.16329764 0" type="matrix" in="shadowBlurOuter1"></feColorMatrix>
        </filter>
        <circle id="path-7" cx="174" cy="47.4" r="9"></circle>
        <filter x="-83.3%" y="-61.1%" width="244.4%" height="244.4%" filterUnits="objectBoundingBox" id="filter-8">
            <feOffset dx="-2" dy="2" in="SourceAlpha" result="shadowOffsetOuter1"></feOffset>
            <feGaussianBlur stdDeviation="4" in="shadowOffsetOuter1" result="shadowBlurOuter1"></feGaussianBlur>
            <feColorMatrix values="0 0 0 0 0.0925881443   0 0 0 0 0.430615208   0 0 0 0 0.573539402  0 0 0 0.16329764 0" type="matrix" in="shadowBlurOuter1"></feColorMatrix>
        </filter>
        <path d="M17.3221373,2.84217094e-14 L102.61632,2.84217094e-14 C106.195125,2.50997584e-14 109.09632,2.90119465 109.09632,6.47999961 C109.09632,6.80266153 109.07222,7.12487282 109.024222,7.44394473 L98.182084,79.5179163 C97.7050886,82.6887811 94.9807238,85.0339708 91.7741822,85.0339708 L6.47999961,85.0339708 C2.90119465,85.0339708 2.88599866e-14,82.1327762 2.84217094e-14,78.5539712 C2.83821947e-14,78.2313093 0.0240996568,77.909098 0.0720978666,77.5900261 L10.9142356,5.51605449 C11.391231,2.34518966 14.1155958,3.34516336e-14 17.3221373,2.84217094e-14 Z" id="path-9"></path>
        <filter x="-13.7%" y="-12.9%" width="123.8%" height="130.6%" filterUnits="objectBoundingBox" id="filter-10">
            <feOffset dx="-2" dy="2" in="SourceAlpha" result="shadowOffsetOuter1"></feOffset>
            <feGaussianBlur stdDeviation="4" in="shadowOffsetOuter1" result="shadowBlurOuter1"></feGaussianBlur>
            <feColorMatrix values="0 0 0 0 0.0925881443   0 0 0 0 0.430615208   0 0 0 0 0.573539402  0 0 0 0.16329764 0" type="matrix" in="shadowBlurOuter1"></feColorMatrix>
        </filter>
        <ellipse id="path-11" cx="26.8865076" cy="26.9615334" rx="26.8865076" ry="26.9615334"></ellipse>
        <ellipse id="path-13" cx="22.405423" cy="22.4679445" rx="22.405423" ry="22.4679445"></ellipse>
    </defs>
    <g id="Iteration-2" stroke="none" stroke-width="1" fill="none" fill-rule="evenodd">
        <g id="Developers" transform="translate(-806.000000, -2351.000000)">
            <g id="Group-6-Copy-2" transform="translate(77.000000, 2260.000000)">
                <g id="Block" transform="translate(57.000000, 47.000000)">
                    <g id="Group-17" transform="translate(672.000000, 44.000000)">
                        <g id="Group-19">
                            <g id="Group-9">
                                <mask id="mask-2" fill="white">
                                    <use xlink:href="#path-1"></use>
                                </mask>
                                <use id="Rectangle" fill="#FFFFFF" xlink:href="#path-1"></use>
                                <g id="Group-7" mask="url(#mask-2)">
                                    <g transform="translate(-116.000000, 31.000000)">
                                        <g id="Bubble-2" transform="translate(121.800000, 48.600000)">
                                            <g id="Rectangle-Copy-89">
                                                <use fill="black" fill-opacity="1" filter="url(#filter-4)" xlink:href="#path-3"></use>
                                                <use fill="#7988FF" fill-rule="evenodd" xlink:href="#path-3"></use>
                                            </g>
                                            <g id="Group-13" transform="translate(25.920000, 18.190795)">
                                                <path d="M58.124923,18.5805599 L107.332133,25.8488812 C107.678247,25.9000052 107.934629,26.197038 107.934629,26.5469075 L107.934629,32.1582339 C107.934629,32.547926 107.618721,32.8638339 107.229029,32.8638339 C107.194522,32.8638339 107.160061,32.8613025 107.125925,32.8562603 L57.9187143,25.587939 C57.5726001,25.536815 57.3162187,25.2397822 57.3162187,24.8899126 L57.3162187,19.2785862 C57.3162187,18.8888942 57.6321266,18.5729863 58.0218186,18.5729863 C58.0563257,18.5729863 58.0907863,18.5755176 58.124923,18.5805599 Z" id="Rectangle-Copy-16" fill="#C1DEFF" transform="translate(82.625424, 25.718410) rotate(-90.000000) translate(-82.625424, -25.718410) "></path>
                                                <path d="M64.9784179,27.7980288 L98.1151181,32.7020387 C98.4611442,32.7532482 98.7174191,33.0502413 98.7174191,33.4000362 L98.7174191,39.0113038 C98.7174191,39.4009959 98.4015113,39.7169038 98.0118192,39.7169038 C97.9772464,39.7169038 97.9427205,39.7143628 97.9085202,39.7093014 L64.77182,34.8052915 C64.4257939,34.754082 64.169519,34.4570889 64.169519,34.107294 L64.169519,28.4960264 C64.169519,28.1063343 64.4854268,27.7904264 64.8751189,27.7904264 C64.9096917,27.7904264 64.9442177,27.7929674 64.9784179,27.7980288 Z" id="Rectangle-Copy-24" fill="#FFFFFF" transform="translate(81.443469, 33.753665) rotate(-90.000000) translate(-81.443469, -33.753665) "></path>
                                                <path d="M43.124923,18.5805599 L92.3321333,25.8488812 C92.6782475,25.9000052 92.9346288,26.197038 92.9346288,26.5469075 L92.9346288,32.1582339 C92.9346288,32.547926 92.618721,32.8638339 92.2290289,32.8638339 C92.1945218,32.8638339 92.1600612,32.8613025 92.1259245,32.8562603 L42.9187143,25.587939 C42.5726001,25.536815 42.3162187,25.2397822 42.3162187,24.8899126 L42.3162187,19.2785862 C42.3162187,18.8888942 42.6321266,18.5729863 43.0218186,18.5729863 C43.0563257,18.5729863 43.0907863,18.5755176 43.124923,18.5805599 Z" id="Rectangle-Copy-19" fill="#C1DEFF" transform="translate(67.625424, 25.718410) rotate(-90.000000) translate(-67.625424, -25.718410) "></path>
                                                <path d="M28.124923,18.5805599 L77.3321333,25.8488812 C77.6782475,25.9000052 77.9346288,26.197038 77.9346288,26.5469075 L77.9346288,32.1582339 C77.9346288,32.547926 77.618721,32.8638339 77.2290289,32.8638339 C77.1945218,32.8638339 77.1600612,32.8613025 77.1259245,32.8562603 L27.9187143,25.587939 C27.5726001,25.536815 27.3162187,25.2397822 27.3162187,24.8899126 L27.3162187,19.2785862 C27.3162187,18.8888942 27.6321266,18.5729863 28.0218186,18.5729863 C28.0563257,18.5729863 28.0907863,18.5755176 28.124923,18.5805599 Z" id="Rectangle-Copy-20" fill="#C1DEFF" transform="translate(52.625424, 25.718410) rotate(-90.000000) translate(-52.625424, -25.718410) "></path>
                                                <path d="M13.124923,18.5805599 L62.3321333,25.8488812 C62.6782475,25.9000052 62.9346288,26.197038 62.9346288,26.5469075 L62.9346288,32.1582339 C62.9346288,32.547926 62.618721,32.8638339 62.2290289,32.8638339 C62.1945218,32.8638339 62.1600612,32.8613025 62.1259245,32.8562603 L12.9187143,25.587939 C12.5726001,25.536815 12.3162187,25.2397822 12.3162187,24.8899126 L12.3162187,19.2785862 C12.3162187,18.8888942 12.6321266,18.5729863 13.0218186,18.5729863 C13.0563257,18.5729863 13.0907863,18.5755176 13.124923,18.5805599 Z" id="Rectangle-Copy-21" fill="#C1DEFF" transform="translate(37.625424, 25.718410) rotate(-90.000000) translate(-37.625424, -25.718410) "></path>
                                                <path d="M-1.87507696,18.5805599 L47.3321333,25.8488812 C47.6782475,25.9000052 47.9346288,26.197038 47.9346288,26.5469075 L47.9346288,32.1582339 C47.9346288,32.547926 47.618721,32.8638339 47.2290289,32.8638339 C47.1945218,32.8638339 47.1600612,32.8613025 47.1259245,32.8562603 L-2.08128575,25.587939 C-2.42739992,25.536815 -2.68378129,25.2397822 -2.68378129,24.8899126 L-2.68378129,19.2785862 C-2.68378129,18.8888942 -2.36787344,18.5729863 -1.97818135,18.5729863 C-1.94367426,18.5729863 -1.90921366,18.5755176 -1.87507696,18.5805599 Z" id="Rectangle-Copy-22" fill="#C1DEFF" transform="translate(22.625424, 25.718410) rotate(-90.000000) translate(-22.625424, -25.718410) "></path>
                                                <path d="M-16.875077,18.5805599 L32.3321333,25.8488812 C32.6782475,25.9000052 32.9346288,26.197038 32.9346288,26.5469075 L32.9346288,32.1582339 C32.9346288,32.547926 32.618721,32.8638339 32.2290289,32.8638339 C32.1945218,32.8638339 32.1600612,32.8613025 32.1259245,32.8562603 L-17.0812857,25.587939 C-17.4273999,25.536815 -17.6837813,25.2397822 -17.6837813,24.8899126 L-17.6837813,19.2785862 C-17.6837813,18.8888942 -17.3678734,18.5729863 -16.9781814,18.5729863 C-16.9436743,18.5729863 -16.9092137,18.5755176 -16.875077,18.5805599 Z" id="Rectangle-Copy-23" fill="#C1DEFF" transform="translate(7.625424, 25.718410) rotate(-90.000000) translate(-7.625424, -25.718410) "></path>
                                                <path d="M52.9319508,31.839603 L79.0704932,35.6578439 C79.4171117,35.7084769 79.6741036,36.0057369 79.6741036,36.356034 L79.6741036,41.967695 C79.6741036,42.3573871 79.3581958,42.673295 78.9685037,42.673295 C78.9343727,42.673295 78.9002867,42.6708185 78.8665141,42.6658851 L52.7279718,38.8476441 C52.3813533,38.7970111 52.1243614,38.4997512 52.1243614,38.1494541 L52.1243614,32.5377931 C52.1243614,32.148101 52.4402692,31.8321931 52.8299613,31.8321931 C52.8640923,31.8321931 52.8981783,31.8346696 52.9319508,31.839603 Z" id="Rectangle-Copy-29" fill="#FFFFFF" transform="translate(65.899232, 37.252744) rotate(-90.000000) translate(-65.899232, -37.252744) "></path>
                                                <path d="M33.3437484,25.5994741 L70.3135315,31.0674743 C70.659585,31.1186572 70.9158931,31.4156627 70.9158931,31.7654808 L70.9158931,37.3767668 C70.9158931,37.7664588 70.5999852,38.0823667 70.2102931,38.0823667 C70.1757409,38.0823667 70.1412352,38.0798287 70.1070548,38.0747733 L33.1372717,32.6067731 C32.7912182,32.5555902 32.5349102,32.2585847 32.5349102,31.9087666 L32.5349102,26.2974806 C32.5349102,25.9077885 32.850818,25.5918807 33.2405101,25.5918807 C33.2750624,25.5918807 33.309568,25.5944187 33.3437484,25.5994741 Z" id="Rectangle-Copy-28" fill="#FFFFFF" transform="translate(51.725402, 31.837124) rotate(-90.000000) translate(-51.725402, -31.837124) "></path>
                                                <path d="M16.7191186,23.440418 L57.471636,29.4435524 C57.8178743,29.4945557 58.0744058,29.7916444 58.0744058,30.1416191 L58.0744058,35.7530282 C58.0744058,36.1427203 57.7584979,36.4586281 57.3688059,36.4586281 C57.3343913,36.4586281 57.3000228,36.4561104 57.2659757,36.451095 L16.5134582,30.4479606 C16.1672199,30.3969572 15.9106884,30.0998685 15.9106884,29.7498938 L15.9106884,24.1384847 C15.9106884,23.7487927 16.2265963,23.4328848 16.6162884,23.4328848 C16.650703,23.4328848 16.6850714,23.4354026 16.7191186,23.440418 Z" id="Rectangle-Copy-27" fill="#FFFFFF" transform="translate(36.992547, 29.945756) rotate(-90.000000) translate(-36.992547, -29.945756) "></path>
                                                <path d="M7.08845595,30.6286325 L35.2850855,34.8116523 C35.6310008,34.8629694 35.8871417,35.1599126 35.8871417,35.5096136 L35.8871417,41.1208071 C35.8871417,41.5104991 35.5712338,41.826407 35.1815418,41.826407 C35.1468864,41.826407 35.1122781,41.8238539 35.077998,41.8187683 L6.88136837,37.6357485 C6.53545315,37.5844314 6.27931222,37.2874882 6.27931222,36.9377872 L6.27931222,31.3265938 C6.27931222,30.9369017 6.59522007,30.6209938 6.98491216,30.6209938 C7.01956751,30.6209938 7.05417577,30.623547 7.08845595,30.6286325 Z" id="Rectangle-Copy-26" fill="#FFFFFF" transform="translate(21.083227, 36.223700) rotate(-90.000000) translate(-21.083227, -36.223700) "></path>
                                                <path d="M-14.5139101,21.7265186 L29.1871864,28.209296 C29.5331042,28.2606107 29.7892482,28.557555 29.7892482,28.9072581 L29.7892482,34.5184533 C29.7892482,34.9081453 29.4733403,35.2240532 29.0836482,35.2240532 C29.0489948,35.2240532 29.0143884,35.2215003 28.98011,35.2164154 L-14.7209865,28.7336379 C-15.0669042,28.6823233 -15.3230482,28.385379 -15.3230482,28.0356758 L-15.3230482,22.4244807 C-15.3230482,22.0347886 -15.0071404,21.7188807 -14.6174483,21.7188807 C-14.5827948,21.7188807 -14.5481884,21.7214336 -14.5139101,21.7265186 Z" id="Rectangle-Copy-25" fill="#FFFFFF" transform="translate(7.233100, 28.471467) rotate(-90.000000) translate(-7.233100, -28.471467) "></path>
                                            </g>
                                        </g>
                                        <g id="chart" transform="translate(0.000000, 141.600000)">
                                            <g id="Rectangle-Copy-89">
                                                <use fill="black" fill-opacity="1" filter="url(#filter-6)" xlink:href="#path-5"></use>
                                                <use fill="#FFFFFF" fill-rule="evenodd" xlink:href="#path-5"></use>
                                            </g>
                                            <path d="M11.4401025,74.8952218 C25.6739099,46.1607402 43.3475694,34.1785846 64.4610811,38.9487551 C96.1313486,46.1040107 121.087415,91.3956239 151.8,68.7498173 C182.512585,46.1040107 196.827077,8.06271654 229.900389,8.06271654" id="Path-166" stroke="#131C5D" stroke-width="3.6" stroke-linecap="round"></path>
                                            <g id="Oval">
                                                <use fill="black" fill-opacity="1" filter="url(#filter-8)" xlink:href="#path-7"></use>
                                                <use fill="#8CC6FF" fill-rule="evenodd" xlink:href="#path-7"></use>
                                            </g>
                                        </g>
                                        <g id="walet" transform="translate(264.759124, 142.366029)">
                                            <g id="Rectangle-Copy-89">
                                                <use fill="black" fill-opacity="1" filter="url(#filter-10)" xlink:href="#path-9"></use>
                                                <use fill="#320FA8" fill-rule="evenodd" xlink:href="#path-9"></use>
                                            </g>
                                            <path d="M20.8547653,4.28397081 C18.0921689,4.28397081 15.7451241,6.30475938 15.3347084,9.03669972 L5.54941629,74.1727007 C5.5081787,74.4471996 5.48747374,74.7243921 5.48747374,75.0019713 C5.48747374,78.0848245 7.98662004,80.5839708 11.0694732,80.5839708 L88.0269865,80.5839708 C90.789583,80.5839708 93.1366278,78.5631822 93.5470435,75.8312419 L103.332336,10.6952409 C103.373573,10.420742 103.394278,10.1435495 103.394278,9.8659703 C103.394278,6.78311711 100.895132,4.28397081 97.8122786,4.28397081 L20.8547653,4.28397081 Z" id="Rectangle-Copy-91" stroke="#FFFFFF" stroke-width="0.5"></path>
                                            <path d="M75.4298581,26.8339708 L104.036215,26.8339708 C108.344036,26.8339708 111.836215,30.3261498 111.836215,34.6339708 C111.836215,35.0062755 111.809559,35.3781025 111.756452,35.7466 L109.498579,51.4133774 C108.946916,55.2412176 105.673696,58.0868197 101.806333,58.100698 L73.0688665,58.2038242 C68.7610732,58.2192829 65.2563849,54.7396583 65.2409262,50.431865 C65.2394892,50.0314379 65.2688895,49.6314948 65.3288662,49.2355823 L67.7178484,33.4656787 C68.2955033,29.6525222 71.5731953,26.8339708 75.4298581,26.8339708 Z" id="Rectangle-Copy-90" fill="#5233B7"></path>
                                            <circle id="Oval" fill="#F2F6FF" cx="84.4408759" cy="42.4339708" r="7.2"></circle>
                                        </g>
                                        <g id="card_wishlist-copy-2" transform="translate(375.700000, 102.800000) scale(-1, 1) translate(-375.700000, -102.800000) translate(279.200000, 70.800000)">
                                            <path d="M6.90138671,0 L179.621451,0 C183.004704,-4.1742072e-15 185.860408,2.51521485 186.287653,5.87138283 L192.634403,55.7274484 C193.103081,59.4090902 190.49846,62.7735894 186.816818,63.2422678 C186.535365,63.2780972 186.251925,63.2960658 185.968201,63.2960658 L14.7623336,63.2960658 C11.4550481,63.2960658 8.63944507,60.8896227 8.12433964,57.622697 L0.263392718,7.7666314 C-0.314645785,4.10056854 2.18869256,0.660044608 5.85475542,0.0820061051 C6.20096019,0.0274190191 6.55090491,2.72891772e-15 6.90138671,0 Z" id="Rectangle" fill="#0DB884"></path>
                                            <path d="M82.2917965,22.9855883 L123.109663,22.9855883" id="Path-120" stroke="#FFFFFF" stroke-width="2.88000004" stroke-linecap="round"></path>
                                            <path d="M26.6974363,33.7358725 L125.19304,33.7358725" id="Path-120-Copy" stroke="#FFFFFF" stroke-width="2.88000004" stroke-linecap="round"></path>
                                            <circle id="Oval" fill="#FFFFFF" cx="157.5" cy="33.9" r="15.9"></circle>
                                            <path d="M45.3759919,44.5991854 L126.93774,44.5991854" id="Path-120-Copy-2" stroke="#FFFFFF" stroke-width="2.88000004" stroke-linecap="round"></path>
                                        </g>
                                        <g id="card_wishlist-copy-3" transform="translate(385.900000, 32.000000) scale(-1, 1) translate(-385.900000, -32.000000) translate(289.400000, 0.000000)">
                                            <path d="M6.90138671,0 L179.621451,0 C183.004704,-4.1742072e-15 185.860408,2.51521485 186.287653,5.87138283 L192.634403,55.7274484 C193.103081,59.4090902 190.49846,62.7735894 186.816818,63.2422678 C186.535365,63.2780972 186.251925,63.2960658 185.968201,63.2960658 L14.7623336,63.2960658 C11.4550481,63.2960658 8.63944507,60.8896227 8.12433964,57.622697 L0.263392718,7.7666314 C-0.314645785,4.10056854 2.18869256,0.660044608 5.85475542,0.0820061051 C6.20096019,0.0274190191 6.55090491,2.72891772e-15 6.90138671,0 Z" id="Rectangle" fill="#4313E6"></path>
                                            <path d="M82.2917965,22.9855883 L123.109663,22.9855883" id="Path-120" stroke="#FFFFFF" stroke-width="2.88000004" stroke-linecap="round"></path>
                                            <path d="M26.6974363,33.7358725 L125.19304,33.7358725" id="Path-120-Copy" stroke="#FFFFFF" stroke-width="2.88000004" stroke-linecap="round"></path>
                                            <circle id="Oval" fill="#FFFFFF" cx="156.3" cy="31.5" r="15.9"></circle>
                                            <path d="M45.3759919,44.5991854 L126.93774,44.5991854" id="Path-120-Copy-2" stroke="#FFFFFF" stroke-width="2.88000004" stroke-linecap="round"></path>
                                        </g>
                                        <g id="Coin-Copy-2" transform="translate(150.000000, 156.600000)">
                                            <g id="Oval-Copy-15" transform="translate(4.481085, 0.000000)">
                                                <mask id="mask-12" fill="white">
                                                    <use xlink:href="#path-11"></use>
                                                </mask>
                                                <use id="Oval-Copy-9" fill="#D69503" xlink:href="#path-11"></use>
                                                <path d="M53.7730153,51.6762723 L53.7730153,52.1256312 L26.8865076,52.1256312 L26.8865076,51.6762723 L53.7730153,51.6762723 Z M53.7730153,47.1826834 L53.7730153,47.6320423 L26.8865076,47.6320423 L26.8865076,47.1826834 L53.7730153,47.1826834 Z M53.7730153,40.4423001 L53.7730153,41.3410179 L26.8865076,41.3410179 L26.8865076,40.4423001 L53.7730153,40.4423001 Z M53.7730153,31.4551223 L53.7730153,32.3538401 L26.8865076,32.3538401 L26.8865076,31.4551223 L53.7730153,31.4551223 Z M53.7730153,22.4679445 L53.7730153,23.3666623 L26.8865076,23.3666623 L26.8865076,22.4679445 L53.7730153,22.4679445 Z M53.7730153,13.4807667 L53.7730153,14.3794845 L26.8865076,14.3794845 L26.8865076,13.4807667 L53.7730153,13.4807667 Z M53.7730153,6.74038335 L53.7730153,7.18974224 L26.8865076,7.18974224 L26.8865076,6.74038335 L53.7730153,6.74038335 Z M53.7730153,2.24679445 L53.7730153,2.69615334 L26.8865076,2.69615334 L26.8865076,2.24679445 L53.7730153,2.24679445 Z" id="Combined-Shape" fill="#FFC035" mask="url(#mask-12)"></path>
                                                <rect id="Rectangle" fill="#FFFFFF" mask="url(#mask-12)" x="42.1221953" y="13.0314078" width="10.3064946" height="1"></rect>
                                                <rect id="Rectangle-Copy-18" fill="#FFFFFF" mask="url(#mask-12)" x="43.4665207" y="22.0185856" width="10.3064946" height="1"></rect>
                                                <rect id="Rectangle-Copy-16" fill="#FFFFFF" mask="url(#mask-12)" x="38.5373276" y="5.84166557" width="10.3064946" height="1"></rect>
                                                <rect id="Rectangle-Copy-17" fill="#FFFFFF" mask="url(#mask-12)" x="30.9194838" y="1.34807667" width="10.3064946" height="1"></rect>
                                            </g>
                                            <ellipse id="Oval" stroke="#D69503" stroke-width="0.895967969" fill="#FFC035" cx="26.8865076" cy="26.9615334" rx="26.4385236" ry="26.5135494"></ellipse>
                                            <g id="Oval-Copy-13" transform="translate(4.481085, 4.493589)">
                                                <mask id="mask-14" fill="white">
                                                    <use xlink:href="#path-13"></use>
                                                </mask>
                                                <use id="Oval-Copy-14" fill="#D69503" xlink:href="#path-13"></use>
                                                <ellipse id="Oval-Copy-10" fill="#FFC035" mask="url(#mask-14)" cx="24.1978569" cy="22.4679445" rx="22.405423" ry="22.4679445"></ellipse>
                                            </g>
                                        </g>
                                    </g>
                                </g>
                            </g>
                        </g>
                    </g>
                </g>
            </g>
        </g>
    </g>
</svg>