<svg xmlns="http://www.w3.org/2000/svg" width="64" height="64" viewBox="0 0 64 64">
    <g fill="none" fill-rule="evenodd">
        <circle cx="32" cy="32" r="32" fill="#EFF2F6"/>
        <path d="M20 20h24v24H20z"/>
        <path fill="#4737FF" d="M36.5 32c1.38 0 2.49-1.12 2.49-2.5S37.88 27 36.5 27a2.5 2.5 0 0 0 0 5zM29 31c1.66 0 2.99-1.34 2.99-3s-1.33-3-2.99-3c-1.66 0-3 1.34-3 3s1.34 3 3 3zm7.5 3c-1.83 0-5.5.92-5.5 2.75V38c0 .55.45 1 1 1h9c.55 0 1-.45 1-1v-1.25c0-1.83-3.67-2.75-5.5-2.75zM29 33c-2.33 0-7 1.17-7 3.5V38c0 .55.45 1 1 1h6v-2.25c0-.85.33-2.34 2.37-3.47C30.5 33.1 29.66 33 29 33z"/>
    </g>
</svg>
