<svg xmlns="http://www.w3.org/2000/svg" width="124" height="34" viewBox="0 0 124 34">
    <path fill="#18214D" fill-rule="evenodd" d="M63.933 6.799c0 1.405-1.15 2.537-2.578 2.537-1.429 0-2.58-1.132-2.58-2.537 0-1.406 1.112-2.538 2.58-2.538 1.468.04 2.578 1.171 2.578 2.538zm-10.632 5.114v.625s-1.23-1.562-3.849-1.562c-4.324 0-7.696 3.24-7.696 7.73 0 4.45 3.332 7.73 7.696 7.73 2.659 0 3.849-1.601 3.849-1.601v.664c0 .312.238.546.555.546h3.214V11.366h-3.214a.563.563 0 0 0-.555.547zm0 9.408c-.595.86-1.785 1.6-3.214 1.6-2.539 0-4.483-1.56-4.483-4.215s1.944-4.216 4.483-4.216c1.389 0 2.658.78 3.214 1.6v5.231zm6.15-9.955h3.808v14.68H59.45v-14.68zm56.892-.39c-2.619 0-3.849 1.562-3.849 1.562V4.3h-3.808v21.745h3.213a.563.563 0 0 0 .556-.546v-.664s1.23 1.6 3.848 1.6c4.325 0 7.697-3.279 7.697-7.73 0-4.45-3.372-7.73-7.657-7.73zm-.635 11.907c-1.468 0-2.618-.742-3.214-1.6V16.05c.596-.78 1.865-1.6 3.214-1.6 2.54 0 4.483 1.56 4.483 4.216 0 2.654-1.944 4.216-4.483 4.216zm-9.006-5.544v8.745h-3.809V17.77c0-2.42-.793-3.397-2.935-3.397-1.151 0-2.341.586-3.095 1.445v10.228h-3.809V11.366h3.015c.318 0 .556.274.556.547v.625c1.11-1.133 2.579-1.562 4.047-1.562 1.666 0 3.055.468 4.165 1.405 1.35 1.093 1.865 2.499 1.865 4.958zM83.81 10.976c-2.618 0-3.848 1.562-3.848 1.562V4.3h-3.809v21.745h3.214a.563.563 0 0 0 .555-.546v-.664s1.23 1.6 3.848 1.6c4.325 0 7.697-3.279 7.697-7.73.04-4.45-3.332-7.73-7.657-7.73zm-.635 11.907c-1.468 0-2.618-.742-3.213-1.6V16.05c.595-.78 1.865-1.6 3.213-1.6 2.54 0 4.484 1.56 4.484 4.216 0 2.654-1.944 4.216-4.484 4.216zM72.86 10.976c1.15 0 1.746.195 1.746.195v3.475s-3.174-1.054-5.158 1.17v10.268H65.64V11.366h3.214c.317 0 .555.274.555.547v.625c.715-.82 2.262-1.562 3.452-1.562zM31.548 24.164c-.173-.408-.345-.85-.517-1.225-.276-.613-.552-1.191-.793-1.736l-.035-.034a353.277 353.277 0 0 0-7.619-15.383l-.103-.204a69.13 69.13 0 0 1-.828-1.6c-.344-.613-.69-1.26-1.24-1.872C19.308.75 17.722 0 16.032 0c-1.723 0-3.274.749-4.412 2.042-.517.613-.896 1.26-1.241 1.872-.276.544-.552 1.089-.827 1.6l-.104.204C6.795 10.823 4.21 15.996 1.83 21.1l-.034.068c-.242.545-.518 1.123-.793 1.736-.173.374-.345.783-.517 1.225-.449 1.26-.587 2.45-.414 3.676a7.25 7.25 0 0 0 4.482 5.65A7.16 7.16 0 0 0 7.346 34c.276 0 .62-.034.896-.068a9.19 9.19 0 0 0 3.448-1.157c1.414-.783 2.758-1.906 4.275-3.54 1.517 1.634 2.896 2.757 4.275 3.54a9.19 9.19 0 0 0 3.447 1.157c.276.034.62.068.897.068.965 0 1.93-.17 2.792-.544a7.235 7.235 0 0 0 4.482-5.65c.276-1.191.138-2.383-.31-3.642zM16.03 25.577c-1.788-2.247-2.947-4.36-3.344-6.145-.166-.76-.2-1.42-.1-2.015a3.2 3.2 0 0 1 .53-1.387c.63-.892 1.69-1.453 2.914-1.453 1.226 0 2.319.528 2.915 1.453a3.2 3.2 0 0 1 .53 1.387c.099.595.066 1.289-.1 2.015-.397 1.751-1.556 3.865-3.345 6.145zm13.44 1.71c-.235 1.73-1.415 3.226-3.066 3.891a5.168 5.168 0 0 1-2.562.333c-.843-.1-1.685-.366-2.562-.865-1.213-.665-2.427-1.696-3.842-3.226 2.224-2.694 3.573-5.155 4.078-7.35a8.227 8.227 0 0 0 .169-2.827 5.355 5.355 0 0 0-.91-2.261c-1.045-1.497-2.798-2.362-4.753-2.362s-3.707.898-4.752 2.362a5.356 5.356 0 0 0-.91 2.261 6.816 6.816 0 0 0 .168 2.827c.506 2.195 1.888 4.69 4.079 7.383-1.382 1.53-2.63 2.561-3.843 3.226-.876.499-1.719.765-2.562.865a5.46 5.46 0 0 1-2.561-.333c-1.652-.665-2.832-2.161-3.068-3.89a5.437 5.437 0 0 1 .304-2.595c.101-.333.27-.665.438-1.064a68.14 68.14 0 0 1 .775-1.663l.034-.067A361.545 361.545 0 0 1 11.54 7l.101-.2c.27-.499.54-1.03.81-1.53.27-.532.572-1.03.943-1.463.708-.798 1.652-1.23 2.697-1.23 1.045 0 1.988.432 2.696 1.23.37.432.674.931.944 1.463.27.5.54 1.031.809 1.53l.1.2a438.647 438.647 0 0 1 7.383 14.966v.033c.27.532.505 1.13.775 1.663.168.399.337.731.438 1.064.27.865.37 1.696.236 2.56z" opacity=".364"/>
</svg>
