<?xml version="1.0" encoding="UTF-8"?>
<svg width="637px" height="469px" viewBox="0 0 637 469" version="1.1" xmlns="http://www.w3.org/2000/svg" xmlns:xlink="http://www.w3.org/1999/xlink">
    <!-- Generator: Sketch 58 (84663) - https://sketch.com -->
    <title>WearePCIDSS</title>
    <desc>Created with Sketch.</desc>
    <defs>
        <linearGradient x1="38.8592976%" y1="26.1960301%" x2="94.6928064%" y2="94.883836%" id="linearGradient-1">
            <stop stop-color="#FFE3D0" offset="0%"></stop>
            <stop stop-color="#FFA390" offset="100%"></stop>
        </linearGradient>
        <linearGradient x1="38.8592976%" y1="29.1741271%" x2="94.6928064%" y2="89.2684526%" id="linearGradient-2">
            <stop stop-color="#FFE3D0" offset="0%"></stop>
            <stop stop-color="#FFA390" offset="100%"></stop>
        </linearGradient>
        <rect id="path-3" x="0" y="0" width="360.320377" height="290.822381" rx="26.7299983"></rect>
        <rect id="path-5" x="0" y="0" width="406.8" height="261" rx="12.6"></rect>
        <filter x="-42.0%" y="-58.6%" width="184.1%" height="231.0%" filterUnits="objectBoundingBox" id="filter-7">
            <feOffset dx="0" dy="18" in="SourceAlpha" result="shadowOffsetOuter1"></feOffset>
            <feGaussianBlur stdDeviation="54" in="shadowOffsetOuter1" result="shadowBlurOuter1"></feGaussianBlur>
            <feColorMatrix values="0 0 0 0 0.760750264   0 0 0 0 0.742437015   0 0 0 0 0.822492074  0 0 0 1 0" type="matrix" in="shadowBlurOuter1"></feColorMatrix>
        </filter>
        <rect id="path-8" x="0.117931034" y="0" width="414" height="262.8" rx="16.2"></rect>
        <linearGradient x1="20.9795463%" y1="2.71649128%" x2="79.0204537%" y2="74.5989577%" id="linearGradient-10">
            <stop stop-color="#05004D" stop-opacity="0.5" offset="0%"></stop>
            <stop stop-color="#05004D" stop-opacity="0" offset="100%"></stop>
        </linearGradient>
    </defs>
    <g id="Iteration-2" stroke="none" stroke-width="1" fill="none" fill-rule="evenodd">
        <g id="WearePCIDSS" transform="translate(49.000000, 0.000000)">
            <g id="Elements-/-Placeholder-/-Radius-8px">
                <g id="Bitmap" transform="translate(5.000000, 31.000000)"></g>
                <g id="Group-32">
                    <g id="Group-4-Copy-2" opacity="0.264462426" transform="translate(134.000000, 0.000000)">
                        <rect id="Rectangle-Copy" fill="url(#linearGradient-1)" opacity="0.287923177" x="0" y="267.299983" width="132.580791" height="114.404393" rx="10.4247003"></rect>
                        <rect id="Rectangle-Copy-2" fill="url(#linearGradient-1)" opacity="0.287923177" x="320.759979" y="0" width="132.580791" height="114.404393" rx="10.4247003"></rect>
                        <g id="Group-8" transform="translate(53.459997, 33.145198)">
                            <mask id="mask-4" fill="white">
                                <use xlink:href="#path-3"></use>
                            </mask>
                            <use id="Rectangle" fill="url(#linearGradient-2)" xlink:href="#path-3"></use>
                            <circle id="Oval-Copy-2" stroke="#FFFAF8" stroke-width="85.5359945" opacity="0.274623326" mask="url(#mask-4)" cx="337.867178" cy="263.023183" r="115.473593"></circle>
                        </g>
                        <g id="Group-2" transform="translate(116.450891, 101.573993)">
                            <g id="Group">
                                <path d="M12.8303992,156.10319 C35.6731056,122.468835 61.1218333,110.362023 89.1765821,119.782756 C131.258705,133.913854 164.476632,140.378116 181.00729,84.6525057 C192.027729,47.5020986 214.084923,27.8381961 247.178872,25.6607983" id="Path-59-Copy" stroke="#FFB3A0" stroke-width="8.55359945" opacity="0.347958519" style="mix-blend-mode: multiply;" stroke-linecap="round"></path>
                                <path d="M8.52651283e-14,130.442392 C22.8427065,96.8080363 48.2914341,84.7012248 76.3461829,94.1219573 C118.428306,108.253056 151.646232,114.717318 168.176891,58.9917074 C179.19733,21.8413002 201.254524,2.17739776 234.348473,0" id="Path-59" stroke="#FFFFFF" stroke-width="14.2559995" stroke-linecap="round"></path>
                                <circle id="Oval" fill="#FFFFFF" cx="144.9" cy="98.1" r="13.5"></circle>
                            </g>
                        </g>
                        <g id="Group-3" transform="translate(105.687784, 82.154887)" stroke-linecap="round" stroke-width="14.2559995">
                            <path d="M4.54747351e-13,0.534599966 L37.9436106,0.534599966" id="Path-60" stroke="#FFFFFF"></path>
                            <path d="M2.52242671e-13,32.6105979 L16.559612,32.6105979" id="Path-60-Copy" stroke="#3A49A6"></path>
                        </g>
                    </g>
                    <g id="Group-28-Copy" transform="translate(0.600000, 75.900000)">
                        <rect id="Rectangle" fill="#88DBD5" fill-rule="nonzero" transform="translate(455.400000, 26.100000) rotate(23.118600) translate(-455.400000, -26.100000) " x="439.2" y="9.9" width="32.4" height="32.4" rx="3.6"></rect>
                        <g id="Group-27" transform="translate(48.600000, 15.300000)">
                            <mask id="mask-6" fill="white">
                                <use xlink:href="#path-5"></use>
                            </mask>
                            <g id="Mask">
                                <use fill="black" fill-opacity="1" filter="url(#filter-7)" xlink:href="#path-5"></use>
                                <use fill="#FFFFFF" fill-rule="evenodd" xlink:href="#path-5"></use>
                            </g>
                            <g mask="url(#mask-6)" id="25">
                                <g transform="translate(-2.700000, -2.370925)">
                                    <g transform="translate(0.782069, 0.570925)">
                                        <mask id="mask-9" fill="white">
                                            <use xlink:href="#path-8"></use>
                                        </mask>
                                        <g id="Rectangle" fill-rule="nonzero"></g>
                                        <rect id="Rectangle" fill="#320FA8" fill-rule="nonzero" mask="url(#mask-9)" x="0.117931034" y="0" width="414" height="297"></rect>
                                        <ellipse id="Oval" fill="#510FA8" fill-rule="nonzero" opacity="0.600000024" mask="url(#mask-9)" cx="-1.68206897" cy="-0.9" rx="513" ry="515.7"></ellipse>
                                        <ellipse id="Oval-Copy" fill="#9575CD" fill-rule="nonzero" opacity="0.0870303199" mask="url(#mask-9)" cx="318.717931" cy="125.1" rx="144" ry="144.9"></ellipse>
                                        <g id="Group-2" mask="url(#mask-9)">
                                            <g transform="translate(23.517931, 21.600000)">
                                                <text id="****-****-****-3728" font-family="Helvetica" font-size="21.6" font-weight="normal" letter-spacing="3.3230763">
                                                    <tspan x="0" y="115.864286" fill="#FFFFFF">**** **** **** 3728</tspan>
                                                </text>
                                                <g id="Carbon-SME-Finance_-Fast-and-Flexible-loans-for-your-business.-1" stroke-width="1" fill-rule="evenodd" transform="translate(0.000000, 1.831034)">
                                                    <polygon id="Path" fill-opacity="0.368853802" fill="#FFFFFF" fill-rule="nonzero" points="41.4954163 12.0347256 27.6730174 12.0347256 41.4954163 36.1070088"></polygon>
                                                    <polygon id="Path" fill="#FFFFFF" fill-rule="nonzero" points="41.4939384 12.0352212 20.7619587 0 27.6713988 12.0352212"></polygon>
                                                    <polygon id="Path" fill-opacity="0.368853802" fill="#FFFFFF" fill-rule="nonzero" points="27.6730174 12.0369912 20.7618179 0 0.0299205928 12.0352212 0.0299205928 12.0369912"></polygon>
                                                    <polygon id="Path" fill-opacity="0.368853802" fill="#FFFFFF" fill-rule="nonzero" points="0.0299205928 36.1070088 13.8523778 36.1070088 0.0299205928 12.0347256"></polygon>
                                                    <polygon id="Path" fill="#FFFFFF" fill-rule="nonzero" points="0.0299205928 36.1070088 20.7618179 48.144 13.8523778 36.1070088"></polygon>
                                                    <polygon id="Path" fill-opacity="0.368853802" fill="#FFFFFF" fill-rule="nonzero" points="13.8521667 36.1070088 20.7633662 48.144 41.4954163 36.1070088"></polygon>
                                                </g>
                                                <g id="sim-card" stroke-width="1" fill-rule="evenodd" transform="translate(306.000000, 0.000000)">
                                                    <path d="M44.1767882,0 L18.6008141,0 L6.97515996,0 C3.13792095,0 0,3.19911313 0,7.10884408 L0,33.1739145 C0,37.0836455 3.13792095,40.2827586 6.97515996,40.2827586 L18.6008141,40.2827586 L44.1767882,40.2827586 L51.1522388,33.1739145 L51.1522388,7.10884408 C51.1522388,3.19940935 48.0140272,0 44.1767882,0 Z" id="Path" fill="#FFCE54"></path>
                                                    <g id="Group" transform="translate(2.726866, 2.731034)" fill="#3A3847">
                                                        <path d="M42.6901703,11.9909752 L31.2358015,11.9909752 C30.602916,11.9909752 30.0905938,11.4713782 30.0905938,10.8292154 C30.0905938,10.1873431 30.602916,9.66745562 31.2358015,9.66745562 L42.6901703,9.66745562 C43.3230558,9.66745562 43.8353781,10.1870527 43.8353781,10.8292154 C43.8353781,11.4713782 43.3230558,11.9909752 42.6901703,11.9909752 Z" id="Path"></path>
                                                        <path d="M42.6901703,23.6079925 L31.2358015,23.6079925 C30.602916,23.6079925 30.0905938,23.0883954 30.0905938,22.4462327 C30.0905938,21.8040699 30.602916,21.2844728 31.2358015,21.2844728 L42.6901703,21.2844728 C43.3230558,21.2844728 43.8353781,21.8040699 43.8353781,22.4462327 C43.8353781,23.0883954 43.3230558,23.6079925 42.6901703,23.6079925 Z" id="Path"></path>
                                                        <path d="M10.6183387,11.9909752 L1.45495823,11.9909752 C0.821786333,11.9909752 0.309464074,11.4713782 0.309464074,10.8292154 C0.309464074,10.1873431 0.821786333,9.66745562 1.45495823,9.66745562 L10.6183387,9.66745562 C11.2515106,9.66745562 11.7638328,10.1870527 11.7638328,10.8292154 C11.7638328,11.4713782 11.2515106,11.9909752 10.6183387,11.9909752 Z" id="Path"></path>
                                                        <path d="M10.6183387,23.6079925 L1.45495823,23.6079925 C0.821786333,23.6079925 0.309464074,23.0883954 0.309464074,22.4462327 C0.309464074,21.8040699 0.821786333,21.2844728 1.45495823,21.2844728 L10.6183387,21.2844728 C11.2515106,21.2844728 11.7638328,21.8040699 11.7638328,22.4462327 C11.7638328,23.0883954 11.2515106,23.6079925 10.6183387,23.6079925 Z" id="Path"></path>
                                                        <path d="M17.4907308,25.9312216 L15.2000289,25.9312216 C13.3050952,25.9312216 11.7638328,24.3677834 11.7638328,22.4462327 L11.7638328,10.8292154 C11.7638328,8.90766471 13.3050952,7.34422644 15.2000289,7.34422644 C15.8329144,7.34422644 16.3452367,7.86382352 16.3452367,8.50598625 C16.3452367,9.14785855 15.8329144,9.66774606 15.2000289,9.66774606 C14.569148,9.66774606 14.0545348,10.1885049 14.0545348,10.8295059 L14.0545348,22.4465231 C14.0545348,23.0875241 14.569148,23.6082829 15.2000289,23.6082829 L17.4907308,23.6082829 C18.1239027,23.6082829 18.636225,24.12788 18.636225,24.7700427 C18.636225,25.4116246 18.1239027,25.9312216 17.4907308,25.9312216 Z" id="Path"></path>
                                                        <path d="M28.9450996,25.9312216 L26.6541113,25.9312216 C26.0209394,25.9312216 25.5086172,25.4116246 25.5086172,24.7694618 C25.5086172,24.1275895 26.0209394,23.607702 26.6541113,23.607702 L28.9450996,23.607702 C29.5759805,23.607702 30.0905938,23.0869432 30.0905938,22.4459422 L30.0905938,10.828925 C30.0905938,10.1870527 30.602916,9.66716518 31.2358015,9.66716518 C31.8689734,9.66716518 32.3812957,10.1867623 32.3812957,10.828925 L32.3812957,22.4459422 C32.3812957,24.3680738 30.8397469,25.9312216 28.9450996,25.9312216 Z" id="Path"></path>
                                                        <path d="M26.6541113,30.5779704 C26.0209394,30.5779704 25.5086172,30.0583734 25.5086172,29.4162106 L25.5086172,24.7694618 C25.5086172,24.1275895 26.0209394,23.607702 26.6541113,23.607702 C27.2872832,23.607702 27.7996055,24.1272991 27.7996055,24.7694618 L27.7996055,29.4162106 C27.7996055,30.0583734 27.2872832,30.5779704 26.6541113,30.5779704 Z" id="Path"></path>
                                                        <path d="M17.4907308,30.5779704 C16.857559,30.5779704 16.3452367,30.0583734 16.3452367,29.4162106 L16.3452367,24.7694618 C16.3452367,24.1275895 16.857559,23.607702 17.4907308,23.607702 C18.1239027,23.607702 18.636225,24.1272991 18.636225,24.7694618 L18.636225,29.4162106 C18.636225,30.0583734 18.1239027,30.5779704 17.4907308,30.5779704 Z" id="Path"></path>
                                                        <path d="M28.9450996,32.9014901 C28.6521395,32.9014901 28.358893,32.787928 28.1352352,32.5610944 L25.8442469,30.2375748 C25.3966451,29.7836172 25.3966451,29.0485137 25.8442469,28.5948464 C26.2918488,28.1408888 27.0166602,28.1408888 27.4639757,28.5948464 L29.754964,30.9183661 C30.2025658,31.3723237 30.2025658,32.1074272 29.754964,32.5610944 C29.5313062,32.787928 29.2383461,32.9014901 28.9450996,32.9014901 Z" id="Path"></path>
                                                        <path d="M15.2000289,32.9014901 C14.9070688,32.9014901 14.6138223,32.787928 14.3901646,32.5610944 C13.9425627,32.1074272 13.9425627,31.3723237 14.3901646,30.9183661 L16.6808665,28.5948464 C17.1284683,28.1408888 17.8532797,28.1408888 18.3005952,28.5948464 C18.748197,29.0485137 18.748197,29.7836172 18.3005952,30.2375748 L16.0096069,32.5610944 C15.7859492,32.787928 15.4932754,32.9014901 15.2000289,32.9014901 Z" id="Path"></path>
                                                        <path d="M26.6541113,9.66774606 C26.0209394,9.66774606 25.5086172,9.14814899 25.5086172,8.50598625 L25.5086172,3.85923746 C25.5086172,3.21707472 26.0209394,2.69747765 26.6541113,2.69747765 C27.2872832,2.69747765 27.7996055,3.21707472 27.7996055,3.85923746 L27.7996055,8.50598625 C27.7996055,9.14814899 27.2872832,9.66774606 26.6541113,9.66774606 Z" id="Path"></path>
                                                        <path d="M17.4907308,9.66774606 C16.857559,9.66774606 16.3452367,9.14814899 16.3452367,8.50598625 L16.3452367,3.85923746 C16.3452367,3.21707472 16.857559,2.69747765 17.4907308,2.69747765 C18.1239027,2.69747765 18.636225,3.21707472 18.636225,3.85923746 L18.636225,8.50598625 C18.636225,9.14814899 18.1239027,9.66774606 17.4907308,9.66774606 Z" id="Path"></path>
                                                        <path d="M26.6541113,5.02099727 C26.3611512,5.02099727 26.0679047,4.90743524 25.8442469,4.68060164 C25.3966451,4.22693444 25.3966451,3.49183092 25.8442469,3.03787327 L28.1352352,0.71435365 C28.5828371,0.260396005 29.3076485,0.260396005 29.754964,0.71435365 C30.2025658,1.16802086 30.2025658,1.90312438 29.754964,2.35708202 L27.4639757,4.68060164 C27.2403179,4.90743524 26.9473578,5.02099727 26.6541113,5.02099727 Z" id="Path"></path>
                                                        <path d="M17.4907308,5.02099727 C17.1977707,5.02099727 16.9045242,4.90743524 16.6808665,4.68060164 L14.3901646,2.35708202 C13.9425627,1.90312438 13.9425627,1.16802086 14.3901646,0.71435365 C14.8377664,0.260396005 15.5625778,0.260396005 16.0096069,0.71435365 L18.3005952,3.03787327 C18.748197,3.49183092 18.748197,4.22693444 18.3005952,4.68060164 C18.0769375,4.90743524 17.7839773,5.02099727 17.4907308,5.02099727 Z" id="Path"></path>
                                                        <path d="M17.4907308,9.66774606 L15.2000289,9.66774606 C14.566857,9.66774606 14.0545348,9.14814899 14.0545348,8.50598625 C14.0545348,7.86382352 14.566857,7.34422644 15.2000289,7.34422644 L17.4907308,7.34422644 C18.1239027,7.34422644 18.636225,7.86382352 18.636225,8.50598625 C18.636225,9.14814899 18.1239027,9.66774606 17.4907308,9.66774606 Z" id="Path"></path>
                                                    </g>
                                                </g>
                                                <g id="Mastercard" stroke-width="1" fill-rule="evenodd" transform="translate(313.200000, 171.000000)">
                                                    <ellipse id="Oval" fill="#EE0005" fill-rule="nonzero" cx="13.644761" cy="14.1385714" rx="13.644761" ry="14.1385714"></ellipse>
                                                    <ellipse id="Oval" fill="#F9A000" fill-rule="nonzero" cx="30.5973116" cy="14.1385714" rx="13.644761" ry="14.1385714"></ellipse>
                                                    <path d="M16.9527574,14.1383571 C16.9527574,18.6276429 18.9723805,22.6278214 22.1211397,25.2176786 C25.2697955,22.6277143 27.2895221,18.6276429 27.2895221,14.1383571 C27.2895221,9.64907143 25.2698989,5.64889286 22.1211397,3.05903571 C18.9724839,5.64910714 16.9527574,9.64917857 16.9527574,14.1383571 Z" id="Path" fill="#FF6300" fill-rule="nonzero"></path>
                                                </g>
                                                <g id="Card-holder" stroke-width="1" fill-rule="evenodd" transform="translate(0.000000, 162.408036)">
                                                    <text id="Maxwell-Dozie" font-family="Nunito-SemiBold, Nunito" font-size="14.4" font-weight="500" fill="#FFFFFF">
                                                        <tspan x="0" y="34.8633929">Maxwell Dozie</tspan>
                                                    </text>
                                                    <text id="Card-Holder-name" font-family="Nunito-Light, Nunito" font-size="9" font-weight="300" fill="#FFFFFF">
                                                        <tspan x="0" y="9.70625">Card Holder name</tspan>
                                                    </text>
                                                </g>
                                                <g id="date" stroke-width="1" fill-rule="evenodd" transform="translate(203.579267, 162.408036)" font-family="Helvetica" font-weight="normal">
                                                    <text id="02/30" font-size="12.6" fill="#FFFFFF">
                                                        <tspan x="0" y="36.8276786">02/30</tspan>
                                                    </text>
                                                    <text id="Expiry-date" font-size="9" fill="#FFFFFF">
                                                        <tspan x="0" y="9.34196429">Expiry date</tspan>
                                                    </text>
                                                </g>
                                            </g>
                                        </g>
                                    </g>
                                </g>
                            </g>
                        </g>
                        <g id="Group-26" transform="translate(333.000000, 94.500000)">
                            <path d="M97.74,5.4071752 C69.8989243,5.2654686 42.1019634,7.63911459 14.688,12.4991752 C6.17157091,14.0934178 0,21.5288129 0,30.1931752 L0,118.699175 C0.00957825059,173.93222 33.2839168,223.722963 84.312,244.861175 C92.9191963,248.406595 102.578804,248.406595 111.186,244.861175 C162.214083,223.722963 195.488422,173.93222 195.498,118.699175 L195.498,30.1571752 C195.498,21.4871794 189.315585,14.0497844 180.792,12.4631752 C153.377144,7.61362251 125.58005,5.25201418 97.74,5.4071752 L97.74,5.4071752 Z" id="Path" fill="url(#linearGradient-10)"></path>
                            <path d="M103.14,0.00717520392 C75.2989243,-0.134531396 47.5019634,2.23911459 20.088,7.0991752 C11.5715709,8.69341784 5.4,16.1288129 5.4,24.7931752 L5.4,113.299175 C5.40957825,168.53222 38.6839168,218.322963 89.712,239.461175 C98.3191963,243.006595 107.978804,243.006595 116.586,239.461175 C167.614083,218.322963 200.888422,168.53222 200.898,113.299175 L200.898,24.7571752 C200.898,16.0871794 194.715585,8.6497844 186.192,7.0631752 C158.777144,2.21362251 130.98005,-0.147985822 103.14,0.00717520392 L103.14,0.00717520392 Z" id="Path" fill="#FFB300"></path>
                            <path d="M103.140542,227.844134 C100.428713,227.851675 97.7425024,227.319328 95.2385417,226.278054 C49.4957171,207.442201 19.6850102,162.815054 19.8,113.346054 L19.8,24.8040537 C19.7702967,23.0493076 21.00978,21.5284693 22.7345417,21.2040537 C75.9607397,12.1319821 130.338344,12.1319821 183.564542,21.2040537 C185.289303,21.5284693 186.528787,23.0493076 186.499083,24.8040537 L186.499083,113.346054 C186.584815,162.788853 156.779059,207.380141 111.060542,226.206054 C108.555925,227.273903 105.863266,227.830794 103.140542,227.844134 L103.140542,227.844134 Z" id="Path" fill="#FFDD8E"></path>
                            <path d="M101.7,63 C115.058387,63 125.8875,73.8291126 125.8875,87.1875 L125.887,97.094 L130.68,97.0941176 C136.048208,97.0941176 140.4,101.44591 140.4,106.814118 L140.4,136.08 C140.4,141.448208 136.048208,145.8 130.68,145.8 L72.72,145.8 C67.3517922,145.8 63,141.448208 63,136.08 L63,106.814118 C63,101.44591 67.3517922,97.0941176 72.72,97.0941176 L77.512,97.094 L77.5125,87.1875 C77.5125,73.8291126 88.3416126,63 101.7,63 Z M101.7,72.7411765 C93.6849676,72.7411765 87.1875,79.238644 87.1875,87.2536765 L87.1875,87.2536765 L87.1875,97.0941176 L116.2125,97.0941176 L116.2125,87.2536765 C116.2125,79.238644 109.715032,72.7411765 101.7,72.7411765 Z" id="Mask" fill="#C97D00"></path>
                        </g>
                        <rect id="Rectangle" fill="#0091FF" fill-rule="nonzero" transform="translate(49.153501, 284.053010) rotate(61.072400) translate(-49.153501, -284.053010) " x="27.5535009" y="262.45301" width="43.2" height="43.2" rx="3.6"></rect>
                        <rect id="Rectangle" fill="#FFC884" fill-rule="nonzero" transform="translate(333.000000, 15.300000) rotate(45.000000) translate(-333.000000, -15.300000) " x="322.2" y="4.5" width="21.6" height="21.6" rx="3.6"></rect>
                        <rect id="Rectangle" fill="#B8A7FF" fill-rule="nonzero" transform="translate(18.909000, 57.609000) rotate(-53.856800) translate(-18.909000, -57.609000) " x="5.4" y="44.1" width="27.018" height="27.018" rx="3.6"></rect>
                    </g>
                </g>
            </g>
        </g>
    </g>
</svg>