<?xml version="1.0" encoding="UTF-8"?>
<svg width="709px" height="395px" viewBox="0 0 709 395" version="1.1" xmlns="http://www.w3.org/2000/svg" xmlns:xlink="http://www.w3.org/1999/xlink">
    <!-- Generator: Sketch 58 (84663) - https://sketch.com -->
    <title>Group 17</title>
    <desc>Created with Sketch.</desc>
    <defs>
        <radialGradient cx="64.9917296%" cy="60.9813594%" fx="64.9917296%" fy="60.9813594%" r="385.114765%" gradientTransform="translate(0.649917,0.609814),scale(0.186218,1.000000),rotate(-8.281078),translate(-0.649917,-0.609814)" id="radialGradient-1">
            <stop stop-color="#FFFFFF" offset="0%"></stop>
            <stop stop-color="#E0E3F0" offset="100%"></stop>
        </radialGradient>
        <rect id="path-2" x="0" y="0" width="413.4935" height="77" rx="18"></rect>
        <rect id="path-4" x="0.651521798" y="0.888635857" width="379" height="334" rx="14"></rect>
        <rect id="path-6" x="42" y="0" width="524.4" height="97.2" rx="14"></rect>
        <filter x="-21.7%" y="-104.9%" width="143.5%" height="334.6%" filterUnits="objectBoundingBox" id="filter-7">
            <feOffset dx="0" dy="12" in="SourceAlpha" result="shadowOffsetOuter1"></feOffset>
            <feGaussianBlur stdDeviation="36" in="shadowOffsetOuter1" result="shadowBlurOuter1"></feGaussianBlur>
            <feColorMatrix values="0 0 0 0 0.560784314   0 0 0 0 0.57254902   0 0 0 0 0.631372549  0 0 0 0.122568837 0" type="matrix" in="shadowBlurOuter1"></feColorMatrix>
        </filter>
        <rect id="path-8" x="0" y="0" width="69.6" height="69.6" rx="15.6"></rect>
        <filter x="-163.8%" y="-146.6%" width="427.6%" height="427.6%" filterUnits="objectBoundingBox" id="filter-9">
            <feOffset dx="0" dy="12" in="SourceAlpha" result="shadowOffsetOuter1"></feOffset>
            <feGaussianBlur stdDeviation="36" in="shadowOffsetOuter1" result="shadowBlurOuter1"></feGaussianBlur>
            <feColorMatrix values="0 0 0 0 0.560784314   0 0 0 0 0.57254902   0 0 0 0 0.631372549  0 0 0 0.122568837 0" type="matrix" in="shadowBlurOuter1"></feColorMatrix>
        </filter>
        <rect id="path-10" x="0" y="0" width="69.6" height="69.6" rx="15.6"></rect>
        <filter x="-163.8%" y="-146.6%" width="427.6%" height="427.6%" filterUnits="objectBoundingBox" id="filter-11">
            <feOffset dx="0" dy="12" in="SourceAlpha" result="shadowOffsetOuter1"></feOffset>
            <feGaussianBlur stdDeviation="36" in="shadowOffsetOuter1" result="shadowBlurOuter1"></feGaussianBlur>
            <feColorMatrix values="0 0 0 0 0.560784314   0 0 0 0 0.57254902   0 0 0 0 0.631372549  0 0 0 0.122568837 0" type="matrix" in="shadowBlurOuter1"></feColorMatrix>
        </filter>
        <rect id="path-12" x="0" y="0" width="69.6" height="69.6" rx="15.6"></rect>
        <filter x="-163.8%" y="-146.6%" width="427.6%" height="427.6%" filterUnits="objectBoundingBox" id="filter-13">
            <feOffset dx="0" dy="12" in="SourceAlpha" result="shadowOffsetOuter1"></feOffset>
            <feGaussianBlur stdDeviation="36" in="shadowOffsetOuter1" result="shadowBlurOuter1"></feGaussianBlur>
            <feColorMatrix values="0 0 0 0 0.560784314   0 0 0 0 0.57254902   0 0 0 0 0.631372549  0 0 0 0.122568837 0" type="matrix" in="shadowBlurOuter1"></feColorMatrix>
        </filter>
        <linearGradient x1="48.0479248%" y1="24.9447096%" x2="54.4538187%" y2="70.0343741%" id="linearGradient-14">
            <stop stop-color="#123214" offset="0%"></stop>
            <stop stop-color="#3E7C37" offset="46%"></stop>
            <stop stop-color="#5FBB46" offset="91%"></stop>
        </linearGradient>
        <linearGradient x1="63.4083987%" y1="6.88076318%" x2="63.4083987%" y2="77.5858385%" id="linearGradient-15">
            <stop stop-color="#FFFFFF" stop-opacity="0" offset="0%"></stop>
            <stop stop-color="#FFFFFF" stop-opacity="0.43" offset="64%"></stop>
            <stop stop-color="#FFFFFF" stop-opacity="0.42" offset="100%"></stop>
        </linearGradient>
        <radialGradient cx="52.4616451%" cy="52.6255858%" fx="52.4616451%" fy="52.6255858%" r="94.2216859%" gradientTransform="translate(0.524616,0.526256),scale(0.615915,1.000000),rotate(26.760599),translate(-0.524616,-0.526256)" id="radialGradient-16">
            <stop stop-color="#FFFFFF" offset="13%"></stop>
            <stop stop-color="#FFFFFF" stop-opacity="0.69" offset="29%"></stop>
            <stop stop-color="#FFFFFF" stop-opacity="0.4" offset="45%"></stop>
            <stop stop-color="#FFFFFF" stop-opacity="0.18" offset="59%"></stop>
            <stop stop-color="#FFFFFF" stop-opacity="0.05" offset="69%"></stop>
            <stop stop-color="#FFFFFF" stop-opacity="0" offset="74%"></stop>
        </radialGradient>
        <radialGradient cx="59.1924303%" cy="32.6138519%" fx="59.1924303%" fy="32.6138519%" r="61.5828593%" gradientTransform="translate(0.591924,0.326139),scale(0.922591,1.000000),rotate(39.840000),translate(-0.591924,-0.326139)" id="radialGradient-17">
            <stop stop-color="#000000" stop-opacity="0" offset="86%"></stop>
            <stop stop-color="#000000" stop-opacity="0.47" offset="98%"></stop>
            <stop stop-color="#000000" offset="100%"></stop>
        </radialGradient>
        <rect id="path-18" x="0" y="0" width="69.6" height="69.6" rx="15.6"></rect>
        <filter x="-163.8%" y="-146.6%" width="427.6%" height="427.6%" filterUnits="objectBoundingBox" id="filter-19">
            <feOffset dx="0" dy="12" in="SourceAlpha" result="shadowOffsetOuter1"></feOffset>
            <feGaussianBlur stdDeviation="36" in="shadowOffsetOuter1" result="shadowBlurOuter1"></feGaussianBlur>
            <feColorMatrix values="0 0 0 0 0.560784314   0 0 0 0 0.57254902   0 0 0 0 0.631372549  0 0 0 0.122568837 0" type="matrix" in="shadowBlurOuter1"></feColorMatrix>
        </filter>
        <rect id="path-20" x="0" y="0" width="437" height="81" rx="7"></rect>
        <filter x="-21.7%" y="-104.9%" width="143.5%" height="334.6%" filterUnits="objectBoundingBox" id="filter-21">
            <feOffset dx="0" dy="10" in="SourceAlpha" result="shadowOffsetOuter1"></feOffset>
            <feGaussianBlur stdDeviation="30" in="shadowOffsetOuter1" result="shadowBlurOuter1"></feGaussianBlur>
            <feColorMatrix values="0 0 0 0 0.560784314   0 0 0 0 0.57254902   0 0 0 0 0.631372549  0 0 0 0.122568837 0" type="matrix" in="shadowBlurOuter1"></feColorMatrix>
        </filter>
        <rect id="path-22" x="0" y="0" width="58" height="58" rx="13"></rect>
        <filter x="-163.8%" y="-146.6%" width="427.6%" height="427.6%" filterUnits="objectBoundingBox" id="filter-23">
            <feOffset dx="0" dy="10" in="SourceAlpha" result="shadowOffsetOuter1"></feOffset>
            <feGaussianBlur stdDeviation="30" in="shadowOffsetOuter1" result="shadowBlurOuter1"></feGaussianBlur>
            <feColorMatrix values="0 0 0 0 0.560784314   0 0 0 0 0.57254902   0 0 0 0 0.631372549  0 0 0 0.122568837 0" type="matrix" in="shadowBlurOuter1"></feColorMatrix>
        </filter>
        <linearGradient x1="100%" y1="50%" x2="0%" y2="50%" id="linearGradient-24">
            <stop stop-color="#6122D3" offset="0%"></stop>
            <stop stop-color="#320FA8" offset="100%"></stop>
        </linearGradient>
        <rect id="path-25" x="0" y="0" width="349.6" height="64.8" rx="5.6"></rect>
        <filter x="-21.7%" y="-104.9%" width="143.5%" height="334.6%" filterUnits="objectBoundingBox" id="filter-26">
            <feOffset dx="0" dy="8" in="SourceAlpha" result="shadowOffsetOuter1"></feOffset>
            <feGaussianBlur stdDeviation="24" in="shadowOffsetOuter1" result="shadowBlurOuter1"></feGaussianBlur>
            <feColorMatrix values="0 0 0 0 0.560784314   0 0 0 0 0.57254902   0 0 0 0 0.631372549  0 0 0 0.122568837 0" type="matrix" in="shadowBlurOuter1"></feColorMatrix>
        </filter>
    </defs>
    <g id="Iteration-2" stroke="none" stroke-width="1" fill="none" fill-rule="evenodd">
        <g id="Developers" transform="translate(-40.000000, -1771.000000)">
            <g id="Group-6-Copy" transform="translate(88.000000, 1678.000000)">
                <g id="Block" transform="translate(23.000000, 29.000000)">
                    <g id="Group-17" transform="translate(0.000000, 75.000000)">
                        <g id="Group-19" transform="translate(98.000000, 0.000000)">
                            <g id="Group-13-Copy-2">
                                <g id="Group-9" transform="translate(0.348478, 0.111364)">
                                    <mask id="mask-3" fill="white">
                                        <use xlink:href="#path-2"></use>
                                    </mask>
                                    <use id="Rectangle" fill="url(#radialGradient-1)" xlink:href="#path-2"></use>
                                </g>
                            </g>
                        </g>
                        <g id="Group-19" transform="translate(0.000000, 14.000000)">
                            <g id="Group-9" transform="translate(115.000000, 0.000000)">
                                <mask id="mask-5" fill="white">
                                    <use xlink:href="#path-4"></use>
                                </mask>
                                <use id="Rectangle" fill="#FFFFFF" xlink:href="#path-4"></use>
                            </g>
                            <g id="Group-20" transform="translate(0.000000, 34.000000)">
                                <g id="Rectangle">
                                    <use fill="black" fill-opacity="1" filter="url(#filter-7)" xlink:href="#path-6"></use>
                                    <use fill="#FFFFFF" fill-rule="evenodd" xlink:href="#path-6"></use>
                                </g>
                                <g id="Group-18" transform="translate(232.200000, 14.400000)">
                                    <g id="Rectangle-Copy-6">
                                        <use fill="black" fill-opacity="1" filter="url(#filter-9)" xlink:href="#path-8"></use>
                                        <use fill="#FFFFFF" fill-rule="evenodd" xlink:href="#path-8"></use>
                                    </g>
                                    <g id="9mobile-Logo" transform="translate(22.800000, 15.600000)">
                                        <path d="M4.3472,35.1688 C4.86026667,35.1688 5.2352,35.2774667 5.472,35.4948 C5.7088,35.7121333 5.82733333,36.0501333 5.8276,36.5088 L5.8276,38.9672 L5.058,38.9672 L5.058,36.6128 C5.058,36.0944 4.76733333,35.8352 4.186,35.8352 C3.93489453,35.8331114 3.68837282,35.902476 3.4752,36.0352 C3.51208118,36.1902974 3.52941576,36.3493993 3.5268,36.5088 L3.5268,38.9672 L2.7572,38.9672 L2.7572,36.6128 C2.7572,36.0944 2.46653333,35.8352 1.8852,35.8352 C1.61994273,35.8354416 1.35686702,35.8831258 1.1084,35.976 L1.1084,38.9672 L0.3392,38.9672 L0.3392,35.554 C0.593865693,35.4273852 0.863449213,35.3333132 1.1416,35.274 C1.43829258,35.2048305 1.74175826,35.1688761 2.0464,35.1668 C2.5264,35.1668 2.88306667,35.2601333 3.1164,35.4468 C3.50070185,35.2632198 3.92130182,35.1682192 4.3472,35.1688 L4.3472,35.1688 Z M8.4644,39.08 C7.87773333,39.08 7.4368,38.9121333 7.1416,38.5764 C6.8464,38.2406667 6.69866667,37.752 6.6984,37.1104 C6.6984,35.812 7.28506667,35.1629333 8.4584,35.1631999 C9.0496,35.1631999 9.49413333,35.3297333 9.792,35.6628 C10.0898667,35.9958667 10.2389333,36.4784 10.2392,37.1104 C10.2392,37.7418667 10.0853333,38.228 9.7776,38.5688 C9.46986667,38.9096 9.03213333,39.08 8.4644,39.08 Z M8.4568,38.4208 C9.1312,38.4208 9.46826667,37.984 9.46800016,37.1104 C9.46800016,36.676 9.388,36.3514667 9.228,36.1368 C9.068,35.9221333 8.81146667,35.8146667 8.4584,35.8144 C8.10186667,35.8144 7.84666667,35.9242667 7.6928,36.144 C7.53893333,36.3637333 7.462,36.6858667 7.462,37.1104 C7.462,37.5346667 7.54133333,37.8592 7.7,38.084 C7.85866667,38.3088 8.11093333,38.4205333 8.4568,38.4192 L8.4568,38.4208 Z M12.8084,35.1704 C13.3556,35.1704 13.7708,35.3357333 14.054,35.6664 C14.3372,35.9970667 14.4792,36.4654667 14.48,37.0716 C14.48,37.8022667 14.3102667,38.3193333 13.9708,38.6228 C13.6313333,38.9262667 13.1998667,39.0786667 12.6764,39.08 C11.626,39.08 11.1008,38.7986667 11.1008,38.236 L11.1008,33.762 L11.8632,33.762 L11.8632,35.4 C12.0165065,35.3267404 12.1775002,35.2707951 12.3432,35.2332 C12.4953215,35.1941553 12.6513924,35.1725496 12.8084,35.1688 L12.8084,35.1704 Z M12.6176,38.406 C13.0176,38.406 13.2976,38.29 13.4576,38.058 C13.6176,37.826 13.6976,37.5076 13.6976,37.1028 C13.6976,36.6884 13.6133333,36.3725333 13.4448,36.1552 C13.2762667,35.9378667 13.026,35.8293333 12.694,35.8295995 C12.5493593,35.8305762 12.4053722,35.8491118 12.2652,35.8848 C12.1248879,35.9186882 11.9901765,35.9725728 11.8651947,36.0448 L11.8651947,38.0448 C11.8638667,38.2848 12.1146667,38.4046667 12.6176,38.4044 L12.6176,38.406 Z M15.3496,33.956 L16.1704,33.956 L16.1704,34.6596 L15.3496,34.6596 L15.3496,33.956 Z M15.3716,35.274 L16.1412,35.274 L16.1484,38.9688 L15.3716,38.9688 L15.3716,35.274 Z M17.2316,38.9688 L17.2316,33.8436 L17.994,33.8436 L17.994,38.9672 L17.2316,38.9688 Z M20.572,35.16 C21.1437333,35.16 21.5626667,35.3466667 21.8288,35.72 C22.0949333,36.0933333 22.2256,36.6153333 22.2208,37.286 L19.64,37.286 C19.6648,37.6513333 19.7714667,37.9290667 19.96,38.1192 C20.1485333,38.3093333 20.416,38.4042667 20.7624,38.404 C21.1773918,38.4044404 21.585766,38.3000078 21.9496,38.1004 L21.9496,38.826 C21.5685333,38.9953333 21.132,39.08 20.64,39.08 C20.088,39.08 19.6544,38.9109333 19.3392,38.5728 C19.024,38.2346667 18.8665333,37.7546667 18.8667997,37.1328 C18.8667997,36.496 19.0157333,36.0086667 19.3136,35.6708 C19.6114667,35.3329333 20.0309333,35.1626667 20.572,35.16 Z M20.55,35.8 C20.2910667,35.8 20.0884,35.8692 19.942,36.0076 C19.7956,36.146 19.7002667,36.3804 19.656,36.7108 L21.4368,36.7108 C21.4024,36.3948 21.3144,36.1641333 21.1728,36.0188 C21.0312,35.8734667 20.8236,35.8005333 20.55,35.8 Z M13.2,5.3384 C12.3512,5.12853333 11.6978667,5.02346667 11.24,5.0232 C7.8244,5.0232 5.0552,7.7832 5.0552,11.1868 C5.0552,14.5904 7.8256,17.3508 11.24,17.3508 C14.6544,17.3508 17.4252,14.5908 17.4252,11.1868 C17.4254395,10.6895399 17.3655379,10.1940758 17.2468,9.7112 L22.164,8.3868 C22.9695523,11.4492695 22.4366549,14.7097582 20.698,17.3564 L12.5556,32.452 L5.0124,32.452 L10.3724,22.572 C10.4016,22.5176 10.3156,22.3976 10.2436,22.3912 C4.516,21.8712 0.0296,17.0712 0.0296,11.2276 C0.0296,5.036 5.0656,0.0171931863 11.2784,0.0171931863 C12.4156972,0.0159495564 13.546635,0.186817456 14.6328,0.524 L13.2,5.3384 Z" id="Shape" fill="#006E53"></path>
                                        <circle id="Oval" fill="#D6E806" fill-rule="nonzero" cx="11.2028" cy="11.1868" r="3.39"></circle>
                                        <path d="M17.0584,8.8756 C16.4711004,7.40543014 15.3391404,6.21859159 13.8984,5.5624 M19.216,7.9508 C18.3865471,5.91179446 16.8182053,4.26088585 14.8244,3.328 M21.2964,7.2576 C20.2398836,4.56951254 18.1622731,2.40892425 15.5176,1.248" id="Shape" stroke="#D6E806" stroke-width="0.770478571" stroke-linecap="round"></path>
                                    </g>
                                </g>
                                <g id="Group-18-Copy" transform="translate(156.200000, 14.400000)">
                                    <g id="Rectangle-Copy-6">
                                        <use fill="black" fill-opacity="1" filter="url(#filter-11)" xlink:href="#path-10"></use>
                                        <use fill="#FFFFFF" fill-rule="evenodd" xlink:href="#path-10"></use>
                                    </g>
                                    <g id="Airtel-Nigeria-Logo" transform="translate(17.800000, 14.600000)" fill="#E20010" fill-rule="nonzero">
                                        <path d="M21.596,0.0104 C22.92,0.0288 24.1832,0.28 25.3628,0.88 C26.4028,1.4124 27.2508,2.1568 27.8296,3.1828 C28.2057617,3.86011105 28.4525011,4.60155033 28.5572,5.3692 C28.7724,6.8428 28.5548,8.2684 28.0688,9.6624 C27.7832,10.48 27.388,11.2468 26.96,12 C26.088,13.5332 24.9676,14.862 23.6644,16.04 C21.9924405,17.5528052 20.1589933,18.8769168 18.1972,19.9884 C17.4372,20.4176 16.6492,20.778 15.8016,20.9984 C15.2823507,21.1386451 14.7462164,21.2064863 14.2084,21.2 C13.5004,21.1856 12.9464,20.8632 12.5156,20.32 C12.1177921,19.8324746 11.9128237,19.2158615 11.9396,18.5872 C11.9442839,18.4123148 11.969524,18.2385877 12.0148,18.0696 C12.2712,17.1588 12.6196,16.2864 13.1404,15.4908 C13.5384,14.8832 14.0128,14.3436 14.6332,13.9576 C15.3232,13.528 16.0732,13.3444 16.8844,13.5216 C17.138009,13.5810516 17.3766846,13.692016 17.5856,13.8476 C18.1196,14.2292 18.0916,14.828 17.8352,15.2104 C17.6155431,15.5427148 17.3699794,15.8571595 17.1008,16.1508 C16.6448,16.642 16.1604,17.1064 15.6876,17.5816 C15.2692,18.002 14.876,18.4432 14.5572,18.946 C14.392,19.2068 14.2396,19.4728 14.194,19.786 C14.1364,20.1788 14.3404,20.4464 14.7368,20.4832 C14.941898,20.4999356 15.1483293,20.4791975 15.346,20.422 C15.9552,20.2536 16.5208,19.982 17.0764,19.6892 C17.9332,19.236 18.724,18.682 19.4948,18.0976 C20.4292,17.3892 21.3376,16.6504 22.1748,15.8288 C23.1284,14.894 23.9784,13.878 24.6288,12.7056 C25.104,11.8496 25.454,10.9456 25.6096,9.976 C25.7472,9.122 25.6704,8.29 25.2748,7.506 C25.0842959,7.11848562 24.7863065,6.79397436 24.4164,6.5712 C24.2456018,6.46837971 24.0572167,6.39812523 23.8608,6.364 C23.146,6.2372 22.4544,6.3412 21.7748,6.568 C21.0664,6.8048 20.4092,7.1504 19.7704,7.528 C18.384,8.3504 16.996,9.1724 15.6748,10.0984 C15.0124,10.5624 14.3704,11.056 13.7212,11.5384 C13.1348,11.9744 12.5524,12.4156 11.9116,12.772 C11.3915766,13.068115 10.8287443,13.2817241 10.2432,13.4052 C9.5176,13.5524 8.8488,13.4156 8.2344,13.0212 C7.5968,12.612 7.1504,12.0504 6.9544,11.3072 C6.8296,10.838 6.8788,10.3728 6.9864,9.9096 C7.1436,9.2296 7.442,8.6136 7.814,8.0296 C8.734,6.5872 9.8908,5.3636 11.236,4.3176 C13.2296,2.7676 15.4232,1.574 17.796,0.7104 C19.0142225,0.264788742 20.2989567,0.0281271708 21.596,0.0104 Z" id="Path"></path>
                                        <path d="M5.1944,32.988 C5.1876,32.5352 5.136,32.128 4.8744,31.7748 C4.74701058,31.6041309 4.57064745,31.4763235 4.3688,31.4084 C3.8488,31.222 3.3192,31.244 2.8028,31.4036 C2.3888,31.5316 1.9896,31.706 1.5844,31.8616 C1.5044,31.8912 1.4316,31.9292 1.3348,31.9724 C1.144,31.4992 0.9564,31.04 0.76,30.56 C1.0444,30.4252 1.3124,30.2876 1.5888,30.1696 C2.2256,29.8972 2.886,29.7104 3.5804,29.6684 C4.2748,29.6264 4.96,29.6632 5.592,30 C6.3068,30.3784 6.8228,30.9248 7.0388,31.72 C7.06996395,31.8240829 7.08862857,31.9315052 7.0944,32.04 C7.122,33.0724 7.1592,34.1048 7.1636,35.1372 C7.1664,35.8428 7.12,36.5488 7.0992,37.2548 C7.09548318,37.3515973 7.05516879,37.4433769 6.9864,37.5116 C6.4924,38.0556 5.888,38.4316 5.2032,38.684 C4.46887275,38.9519483 3.68686419,39.0643254 2.9068,39.014 C2.1868,38.974 1.5652,38.6792 1.0396,38.19 C0.514,37.7008 0.1468,37.11 0.0444,36.386 C-0.0956,35.3944 0.1904,34.534 0.9032,33.826 C1.3616,33.3708 1.9264,33.1356 2.5628,33.0524 C3.2668,32.9608 3.9732,32.9852 4.6796,32.9872 L5.1944,32.988 Z M5.102,34.6 C5.06050623,34.5918123 5.01856734,34.5860691 4.9764,34.5828 C4.7364,34.578 4.4936,34.5696 4.2524,34.5732 C3.9632,34.5776 3.6728,34.5788 3.3852,34.606 C3.088,34.6344 2.7996,34.7212 2.5692,34.9196 C2.1868,35.2492 2.0732,35.6796 2.1664,36.1648 C2.2824,36.7648 2.6176,37.184 3.2152,37.3624 C3.52333299,37.454565 3.84960543,37.4683144 4.1644,37.4024 C4.45700071,37.3488469 4.72992098,37.2179114 4.9548,37.0232 C5.031826,36.963463 5.07923307,36.8733166 5.0848,36.776 C5.094,36.5652 5.1212,36.3548 5.1228,36.144 C5.126,35.6612 5.1188,35.1784 5.1148,34.6956 C5.11240275,34.6635108 5.10812877,34.6315895 5.102,34.6 Z" id="Shape"></path>
                                        <path d="M29.2532,34.56 C27.5372,34.56 25.8532,34.5232 24.1456,34.568 C24.1544,34.688 24.1596,34.8016 24.1704,34.9124 C24.2144,35.3656 24.312,35.806 24.5036,36.2216 C24.6525772,36.5605931 24.8838377,36.8570246 25.1764,37.084 C25.6404,37.4364 26.17,37.494 26.7256,37.4224 C27.1848,37.3632 27.6124,37.1952 28.0388,37.026 C28.2344,36.9488 28.4284,36.866 28.6388,36.78 C28.8388,37.1984 29.0348,37.6096 29.2388,38.0328 C29.2012,38.06 29.166,38.0904 29.1268,38.1128 C28.2948,38.6064 27.4012,38.9244 26.436,39.0084 C25.556,39.0848 24.716,38.9404 23.956,38.4536 C23.4384,38.122 23.076,37.6536 22.7728,37.1296 C22.3993765,36.477673 22.1732785,35.7518657 22.1104,35.0032 C21.9834667,33.6381333 22.2733333,32.3672 22.98,31.1904 C23.4728,30.3724 24.2084,29.928 25.1292,29.7748 C25.9755929,29.625972 26.8474304,29.7710665 27.6,30.186 C28.0216,30.4144 28.3152,30.774 28.5572,31.1772 C28.8772,31.7088 29.0456,32.2948 29.1264,32.902 C29.192,33.3916 29.2128,33.8872 29.252,34.382 C29.2568,34.4328 29.2532,34.4856 29.2532,34.56 Z M27.1732,33.006 C27.0736,32.5496 27.0056,32.0832 26.7068,31.6964 C26.55695,31.5041582 26.3464762,31.3682595 26.1096,31.3108 C25.4796,31.144 24.8464,31.4344 24.5756,32.0308 C24.4788,32.2432 24.422,32.474 24.3516,32.6976 C24.32,32.7988 24.2996,32.904 24.2744,33.006 C24.4436,33.0508 27,33.0528 27.174,33.0072 L27.1732,33.006 Z" id="Shape"></path>
                                        <path d="M17.996,27.5884 L20.0436,27.2716 L20.0436,29.7864 C20.498,29.8136 20.9308,29.784 21.366,29.8308 L21.366,31.38 C20.926,31.3872 20.4952,31.374 20.046,31.4012 C20.046,31.4884 20.046,31.5536 20.046,31.6188 C20.0422667,33.11 20.0390667,34.6013333 20.0364,36.0928 C20.0364,36.3276 20.0552,36.5628 20.0764,36.7968 C20.11,37.1568 20.3096,37.3852 20.6584,37.4728 C20.8508,37.5216 21.0484,37.5492 21.2436,37.5864 L21.4396,37.6264 L21.4396,38.9412 C21.4175751,38.952092 21.3941551,38.9598987 21.37,38.9644 C20.7888,38.9904 20.21,38.9752 19.648,38.8044 C19.0992,38.6388 18.6416,38.3388 18.3312,37.8444 C18.1548,37.5644 18.0652,37.2496 18.0264,36.9244 C18.002947,36.7207151 17.9914606,36.51583 17.9919819,36.3108 C17.9919819,33.4788 17.9936,30.6470667 17.9968,27.8156 L17.996,27.5884 Z" id="Path"></path>
                                        <path d="M30.3788,27.59 L32.3588,27.2468 L32.3588,27.52 C32.3588,30.092 32.3598667,32.664 32.362,35.236 C32.362,35.7068 32.366,36.1776 32.3696,36.6488 C32.3728,37.1136 32.5424,37.3504 32.9864,37.4888 C33.1372837,37.5305185 33.2904787,37.5633746 33.4452,37.5872 C33.5396,37.6048 33.6352,37.6132 33.75,37.6272 L33.75,38.9704 C33.7393368,38.9792372 33.726722,38.9854074 33.7132,38.9884 C33.1508,39.0112 32.5908,39.002 32.044,38.842 C31.7126758,38.7466328 31.4041732,38.5849649 31.1372,38.3668 C30.64,37.96 30.4376,37.4148 30.3856,36.8 C30.3704,36.62 30.3724,36.438 30.3728,36.2572 C30.3728,33.4436 30.3748,30.6302667 30.3788,27.8172 L30.3788,27.59 Z" id="Path"></path>
                                        <path d="M14.0152,38.8516 L12.0152,38.8516 C12.0128,38.768 12.0088,38.6916 12.0084,38.616 C12.0062667,37.4144 12.0045333,36.2128 12.0032,35.0112 C12.0008,34.0512 11.9948,33.0912 11.9951809,32.1312 C11.9958318,31.957123 12.0092009,31.7833256 12.0352,31.6112 C12.0648,31.4148 12.1676,31.2512 12.3104,31.1132 C13.096,30.3484 14.0372,29.89 15.1104,29.6924 C15.7829759,29.5690716 16.4722872,29.5681231 17.1452,29.6896 C17.1808,29.696 17.2164,29.704 17.2512,29.7128 C17.2684,29.7172 17.2848,29.7256 17.318,29.7384 C17.0908,30.316 16.814,30.868 16.5532,31.4136 C16.2416,31.4136 15.9464,31.4044 15.652,31.4156 C15.1435901,31.4324785 14.6445141,31.5568045 14.1876,31.7804 C14.058,31.844 14.0096,31.9232 14.01,32.0724 C14.0156,34.2590667 14.0169333,36.4457333 14.014,38.6324 L14.0152,38.8516 Z" id="Path"></path>
                                        <path d="M10.54,29.8712 C10.5612,32.868 10.538,35.8472 10.5572,38.8448 L8.6,38.8448 C8.5952,38.7724 8.5856,38.6968 8.5856,38.6212 C8.5856,36.7372 8.5856,34.8529333 8.5856,32.9684 C8.5856,32.1048 8.5928,31.2412 8.5964,30.3776 C8.5964,30.312 8.5964,30.2464 8.5964,30.164 L10.54,29.8712 Z" id="Path"></path>
                                        <path d="M9.48,28.989205 C8.5244,28.9868 7.926,28.0356 8.3224,27.1376 C8.566,26.5868 8.9844,26.3776 9.588,26.3812 C10.3968,26.388 10.9964,27.1924 10.8036,27.9784 C10.6496,28.6064 10.1456,28.9908 9.48,28.989205 Z" id="Path"></path>
                                    </g>
                                </g>
                                <g id="Group-18-Copy-3" transform="translate(76.200000, 14.400000)">
                                    <g id="Rectangle-Copy-6">
                                        <use fill="black" fill-opacity="1" filter="url(#filter-13)" xlink:href="#path-12"></use>
                                        <use fill="#FFFFFF" fill-rule="evenodd" xlink:href="#path-12"></use>
                                    </g>
                                    <g id="Globacom-Limited-Logo" transform="translate(12.000000, 12.000000)">
                                        <circle id="Oval" fill="#50B651" fill-rule="nonzero" cx="22.48752" cy="22.55712" r="19.28592"></circle>
                                        <path d="M41.7144,22.50288 C41.7144,33.18768 33.0528,41.84928 22.3704,41.84928 C11.688,41.84928 3.024,33.18768 3.024,22.50288 C3.024,17.77632 3.15648,17.0736 5.01696,14.38272 C5.01696,14.38272 4.92096,17.42208 7.1496,19.23072 C8.53536,20.3544 9.9816,19.5432 12.6288,18.324 C15.49248,17.004 17.82048,16.15248 19.6368,16.37712 C22.3728,16.716 30.80592,21.78048 35.20704,20.772 C38.72304,19.968 38.352,11.6784 38.352,11.6784 C42.192,15.42816 41.7144,17.96256 41.7144,22.50288 Z" id="Path" fill="url(#linearGradient-14)" opacity="0.662999988"></path>
                                        <path d="M30.672,36.71328 C37.6688,30.13184 38.83184,22.592 34.16112,14.09376 C34.1848,14.11104 34.47376,13.11392 35.028,11.1024 C37.51376,14.11264 38.83552,17.82816 38.99328,22.24896 C38.992,27.97504 36.21824,32.79648 30.672,36.71328 Z" id="Path" fill="url(#linearGradient-15)" opacity="0.586000025"></path>
                                        <path d="M27.35328,11.14224 C23.976,9.27312 20.10144,5.51328 20.61648,4.72368 C21.13152,3.93408 27.81648,4.06992 31.19424,5.93904 C34.572,7.80816 37.44672,13.41504 36.93216,14.20464 C36.4176,14.99424 30.73056,13.01136 27.35328,11.14224 Z" id="Path" fill="url(#radialGradient-16)" opacity="0.744000018"></path>
                                        <path d="M30.2952,27.30672 C27.49344,27.30672 25.22208,24.97056 25.22208,22.08912 C25.22208,19.20768 27.49344,16.872 30.2952,16.872 C33.09696,16.872 35.3688,19.20768 35.3688,22.08912 C35.3688,24.97056 33.09744,27.30672 30.2952,27.30672 Z M30.3312,25.65168 C32.07984,25.65168 33.4992,24.05664 33.4992,22.08912 C33.4992,20.1216 32.07984,18.528 30.3312,18.528 C28.58256,18.528 27.1632,20.12304 27.1632,22.09008 C27.1632,24.05712 28.58256,25.65168 30.3312,25.65168 Z" id="Shape" fill="#FFFFFF"></path>
                                        <polygon id="Path" fill="#FFFFFF" points="19.82784 12.67104 23.48352 12.67104 23.48352 27.24864 21.47664 27.24864 21.47664 14.26992 19.82784 14.26992"></polygon>
                                        <path d="M17.10336,17.02032 L19.0008,17.02032 L19.0008,29.19408 C19.0008,30.30336 17.83392,31.45872 16.6968,31.956 C16.1592,32.19088 15.1672,32.3304 13.7208,32.37456 L13.7208,31.16352 C15.13552,31.00576 16.0904,30.69104 16.58544,30.21936 C16.871097,29.8223999 17.0496378,29.3585246 17.10384,28.87248 L17.10384,25.296 C16.59664,26.37216 15.95792,27.0856 15.18768,27.43632 C14.38704,27.86832 12.75744,27.79728 12.09216,27.43632 C11.42688,27.07536 10.45104,26.12496 10.00368,24.70944 C9.87984,24.31872 9.57168,23.25552 9.60384,22.12896 C9.63264,21.05616 9.98784,19.92096 10.28304,19.4544 C10.78992,18.6576 11.58912,17.65968 12.79968,17.24256 C13.39104,17.03872 14.48704,16.96544 16.08768,17.02272 L16.08768,18.22704 C14.89824,18.14672 14.15616,18.18688 13.86144,18.34752 C13.41936,18.58752 12.42144,18.88368 12.09216,21.05856 C11.76288,23.23344 12.10176,25.01328 13.14576,25.57056 C13.50336,25.76256 14.136,25.9896 14.72064,25.78944 C15.84384,25.40544 16.9008,24.036 16.98144,23.10816 C17.06272,22.16672 17.10336,20.13744 17.10336,17.02032 Z" id="Path" fill="#FFFFFF"></path>
                                        <path d="M41.10816,26.37504 C39.31632,35.00304 31.67088,41.48592 22.512,41.48592 C12.02256,41.48592 3.51888,32.98224 3.51888,22.4928 C3.51888,15.97632 6.80064,10.2264 11.80128,6.8064 C7.73808,10.176 5.15088,15.2664 5.15088,20.95872 C5.15088,31.11216 13.38192,39.34272 23.53488,39.34272 C31.80336,39.34272 38.796,33.88464 41.10816,26.37504 Z" id="Path" fill="url(#radialGradient-17)"></path>
                                        <path d="M22.512,0 C10.0896,0 0.01872,10.0704 0.01872,22.4928 C0.01872,34.9152 10.0896,44.98608 22.512,44.98608 C34.9344,44.98608 45.00528,34.9152 45.00528,22.4928 C45.00528,10.0704 34.9344,0 22.512,0 Z M22.512,41.4864 C12.02256,41.4864 3.51888,32.98272 3.51888,22.49328 C3.51888,15.9768 6.80064,10.22688 11.80128,6.80688 C14.9550225,4.6469123 18.6894985,3.49380037 22.512,3.49965763 C33.00144,3.49965763 41.5051226,12.00288 41.5051226,22.4928 C41.5058027,23.7970444 41.3727875,25.0979236 41.10816,26.37504 C39.31632,35.00304 31.67088,41.48592 22.512,41.48592 L22.512,41.4864 Z" id="Shape" fill="#FFFFFF"></path>
                                    </g>
                                </g>
                                <g id="Group-18-Copy-2" transform="translate(0.200000, 14.400000)">
                                    <g id="Rectangle-Copy-6">
                                        <use fill="black" fill-opacity="1" filter="url(#filter-19)" xlink:href="#path-18"></use>
                                        <use fill="#FFFFFF" fill-rule="evenodd" xlink:href="#path-18"></use>
                                    </g>
                                    <g id="MTN-Logo" transform="translate(13.000000, 13.000000)">
                                        <rect id="Rectangle" fill="#FFC325" fill-rule="nonzero" x="0" y="0" width="43" height="43"></rect>
                                        <path d="M1,22.0004317 C1,17.5821282 10.4020417,14 22,14 C33.5979583,14 43,17.5829916 43,22.0008634 C43,26.4187352 33.5984003,30 22,30 C10.4015997,30 1,26.4183035 1,22.0004317 Z" id="Path" fill="#006891" fill-rule="nonzero"></path>
                                        <path d="M1,22.0004317 C1,17.5821282 10.4020417,14 22,14 C33.5979583,14 43,17.5829916 43,22.0008634 C43,26.4187352 33.5984003,30 22,30 C10.4015997,30 1,26.4183035 1,22.0004317 Z" id="Path" stroke="#006891" stroke-width="0.5"></path>
                                        <polygon id="Path" fill="#FFFFFF" points="9 25 11.0901314 17 14.3891565 17 14.3891565 21.7051665 14.4107742 21.7051665 16.6488382 17 20 17 17.9098686 25 15.731571 25 17.0714423 19.868474 17.0498247 19.868474 14.3891565 25 12.6449077 25 12.6449077 19.868474 12.6093021 19.868474 11.2694309 25"></polygon>
                                        <polygon id="Path" fill="#EE4034" points="20 26 20.3295669 25 23 25 22.6699623 26"></polygon>
                                        <polygon id="Path" fill="#FFC325" points="21.0607607 24 22.3914657 19.1417639 20 19.1417639 20.5867347 17 28 17 27.4137291 19.1417639 25.0222635 19.1417639 23.6920223 23.9986381"></polygon>
                                        <polygon id="Path" fill="#FFFFFF" points="26 25 28.1275004 17 30.5321629 17 31.6170672 21.2805454 31.6382213 21.2805454 32.7770902 17 35 17 32.8720679 25 30.5844006 25 29.4062455 20.6307926 29.3850914 20.6307926 28.2229098 25"></polygon>
                                    </g>
                                </g>
                                <path d="M341.088,59.316 C341.520002,59.316 341.855999,59.4239989 342.096,59.64 C342.336001,59.8560011 342.456,60.1559981 342.456,60.54 C342.456,61.3800042 342.000005,61.8 341.088,61.8 L326.976,61.8 C326.567998,61.8 326.232001,61.6740013 325.968,61.422 C325.703999,61.1699987 325.572,60.8640018 325.572,60.504 C325.572,60.104998 325.700624,59.7519383 325.957875,59.4448129 L334.752,49.776 C335.952006,48.4319933 336.821997,47.2260053 337.362,46.158 C337.902003,45.0899947 338.172,44.0160054 338.172,42.936 C338.172,41.543993 337.770004,40.4760037 336.966,39.732 C336.161996,38.9879963 335.028007,38.616 333.564,38.616 C332.411994,38.616 331.308005,38.8259979 330.252,39.246 C329.195995,39.6660021 328.140005,40.3079957 327.084,41.172 C326.723998,41.4600014 326.388002,41.604 326.076,41.604 C325.811999,41.604 325.584001,41.4780013 325.392,41.226 C325.199999,40.9739987 325.104,40.6680018 325.104,40.308 C325.104,39.8599978 325.255702,39.4878526 325.559111,39.1915559 L325.68,39.084 C326.664005,38.1719954 327.863993,37.4520026 329.28,36.924 C330.696007,36.3959974 332.147993,36.132 333.636,36.132 C335.916011,36.132 337.733993,36.731994 339.09,37.932 C340.446007,39.132 341.124,40.7519898 341.124,42.792 C341.124,44.2560073 340.794003,45.6599933 340.134,47.004 C339.473997,48.3480067 338.388008,49.8479917 336.876,51.504 L329.676,59.316 L341.088,59.316 Z M348.468,57.912 C349.068003,57.912 349.553998,58.1459977 349.926,58.614 C350.298002,59.0820023 350.484,59.7839953 350.484,60.72 C350.484,62.6160095 349.872006,64.2119935 348.648,65.508 C348.407999,65.7720013 348.132002,65.904 347.82,65.904 C347.579999,65.904 347.364001,65.8140009 347.172,65.634 C346.979999,65.4539991 346.884,65.2440012 346.884,65.004 C346.884,64.7399987 346.979999,64.512001 347.172,64.32 C347.796003,63.6719968 348.191999,62.8680048 348.36,61.908 C347.831997,61.8599998 347.394002,61.6620017 347.046,61.314 C346.697998,60.9659983 346.524,60.5160028 346.524,59.964 C346.524,59.363997 346.709998,58.8720019 347.082,58.488 C347.454002,58.1039981 347.915997,57.912 348.468,57.912 Z M363.444,62.088 C360.539985,62.088 358.332008,60.984011 356.82,58.776 C355.307992,56.567989 354.552,53.3520211 354.552,49.128 C354.552,44.8799788 355.307992,41.652011 356.82,39.444 C358.332008,37.235989 360.539985,36.132 363.444,36.132 C366.348015,36.132 368.555992,37.229989 370.068,39.426 C371.580008,41.622011 372.336,44.8439788 372.336,49.092 C372.336,53.3400212 371.580008,56.567989 370.068,58.776 C368.555992,60.984011 366.348015,62.088 363.444,62.088 Z M363.444,59.604 C365.46001,59.604 366.947995,58.7520085 367.908,57.048 C368.868005,55.3439915 369.348,52.692018 369.348,49.092 C369.348,45.4679819 368.874005,42.8160084 367.926,41.136 C366.977995,39.4559916 365.48401,38.616 363.444,38.616 C361.42799,38.616 359.940005,39.4619915 358.98,41.154 C358.019995,42.8460085 357.54,45.491982 357.54,49.092 C357.54,52.692018 358.019995,55.3439915 358.98,57.048 C359.940005,58.7520085 361.42799,59.604 363.444,59.604 Z M385.044,62.088 C382.139985,62.088 379.932008,60.984011 378.42,58.776 C376.907992,56.567989 376.152,53.3520211 376.152,49.128 C376.152,44.8799788 376.907992,41.652011 378.42,39.444 C379.932008,37.235989 382.139985,36.132 385.044,36.132 C387.948015,36.132 390.155992,37.229989 391.668,39.426 C393.180008,41.622011 393.936,44.8439788 393.936,49.092 C393.936,53.3400212 393.180008,56.567989 391.668,58.776 C390.155992,60.984011 387.948015,62.088 385.044,62.088 Z M385.044,59.604 C387.06001,59.604 388.547995,58.7520085 389.508,57.048 C390.468005,55.3439915 390.948,52.692018 390.948,49.092 C390.948,45.4679819 390.474005,42.8160084 389.526,41.136 C388.577995,39.4559916 387.08401,38.616 385.044,38.616 C383.02799,38.616 381.540005,39.4619915 380.58,41.154 C379.619995,42.8460085 379.14,45.491982 379.14,49.092 C379.14,52.692018 379.619995,55.3439915 380.58,57.048 C381.540005,58.7520085 383.02799,59.604 385.044,59.604 Z M406.644,36.132 C409.548015,36.132 411.755992,37.229989 413.268,39.426 C414.780008,41.622011 415.536,44.8439788 415.536,49.092 C415.536,53.3400212 414.780008,56.567989 413.268,58.776 C411.755992,60.984011 409.548015,62.088 406.644,62.088 C403.739985,62.088 401.532008,60.984011 400.02,58.776 C398.507992,56.567989 397.752,53.3520211 397.752,49.128 C397.752,44.8799788 398.507992,41.652011 400.02,39.444 C401.532008,37.235989 403.739985,36.132 406.644,36.132 Z M406.644,38.616 C404.62799,38.616 403.140005,39.4619915 402.18,41.154 C401.219995,42.8460085 400.74,45.491982 400.74,49.092 C400.74,52.692018 401.219995,55.3439915 402.18,57.048 C403.140005,58.7520085 404.62799,59.604 406.644,59.604 C408.66001,59.604 410.147995,58.7520085 411.108,57.048 C412.068005,55.3439915 412.548,52.692018 412.548,49.092 C412.548,45.4679819 412.074005,42.8160084 411.126,41.136 C410.177995,39.4559916 408.68401,38.616 406.644,38.616 Z" id="2,000" fill="#242F40" fill-rule="nonzero"></path>
                                <path d="M485.0912,38.204 C485.496002,38.204 485.822599,38.3373987 486.071,38.6042 C486.319401,38.8710013 486.4436,39.2159979 486.4436,39.6392 L486.4436,56.5028 C486.4436,56.9260021 486.314801,57.2709987 486.0572,57.5378 C485.799599,57.8046013 485.468402,57.938 485.0636,57.938 C484.585198,57.938 484.217201,57.7540018 483.9596,57.386 L473.1404,43.1168 L473.1404,56.5028 C473.1404,56.9260021 473.016201,57.2709987 472.7678,57.5378 C472.519399,57.8046013 472.192802,57.938 471.788,57.938 C471.383198,57.938 471.061201,57.8092013 470.822,57.5516 C470.582799,57.2939987 470.4632,56.9444022 470.4632,56.5028 L470.4632,39.6392 C470.4632,39.2159979 470.591999,38.8710013 470.8496,38.6042 C471.107201,38.3373987 471.438398,38.204 471.8432,38.204 C472.321602,38.204 472.689599,38.3879982 472.9472,38.756 L483.7664,53.0528 L483.7664,39.6392 C483.7664,39.2159979 483.885999,38.8710013 484.1252,38.6042 C484.364401,38.3373987 484.686398,38.204 485.0912,38.204 Z M505.598,47.4776 C505.947602,47.4776 506.228199,47.578799 506.4398,47.7812 C506.651401,47.983601 506.7572,48.2595983 506.7572,48.6092 L506.7572,55.0676 C506.7572,55.6932031 506.669801,56.1439986 506.495,56.42 C506.320199,56.6960014 505.975203,56.9167992 505.46,57.0824 C504.723996,57.3768015 503.850005,57.6067992 502.838,57.7724 C501.825995,57.9380008 500.823205,58.0208 499.8296,58.0208 C497.86079,58.0208 496.158807,57.625204 494.7236,56.834 C493.288393,56.042796 492.193604,54.9020075 491.4392,53.4116 C490.684796,51.9211925 490.3076,50.1364104 490.3076,48.0572 C490.3076,46.0147898 490.684796,44.2484075 491.4392,42.758 C492.193604,41.2675925 493.274593,40.122204 494.6822,39.3218 C496.089807,38.521396 497.741191,38.1212 499.6364,38.1212 C500.924406,38.1212 502.115795,38.3097981 503.2106,38.687 C504.18376,39.0222906 505.029699,39.4920543 505.748436,40.0963028 L506.012,40.3292 C506.380002,40.6236015 506.564,40.9915978 506.564,41.4332 C506.564,41.7644017 506.472001,42.0449988 506.288,42.275 C506.103999,42.5050011 505.883201,42.62 505.6256,42.62 C505.459999,42.62 505.312801,42.5924003 505.184,42.5372 C505.055199,42.4819997 504.889601,42.3900006 504.6872,42.2612 C503.785595,41.5987967 502.966804,41.1342013 502.2308,40.8674 C501.494796,40.6005987 500.648405,40.4672 499.6916,40.4672 C497.59399,40.4672 495.993206,41.1157935 494.8892,42.413 C493.785194,43.7102065 493.2332,45.5915877 493.2332,48.0572 C493.2332,50.5780126 493.798994,52.4869935 494.9306,53.7842 C496.062206,55.0814065 497.722789,55.73 499.9124,55.73 C501.384407,55.73 502.801193,55.5092022 504.1628,55.0676 L504.1628,49.6304 L500.5472,49.6304 C500.179198,49.6304 499.889401,49.533801 499.6778,49.3406 C499.466199,49.147399 499.3604,48.8852017 499.3604,48.554 C499.3604,48.2227983 499.466199,47.960601 499.6778,47.7674 C499.889401,47.574199 500.179198,47.4776 500.5472,47.4776 L505.598,47.4776 Z M525.6908,38.204 C526.095602,38.204 526.422199,38.3373987 526.6706,38.6042 C526.919001,38.8710013 527.0432,39.2159979 527.0432,39.6392 L527.0432,56.5028 C527.0432,56.9260021 526.914401,57.2709987 526.6568,57.5378 C526.399199,57.8046013 526.068002,57.938 525.6632,57.938 C525.184798,57.938 524.816801,57.7540018 524.5592,57.386 L513.74,43.1168 L513.74,56.5028 C513.74,56.9260021 513.615801,57.2709987 513.3674,57.5378 C513.118999,57.8046013 512.792402,57.938 512.3876,57.938 C511.982798,57.938 511.660801,57.8092013 511.4216,57.5516 C511.182399,57.2939987 511.0628,56.9444022 511.0628,56.5028 L511.0628,39.6392 C511.0628,39.2159979 511.191599,38.8710013 511.4492,38.6042 C511.706801,38.3373987 512.037998,38.204 512.4428,38.204 C512.921202,38.204 513.289199,38.3879982 513.5468,38.756 L524.366,53.0528 L524.366,39.6392 C524.366,39.2159979 524.485599,38.8710013 524.7248,38.6042 C524.964001,38.3373987 525.285998,38.204 525.6908,38.204 Z" id="NGN" fill="#242F40" fill-rule="nonzero" opacity="0.167712984"></path>
                            </g>
                            <g id="Group-20-Copy" transform="translate(86.000000, 147.000000)">
                                <g id="Rectangle">
                                    <use fill="black" fill-opacity="1" filter="url(#filter-21)" xlink:href="#path-20"></use>
                                    <use fill="#FFFFFF" fill-rule="evenodd" xlink:href="#path-20"></use>
                                </g>
                                <g id="Group-18" transform="translate(16.000000, 12.000000)">
                                    <g id="Rectangle-Copy-6">
                                        <use fill="black" fill-opacity="1" filter="url(#filter-23)" xlink:href="#path-22"></use>
                                        <use fill="#FFFFFF" fill-rule="evenodd" xlink:href="#path-22"></use>
                                    </g>
                                    <g id="Stockholm-icons-/-Communication-/-Call" transform="translate(3.000000, 6.000000)">
                                        <rect id="bound" x="0" y="0" width="48" height="48"></rect>
                                        <path d="M24,4 C35.045695,4 44,12.954305 44,24 C44,35.045695 35.045695,44 24,44 C12.954305,44 4,35.045695 4,24 C4,12.954305 12.954305,4 24,4 Z M31.5983777,13.8128937 C31.2078534,13.4223694 30.5746884,13.4223694 30.1841641,13.8128937 L30.1841641,13.8128937 L26.9990801,16.9979777 C26.1088414,17.8882164 25.8881408,19.2482349 26.4511772,20.3743078 C27.0142136,21.5003806 26.793513,22.8603991 25.9032742,23.7506378 L25.9032742,23.7506378 L23.227844,26.4260681 C22.3376052,27.3163068 20.9775867,27.5370075 19.8515139,26.973971 C18.7254411,26.4109346 17.3654226,26.6316353 16.4751838,27.521874 L16.4751838,27.521874 L13.4531644,30.5438934 C13.3433895,30.6536683 13.2606807,30.787494 13.2115879,30.9347725 C13.0369401,31.4587158 13.3201001,32.0250358 13.8440434,32.1996835 L13.8440434,32.1996835 L16.5516823,33.1022298 C19.1518528,33.9689533 22.0185479,33.2922184 23.9566006,31.3541657 L23.9566006,31.3541657 L31.9550346,23.3557317 C33.735512,21.5752543 34.1769133,18.8552172 33.0508405,16.6030716 L33.0508405,16.6030716 L31.7856981,14.0727869 C31.7376307,13.976652 31.674379,13.888895 31.5983777,13.8128937 Z" id="Combined-Shape" fill="#EAEDF3" fill-rule="evenodd"></path>
                                    </g>
                                </g>
                                <g id="+234---803584092" transform="translate(88.344000, 33.888000)" fill-rule="nonzero">
                                    <path d="M10.944,9.528 C11.152001,9.528 11.3319992,9.59999928 11.484,9.744 C11.6360008,9.88800072 11.712,10.063999 11.712,10.272 C11.712,10.480001 11.6400007,10.6599992 11.496,10.812 C11.3519993,10.9640008 11.1680011,11.04 10.944,11.04 L6.6,11.04 L6.6,15.36 C6.6,15.5840011 6.52800072,15.7679993 6.384,15.912 C6.23999928,16.0560007 6.06400104,16.128 5.856,16.128 C5.64799896,16.128 5.47200072,16.0520008 5.328,15.9 C5.18399928,15.7479992 5.112,15.568001 5.112,15.36 L5.112,11.04 L0.768,11.04 C0.55999896,11.04 0.38000076,10.9640008 0.228,10.812 C0.07599924,10.6599992 1.37845291e-12,10.480001 1.37845291e-12,10.272 C1.37845291e-12,10.063999 0.07599924,9.88800072 0.228,9.744 C0.38000076,9.59999928 0.55999896,9.528 0.768,9.528 L5.112,9.528 L5.112,5.208 C5.112,4.98399888 5.18399928,4.79600076 5.328,4.644 C5.47200072,4.49199924 5.64799896,4.416 5.856,4.416 C6.06400104,4.416 6.23999928,4.49199924 6.384,4.644 C6.52800072,4.79600076 6.6,4.98399888 6.6,5.208 L6.6,9.528 L10.944,9.528 Z M26.548,15.456 C26.8360014,15.456 27.0599992,15.5279993 27.22,15.672 C27.3800008,15.8160007 27.46,16.0159987 27.46,16.272 C27.46,16.8320028 27.156003,17.112 26.548,17.112 L17.14,17.112 C16.8679986,17.112 16.6440009,17.0280008 16.468,16.86 C16.2919991,16.6919992 16.204,16.4880012 16.204,16.248 C16.204,15.9874273 16.2862849,15.7562453 16.4508568,15.5544493 L22.324,9.096 C23.124004,8.19999552 23.7039982,7.39600356 24.064,6.684 C24.4240018,5.97199644 24.604,5.2560036 24.604,4.536 C24.604,3.60799536 24.3360027,2.89600248 23.8,2.4 C23.2639973,1.90399752 22.5080049,1.656 21.532,1.656 C20.7639962,1.656 20.0280035,1.7959986 19.324,2.076 C18.6199965,2.3560014 17.9160035,2.78399712 17.212,3.36 C16.9719988,3.55200096 16.748001,3.648 16.54,3.648 C16.3639991,3.648 16.2120006,3.56400084 16.084,3.396 C15.9559994,3.22799916 15.892,3.0240012 15.892,2.784 C15.892,2.44799832 16.0199987,2.17600104 16.276,1.968 C16.9320033,1.35999696 17.7319953,0.88000176 18.676,0.528 C19.6200047,0.17599824 20.587995,9.9475983e-14 21.58,9.9475983e-14 C23.1000076,9.9475983e-14 24.3119955,0.399996 25.216,1.2 C26.1200045,2 26.572,3.0799932 26.572,4.44 C26.572,5.41600488 26.3520022,6.35199552 25.912,7.248 C25.4719978,8.14400448 24.748005,9.14399448 23.74,10.248 L18.94,15.456 L26.548,15.456 Z M39.512,8.424 C40.5360051,8.71200144 41.3159973,9.20799648 41.852,9.912 C42.3880027,10.6160035 42.656,11.4879948 42.656,12.528 C42.656,14 42.160005,15.1599958 41.168,16.008 C40.175995,16.8560042 38.8240086,17.28 37.112,17.28 C36.0719948,17.28 35.0760048,17.1040018 34.124,16.752 C33.1719952,16.3999982 32.3680033,15.920003 31.712,15.312 C31.4559987,15.0719988 31.328,14.8000015 31.328,14.496 C31.328,14.2559988 31.3919994,14.0560008 31.52,13.896 C31.6480006,13.7359992 31.7999991,13.656 31.976,13.656 C32.2000011,13.656 32.4239989,13.7439991 32.648,13.92 C33.3840037,14.512003 34.1039965,14.9439986 34.808,15.216 C35.5120035,15.4880014 36.2719959,15.624 37.088,15.624 C38.2720059,15.624 39.1719969,15.3520027 39.788,14.808 C40.4040031,14.2639973 40.712,13.4800051 40.712,12.456 C40.712,10.3919897 39.416013,9.36 36.824,9.36 L35.552,9.36 C35.2959987,9.36 35.0920008,9.27600084 34.94,9.108 C34.7879992,8.93999916 34.712,8.74400112 34.712,8.52 C34.712,8.29599888 34.7879992,8.1040008 34.94,7.944 C35.0920008,7.7839992 35.2959987,7.704 35.552,7.704 L36.44,7.704 C37.6880062,7.704 38.6479966,7.42800276 39.32,6.876 C39.9920034,6.32399724 40.328,5.5280052 40.328,4.488 C40.328,3.57599544 40.0560027,2.87600244 39.512,2.388 C38.9679973,1.89999756 38.200005,1.656 37.208,1.656 C36.4559962,1.656 35.7280035,1.7959986 35.024,2.076 C34.3199965,2.3560014 33.6160035,2.78399712 32.912,3.36 C32.6879989,3.53600088 32.4640011,3.624 32.24,3.624 C32.0639991,3.624 31.9120006,3.5440008 31.784,3.384 C31.6559994,3.2239992 31.592,3.0240012 31.592,2.784 C31.592,2.47999848 31.7199987,2.2080012 31.976,1.968 C32.6320033,1.35999696 33.4279953,0.88000176 34.364,0.528 C35.3000047,0.17599824 36.263995,9.9475983e-14 37.256,9.9475983e-14 C38.7920077,9.9475983e-14 40.0119955,0.38799612 40.916,1.164 C41.8200045,1.94000388 42.272,2.98399344 42.272,4.296 C42.272,5.27200488 42.0280024,6.12399636 41.54,6.852 C41.0519976,7.58000364 40.3760043,8.1039984 39.512,8.424 Z M55.764,0.072 C56.0360014,0.072 56.267999,0.15999912 56.46,0.336 C56.652001,0.51200088 56.748,0.7599984 56.748,1.08 L56.748,11.808 L58.548,11.808 C58.8360014,11.808 59.0599992,11.8839992 59.22,12.036 C59.3800008,12.1880008 59.46,12.3839988 59.46,12.624 C59.46,13.1680027 59.156003,13.44 58.548,13.44 L56.748,13.44 L56.748,16.224 C56.748,16.5440016 56.6560009,16.7919991 56.472,16.968 C56.288,17.1440009 56.0520014,17.232 55.764,17.232 C55.4759986,17.232 55.2440009,17.1440009 55.068,16.968 C54.8919991,16.7919991 54.804,16.5440016 54.804,16.224 L54.804,13.44 L47.7,13.44 C47.4119986,13.44 47.1880008,13.3600008 47.028,13.2 C46.8679992,13.0399992 46.788,12.8400012 46.788,12.6 C46.788,12.3759989 46.8759991,12.1280014 47.052,11.856 L54.9,0.504 C55.1240011,0.21599856 55.4119982,0.072 55.764,0.072 Z M54.804,3.48 L49.02,11.808 L54.804,11.808 L54.804,3.48 Z" id="+234" fill="#242F40"></path>
                                    <path d="M71.396,11.52 C71.1079986,11.52 70.8880008,11.4480007 70.736,11.304 C70.5839992,11.1599993 70.508,10.9680012 70.508,10.728 C70.508,10.4879988 70.5839992,10.2920008 70.736,10.14 C70.8880008,9.98799924 71.1079986,9.912 71.396,9.912 L76.676,9.912 C76.9800015,9.912 77.2079992,9.98799924 77.36,10.14 C77.5120008,10.2920008 77.588,10.4879988 77.588,10.728 C77.588,10.9680012 77.5120008,11.1599993 77.36,11.304 C77.2079992,11.4480007 76.9800015,11.52 76.676,11.52 L71.396,11.52 Z M98.068,8.424 C99.060005,8.72800152 99.8319972,9.24799632 100.384,9.984 C100.936003,10.7200037 101.212,11.5999949 101.212,12.624 C101.212,14.0800073 100.684005,15.2199959 99.628,16.044 C98.5719947,16.8680041 97.0760097,17.28 95.14,17.28 C93.2039903,17.28 91.7080053,16.8680041 90.652,16.044 C89.5959947,15.2199959 89.068,14.0800073 89.068,12.624 C89.068,11.5839948 89.3479972,10.6960037 89.908,9.96 C90.4680028,9.22399632 91.243995,8.71200144 92.236,8.424 C91.3879958,8.1039984 90.7160025,7.60000344 90.22,6.912 C89.7239975,6.22399656 89.476,5.41600464 89.476,4.488 C89.476,3.11199312 89.975995,2.02000404 90.976,1.212 C91.976005,0.40399596 93.3639911,4.26325641e-14 95.14,4.26325641e-14 C96.9160089,4.26325641e-14 98.303995,0.40399596 99.304,1.212 C100.304005,2.02000404 100.804,3.11199312 100.804,4.488 C100.804,5.41600464 100.556002,6.22799652 100.06,6.924 C99.5639975,7.62000348 98.9000042,8.11999848 98.068,8.424 Z M91.42,4.632 C91.42,5.62400496 91.7359968,6.38399736 92.368,6.912 C93.0000032,7.44000264 93.9239939,7.704 95.14,7.704 C96.3560061,7.704 97.2799968,7.44000264 97.912,6.912 C98.5440032,6.38399736 98.86,5.62400496 98.86,4.632 C98.86,3.68799528 98.5440032,2.95200264 97.912,2.424 C97.2799968,1.89599736 96.3560061,1.632 95.14,1.632 C93.9239939,1.632 93.0000032,1.89599736 92.368,2.424 C91.7359968,2.95200264 91.42,3.68799528 91.42,4.632 Z M95.14,15.648 C97.8920138,15.648 99.268,14.6000105 99.268,12.504 C99.268,10.4079895 97.8920138,9.36 95.14,9.36 C92.3879862,9.36 91.012,10.4079895 91.012,12.504 C91.012,14.6000105 92.3879862,15.648 95.14,15.648 Z M110.84,17.304 C108.90399,17.304 107.432005,16.5680074 106.424,15.096 C105.415995,13.6239926 104.912,11.4800141 104.912,8.664 C104.912,5.83198584 105.415995,3.68000736 106.424,2.208 C107.432005,0.73599264 108.90399,4.26325641e-14 110.84,4.26325641e-14 C112.77601,4.26325641e-14 114.247995,0.73199268 115.256,2.196 C116.264005,3.66000732 116.768,5.80798584 116.768,8.64 C116.768,11.4720142 116.264005,13.6239926 115.256,15.096 C114.247995,16.5680074 112.77601,17.304 110.84,17.304 Z M110.84,15.648 C112.184007,15.648 113.175997,15.0800057 113.816,13.944 C114.456003,12.8079943 114.776,11.040012 114.776,8.64 C114.776,6.22398792 114.460003,4.4560056 113.828,3.336 C113.195997,2.2159944 112.200007,1.656 110.84,1.656 C109.495993,1.656 108.504003,2.21999436 107.864,3.348 C107.223997,4.47600564 106.904,6.239988 106.904,8.64 C106.904,11.040012 107.223997,12.8079943 107.864,13.944 C108.504003,15.0800057 109.495993,15.648 110.84,15.648 Z M128.796,8.424 C129.820005,8.71200144 130.599997,9.20799648 131.136,9.912 C131.672003,10.6160035 131.94,11.4879948 131.94,12.528 C131.94,14 131.444005,15.1599958 130.452,16.008 C129.459995,16.8560042 128.108009,17.28 126.396,17.28 C125.355995,17.28 124.360005,17.1040018 123.408,16.752 C122.455995,16.3999982 121.652003,15.920003 120.996,15.312 C120.739999,15.0719988 120.612,14.8000015 120.612,14.496 C120.612,14.2559988 120.675999,14.0560008 120.804,13.896 C120.932001,13.7359992 121.083999,13.656 121.26,13.656 C121.484001,13.656 121.707999,13.7439991 121.932,13.92 C122.668004,14.512003 123.387996,14.9439986 124.092,15.216 C124.796004,15.4880014 125.555996,15.624 126.372,15.624 C127.556006,15.624 128.455997,15.3520027 129.072,14.808 C129.688003,14.2639973 129.996,13.4800051 129.996,12.456 C129.996,10.3919897 128.700013,9.36 126.108,9.36 L124.836,9.36 C124.579999,9.36 124.376001,9.27600084 124.224,9.108 C124.071999,8.93999916 123.996,8.74400112 123.996,8.52 C123.996,8.29599888 124.071999,8.1040008 124.224,7.944 C124.376001,7.7839992 124.579999,7.704 124.836,7.704 L125.724,7.704 C126.972006,7.704 127.931997,7.42800276 128.604,6.876 C129.276003,6.32399724 129.612,5.5280052 129.612,4.488 C129.612,3.57599544 129.340003,2.87600244 128.796,2.388 C128.251997,1.89999756 127.484005,1.656 126.492,1.656 C125.739996,1.656 125.012004,1.7959986 124.308,2.076 C123.603996,2.3560014 122.900004,2.78399712 122.196,3.36 C121.971999,3.53600088 121.748001,3.624 121.524,3.624 C121.347999,3.624 121.196001,3.5440008 121.068,3.384 C120.939999,3.2239992 120.876,3.0240012 120.876,2.784 C120.876,2.47999848 121.003999,2.2080012 121.26,1.968 C121.916003,1.35999696 122.711995,0.88000176 123.648,0.528 C124.584005,0.17599824 125.547995,4.26325641e-14 126.54,4.26325641e-14 C128.076008,4.26325641e-14 129.295995,0.38799612 130.2,1.164 C131.104005,1.94000388 131.556,2.98399344 131.556,4.296 C131.556,5.27200488 131.312002,6.12399636 130.824,6.852 C130.335998,7.58000364 129.660004,8.1039984 128.796,8.424 Z M142.888,6.504 C143.960005,6.504 144.899996,6.72799776 145.708,7.176 C146.516004,7.62400224 147.139998,8.25199596 147.58,9.06 C148.020002,9.86800404 148.24,10.7999947 148.24,11.856 C148.24,12.9120053 148.000002,13.8519959 147.52,14.676 C147.039998,15.5000041 146.372004,16.1399977 145.516,16.596 C144.659996,17.0520023 143.672006,17.28 142.552,17.28 C141.559995,17.28 140.592005,17.1040018 139.648,16.752 C138.703995,16.3999982 137.904003,15.920003 137.248,15.312 C136.991999,15.0719988 136.864,14.8000015 136.864,14.496 C136.864,14.2559988 136.927999,14.0560008 137.056,13.896 C137.184001,13.7359992 137.335999,13.656 137.512,13.656 C137.736001,13.656 137.959999,13.7439991 138.184,13.92 C138.888004,14.4960029 139.591996,14.9239986 140.296,15.204 C141.000004,15.4840014 141.735996,15.624 142.504,15.624 C143.688006,15.624 144.615997,15.2880034 145.288,14.616 C145.960003,13.9439966 146.296,13.0320058 146.296,11.88 C146.296,10.7599944 145.960003,9.85600344 145.288,9.168 C144.615997,8.47999656 143.712006,8.136 142.576,8.136 C141.119993,8.136 139.936005,8.6959944 139.024,9.816 C138.799999,10.0560012 138.528002,10.176 138.208,10.176 C137.983999,10.176 137.796001,10.1080007 137.644,9.972 C137.491999,9.83599932 137.416,9.6480012 137.416,9.408 L137.416,1.128 C137.416,0.85599864 137.499999,0.63200088 137.668,0.456 C137.836001,0.27999912 138.071998,0.192 138.376,0.192 L146.824,0.192 C147.112001,0.192 147.339999,0.26399928 147.508,0.408 C147.676001,0.55200072 147.76,0.75199872 147.76,1.008 C147.76,1.26400128 147.676001,1.46399928 147.508,1.608 C147.339999,1.75200072 147.112001,1.824 146.824,1.824 L139.36,1.824 L139.36,7.848 C139.808002,7.41599784 140.331997,7.08400116 140.932,6.852 C141.532003,6.61999884 142.183996,6.504 142.888,6.504 Z M160.868,8.424 C161.860005,8.72800152 162.631997,9.24799632 163.184,9.984 C163.736003,10.7200037 164.012,11.5999949 164.012,12.624 C164.012,14.0800073 163.484005,15.2199959 162.428,16.044 C161.371995,16.8680041 159.87601,17.28 157.94,17.28 C156.00399,17.28 154.508005,16.8680041 153.452,16.044 C152.395995,15.2199959 151.868,14.0800073 151.868,12.624 C151.868,11.5839948 152.147997,10.6960037 152.708,9.96 C153.268003,9.22399632 154.043995,8.71200144 155.036,8.424 C154.187996,8.1039984 153.516002,7.60000344 153.02,6.912 C152.523998,6.22399656 152.276,5.41600464 152.276,4.488 C152.276,3.11199312 152.775995,2.02000404 153.776,1.212 C154.776005,0.40399596 156.163991,4.26325641e-14 157.94,4.26325641e-14 C159.716009,4.26325641e-14 161.103995,0.40399596 162.104,1.212 C163.104005,2.02000404 163.604,3.11199312 163.604,4.488 C163.604,5.41600464 163.356002,6.22799652 162.86,6.924 C162.363998,7.62000348 161.700004,8.11999848 160.868,8.424 Z M154.22,4.632 C154.22,5.62400496 154.535997,6.38399736 155.168,6.912 C155.800003,7.44000264 156.723994,7.704 157.94,7.704 C159.156006,7.704 160.079997,7.44000264 160.712,6.912 C161.344003,6.38399736 161.66,5.62400496 161.66,4.632 C161.66,3.68799528 161.344003,2.95200264 160.712,2.424 C160.079997,1.89599736 159.156006,1.632 157.94,1.632 C156.723994,1.632 155.800003,1.89599736 155.168,2.424 C154.535997,2.95200264 154.22,3.68799528 154.22,4.632 Z M157.94,15.648 C160.692014,15.648 162.068,14.6000105 162.068,12.504 C162.068,10.4079895 160.692014,9.36 157.94,9.36 C155.187986,9.36 153.812,10.4079895 153.812,12.504 C153.812,14.6000105 155.187986,15.648 157.94,15.648 Z M179.232,11.808 C179.520001,11.808 179.743999,11.8839992 179.904,12.036 C180.064001,12.1880008 180.144,12.3839988 180.144,12.624 C180.144,13.1680027 179.840003,13.44 179.232,13.44 L177.432,13.44 L177.432,16.224 C177.432,16.5440016 177.340001,16.7919991 177.156,16.968 C176.972,17.1440009 176.736001,17.232 176.448,17.232 C176.159999,17.232 175.928001,17.1440009 175.752,16.968 C175.575999,16.7919991 175.488,16.5440016 175.488,16.224 L175.488,13.44 L168.384,13.44 C168.095999,13.44 167.872001,13.3600008 167.712,13.2 C167.551999,13.0399992 167.472,12.8400012 167.472,12.6 C167.472,12.3759989 167.559999,12.1280014 167.736,11.856 L175.584,0.504 C175.808001,0.21599856 176.095998,0.072 176.448,0.072 C176.720001,0.072 176.951999,0.15999912 177.144,0.336 C177.336001,0.51200088 177.432,0.7599984 177.432,1.08 L177.432,11.808 L179.232,11.808 Z M169.704,11.808 L175.488,11.808 L175.488,3.48 L169.704,11.808 Z M189.34,17.304 C187.40399,17.304 185.932005,16.5680074 184.924,15.096 C183.915995,13.6239926 183.412,11.4800141 183.412,8.664 C183.412,5.83198584 183.915995,3.68000736 184.924,2.208 C185.932005,0.73599264 187.40399,4.26325641e-14 189.34,4.26325641e-14 C191.27601,4.26325641e-14 192.747995,0.73199268 193.756,2.196 C194.764005,3.66000732 195.268,5.80798584 195.268,8.64 C195.268,11.4720142 194.764005,13.6239926 193.756,15.096 C192.747995,16.5680074 191.27601,17.304 189.34,17.304 Z M189.34,15.648 C190.684007,15.648 191.675997,15.0800057 192.316,13.944 C192.956003,12.8079943 193.276,11.040012 193.276,8.64 C193.276,6.22398792 192.960003,4.4560056 192.328,3.336 C191.695997,2.2159944 190.700007,1.656 189.34,1.656 C187.995993,1.656 187.004003,2.21999436 186.364,3.348 C185.723997,4.47600564 185.404,6.239988 185.404,8.64 C185.404,11.040012 185.723997,12.8079943 186.364,13.944 C187.004003,15.0800057 187.995993,15.648 189.34,15.648 Z M204.512,4.26325641e-14 C206.56001,4.26325641e-14 208.139994,0.71199288 209.252,2.136 C210.364006,3.56000712 210.92,5.5919868 210.92,8.232 C210.92,10.1200094 210.664003,11.7439932 210.152,13.104 C209.639997,14.4640068 208.896005,15.5039964 207.92,16.224 C206.943995,16.9440036 205.784007,17.304 204.44,17.304 C203.527995,17.304 202.620005,17.1280018 201.716,16.776 C200.811995,16.4239982 200.040003,15.944003 199.4,15.336 C199.127999,15.0799987 198.992,14.8080014 198.992,14.52 C198.992,14.2799988 199.055999,14.0800008 199.184,13.92 C199.312001,13.7599992 199.463999,13.68 199.64,13.68 C199.864001,13.68 200.095999,13.7679991 200.336,13.944 C201.728007,15.0800057 203.079993,15.648 204.392,15.648 C205.816007,15.648 206.927996,15 207.728,13.704 C208.528004,12.4079935 208.928,10.5920117 208.928,8.256 L208.928,7.944 C208.559998,8.84000448 207.964004,9.54399744 207.14,10.056 C206.315996,10.5680026 205.384005,10.824 204.344,10.824 C203.319995,10.824 202.408004,10.6000022 201.608,10.152 C200.807996,9.70399776 200.184002,9.07200408 199.736,8.256 C199.287998,7.43999592 199.064,6.50400528 199.064,5.448 C199.064,4.4079948 199.295998,3.47200416 199.76,2.64 C200.224002,1.80799584 200.871996,1.16000232 201.704,0.696 C202.536004,0.23199768 203.471995,4.26325641e-14 204.512,4.26325641e-14 Z M204.632,9.168 C205.736006,9.168 206.635997,8.82000348 207.332,8.124 C208.028003,7.42799652 208.376,6.52800552 208.376,5.424 C208.376,4.3039944 208.028003,3.39600348 207.332,2.7 C206.635997,2.00399652 205.728006,1.656 204.608,1.656 C203.519995,1.656 202.648003,1.99999656 201.992,2.688 C201.335997,3.37600344 201.008,4.28799432 201.008,5.424 C201.008,6.56000568 201.339997,7.4679966 202.004,8.148 C202.668003,8.8280034 203.543995,9.168 204.632,9.168 Z M225.732,15.456 C226.020001,15.456 226.243999,15.5279993 226.404,15.672 C226.564001,15.8160007 226.644,16.0159987 226.644,16.272 C226.644,16.8320028 226.340003,17.112 225.732,17.112 L216.324,17.112 C216.051999,17.112 215.828001,17.0280008 215.652,16.86 C215.475999,16.6919992 215.388,16.4880012 215.388,16.248 C215.388,15.9874273 215.470285,15.7562453 215.634857,15.5544493 L221.508,9.096 C222.308004,8.19999552 222.887998,7.39600356 223.248,6.684 C223.608002,5.97199644 223.788,5.2560036 223.788,4.536 C223.788,3.60799536 223.520003,2.89600248 222.984,2.4 C222.447997,1.90399752 221.692005,1.656 220.716,1.656 C219.947996,1.656 219.212004,1.7959986 218.508,2.076 C217.803996,2.3560014 217.100004,2.78399712 216.396,3.36 C216.155999,3.55200096 215.932001,3.648 215.724,3.648 C215.547999,3.648 215.396001,3.56400084 215.268,3.396 C215.139999,3.22799916 215.076,3.0240012 215.076,2.784 C215.076,2.44799832 215.203999,2.17600104 215.46,1.968 C216.116003,1.35999696 216.915995,0.88000176 217.86,0.528 C218.804005,0.17599824 219.771995,4.26325641e-14 220.764,4.26325641e-14 C222.284008,4.26325641e-14 223.495995,0.399996 224.4,1.2 C225.304005,2 225.756,3.0799932 225.756,4.44 C225.756,5.41600488 225.536002,6.35199552 225.096,7.248 C224.655998,8.14400448 223.932005,9.14399448 222.924,10.248 L218.124,15.456 L225.732,15.456 Z" id="-803584092" fill="#8F92A1"></path>
                                </g>
                            </g>
                            <g id="Group-20-Copy-2" transform="translate(130.000000, 250.000000)">
                                <g id="Rectangle">
                                    <use fill="black" fill-opacity="1" filter="url(#filter-26)" xlink:href="#path-25"></use>
                                    <use fill="url(#linearGradient-24)" fill-rule="evenodd" xlink:href="#path-25"></use>
                                </g>
                                <path d="M117.3344,32.7872 C117.573335,32.7872 117.774933,32.8655992 117.9392,33.0224 C118.103467,33.1792008 118.1856,33.3770655 118.1856,33.616 C118.1856,33.8549345 118.103467,34.0527992 117.9392,34.2096 C117.774933,34.3664008 117.573335,34.4448 117.3344,34.4448 L113.5488,34.4448 L113.5488,38.2304 C113.5488,38.4693345 113.470401,38.6709325 113.3136,38.8352 C113.156799,38.9994675 112.958935,39.0816 112.72,39.0816 C112.481065,39.0816 112.283201,38.9994675 112.1264,38.8352 C111.969599,38.6709325 111.8912,38.4693345 111.8912,38.2304 L111.8912,34.4448 L108.1056,34.4448 C107.866665,34.4448 107.665067,34.3626675 107.5008,34.1984 C107.336533,34.0341325 107.2544,33.8400011 107.2544,33.616 C107.2544,33.3770655 107.336533,33.1792008 107.5008,33.0224 C107.665067,32.8655992 107.866665,32.7872 108.1056,32.7872 L111.8912,32.7872 L111.8912,29.0016 C111.8912,28.7626655 111.969599,28.5610675 112.1264,28.3968 C112.283201,28.2325325 112.481065,28.1504 112.72,28.1504 C112.958935,28.1504 113.156799,28.2325325 113.3136,28.3968 C113.470401,28.5610675 113.5488,28.7626655 113.5488,29.0016 L113.5488,32.7872 L117.3344,32.7872 Z M136.0064,31.8688 C136.917338,32.1226679 137.622931,32.57813 138.1232,33.2352 C138.623469,33.89227 138.8736,34.7135951 138.8736,35.6992 C138.8736,37.0581401 138.406938,38.1146629 137.4736,38.8688 C136.540262,39.6229371 135.237342,40 133.5648,40 L127.8528,40 C127.494398,40 127.214401,39.899201 127.0128,39.6976 C126.811199,39.495999 126.7104,39.2234684 126.7104,38.88 L126.7104,25.328 C126.7104,24.9845316 126.811199,24.712001 127.0128,24.5104 C127.214401,24.308799 127.494398,24.208 127.8528,24.208 L133.3184,24.208 C134.946141,24.208 136.219195,24.5701297 137.1376,25.2944 C138.056005,26.0186703 138.5152,27.0303935 138.5152,28.3296 C138.5152,29.1658708 138.294936,29.8901303 137.8544,30.5024 C137.413864,31.1146697 136.797871,31.5701318 136.0064,31.8688 Z M128.9728,31.04 L132.96,31.04 C135.170144,31.04 136.2752,30.2037417 136.2752,28.5312 C136.2752,27.6949292 136.002669,27.075202 135.4576,26.672 C134.912531,26.268798 134.080006,26.0672 132.96,26.0672 L128.9728,26.0672 L128.9728,31.04 Z M133.3184,38.1408 C134.468272,38.1408 135.311997,37.9317354 135.8496,37.5136 C136.387203,37.0954646 136.656,36.4458711 136.656,35.5648 C136.656,34.6687955 136.383469,34.0005355 135.8384,33.56 C135.293331,33.1194645 134.453339,32.8992 133.3184,32.8992 L128.9728,32.8992 L128.9728,38.1408 L133.3184,38.1408 Z M149.856,28.8448 C150.199468,28.8448 150.471999,28.9418657 150.6736,29.136 C150.875201,29.3301343 150.976,29.5989316 150.976,29.9424 L150.976,39.0592 C150.976,39.3728016 150.871468,39.6266657 150.6624,39.8208 C150.453332,40.0149343 150.177068,40.112 149.8336,40.112 C149.519998,40.112 149.266134,40.0186676 149.072,39.832 C148.877866,39.6453324 148.7808,39.3952016 148.7808,39.0816 L148.7808,38.2304 C148.437332,38.8576031 147.963203,39.335465 147.3584,39.664 C146.753597,39.992535 146.07787,40.1568 145.3312,40.1568 C142.673053,40.1568 141.344,38.693348 141.344,35.7664 L141.344,29.9424 C141.344,29.5989316 141.444799,29.3301343 141.6464,29.136 C141.848001,28.9418657 142.127998,28.8448 142.4864,28.8448 C142.829868,28.8448 143.102399,28.9418657 143.304,29.136 C143.505601,29.3301343 143.6064,29.5989316 143.6064,29.9424 L143.6064,35.744 C143.6064,36.6250711 143.785598,37.2746646 144.144,37.6928 C144.502402,38.1109354 145.05493,38.32 145.8016,38.32 C146.682671,38.32 147.388264,38.0362695 147.9184,37.4688 C148.448536,36.9013305 148.7136,36.1472047 148.7136,35.2064 L148.7136,29.9424 C148.7136,29.613865 148.818132,29.348801 149.0272,29.1472 C149.236268,28.945599 149.512532,28.8448 149.856,28.8448 Z M158.2176,37.2 L161.6672,29.5168 C161.7568,29.2927989 161.887466,29.1285339 162.0592,29.024 C162.230934,28.9194661 162.413866,28.8672 162.608,28.8672 C162.891735,28.8672 163.141866,28.9642657 163.3584,29.1584 C163.574934,29.3525343 163.6832,29.5839987 163.6832,29.8528 C163.6832,30.0021341 163.653334,30.1439993 163.5936,30.2784 L157.3664,43.4944 C157.2768,43.7034677 157.146134,43.8639994 156.9744,43.976 C156.802666,44.0880006 156.619734,44.144 156.4256,44.144 C156.156799,44.144 155.914134,44.0544009 155.6976,43.8752 C155.481066,43.6959991 155.3728,43.4720013 155.3728,43.2032 C155.3728,43.0837327 155.410133,42.9344009 155.4848,42.7552 L157.0304,39.4624 L152.7072,30.2784 C152.647466,30.1589327 152.6176,30.0245341 152.6176,29.8752 C152.6176,29.5914652 152.737065,29.3525343 152.976,29.1584 C153.214934,28.9642657 153.483732,28.8672 153.7824,28.8672 C154.230402,28.8672 154.551466,29.0762646 154.7456,29.4944 L158.2176,37.2 Z M185.1776,38.656 C185.252267,38.8352009 185.2896,38.9845327 185.2896,39.104 C185.2896,39.3877348 185.173868,39.6266657 184.9424,39.8208 C184.710932,40.0149343 184.453335,40.112 184.1696,40.112 C183.975466,40.112 183.792534,40.0560006 183.6208,39.944 C183.449066,39.8319994 183.3184,39.6714677 183.2288,39.4624 L181.7504,36.1024 L173.552,36.1024 L172.0736,39.4624 C171.983999,39.6714677 171.849601,39.8319994 171.6704,39.944 C171.491199,40.0560006 171.304534,40.112 171.1104,40.112 C170.811732,40.112 170.546668,40.0149343 170.3152,39.8208 C170.083732,39.6266657 169.968,39.3877348 169.968,39.104 C169.968,38.9845327 170.005333,38.8352009 170.08,38.656 L176.3968,24.8352 C176.501334,24.5962655 176.669332,24.4096007 176.9008,24.2752 C177.132268,24.1407993 177.374932,24.0736 177.6288,24.0736 C177.882668,24.0736 178.125332,24.1407993 178.3568,24.2752 C178.588268,24.4096007 178.756266,24.5962655 178.8608,24.8352 L185.1776,38.656 Z M174.3808,34.2656 L180.944,34.2656 L177.6512,26.8512 L174.3808,34.2656 Z M188.32,40.112 C187.991465,40.112 187.718934,40.0224009 187.5024,39.8432 C187.285866,39.6639991 187.1776,39.3952018 187.1776,39.0368 L187.1776,29.9424 C187.1776,29.5839982 187.285866,29.3114676 187.5024,29.1248 C187.718934,28.9381324 187.991465,28.8448 188.32,28.8448 C188.648535,28.8448 188.917332,28.9381324 189.1264,29.1248 C189.335468,29.3114676 189.44,29.5839982 189.44,29.9424 L189.44,39.0368 C189.44,39.3952018 189.335468,39.6639991 189.1264,39.8432 C188.917332,40.0224009 188.648535,40.112 188.32,40.112 Z M188.32,26.6496 C187.886931,26.6496 187.543468,26.5301345 187.2896,26.2912 C187.035732,26.0522655 186.9088,25.7386686 186.9088,25.3504 C186.9088,24.9621314 187.035732,24.6522678 187.2896,24.4208 C187.543468,24.1893322 187.886931,24.0736 188.32,24.0736 C188.738135,24.0736 189.077865,24.1893322 189.3392,24.4208 C189.600535,24.6522678 189.7312,24.9621314 189.7312,25.3504 C189.7312,25.7386686 189.604268,26.0522655 189.3504,26.2912 C189.096532,26.5301345 188.753069,26.6496 188.32,26.6496 Z M198.0928,28.8448 C198.809604,28.7999998 199.168,29.10613 199.168,29.7632 C199.168,30.091735 199.085867,30.3381325 198.9216,30.5024 C198.780799,30.6432007 198.55223,30.7346287 198.235886,30.7766857 L197.3984,30.8608 C196.457595,30.9504004 195.759469,31.2789305 195.304,31.8464 C194.848531,32.4138695 194.6208,33.100796 194.6208,33.9072 L194.6208,39.0368 C194.6208,39.3952018 194.516268,39.6639991 194.3072,39.8432 C194.098132,40.0224009 193.829335,40.112 193.5008,40.112 C193.172265,40.112 192.899734,40.0224009 192.6832,39.8432 C192.466666,39.6639991 192.3584,39.3952018 192.3584,39.0368 L192.3584,29.92 C192.3584,29.5765316 192.466666,29.3114676 192.6832,29.1248 C192.899734,28.9381324 193.172265,28.8448 193.5008,28.8448 C193.799468,28.8448 194.049599,28.9381324 194.2512,29.1248 C194.452801,29.3114676 194.5536,29.569065 194.5536,29.8976 L194.5536,30.9728 C194.852268,30.31573 195.28533,29.8154684 195.8528,29.472 C196.420269,29.1285316 197.062396,28.9269336 197.7792,28.8672 L198.0928,28.8448 Z M206.6112,38.3872 C206.939735,38.4170668 207.174933,38.5029326 207.3168,38.6448 C207.458667,38.7866674 207.5296,38.9845321 207.5296,39.2384 C207.5296,39.5370682 207.413868,39.7647992 207.1824,39.9216 C206.950932,40.0784008 206.611202,40.1418668 206.1632,40.112 L205.5584,40.0672 C204.348794,39.9775996 203.445336,39.6080032 202.848,38.9584 C202.250664,38.3087968 201.952,37.3493397 201.952,36.08 L201.952,30.816 L200.608,30.816 C199.95093,30.816 199.6224,30.5248029 199.6224,29.9424 C199.6224,29.6735987 199.708266,29.4608008 199.88,29.304 C200.051734,29.1471992 200.294398,29.0688 200.608,29.0688 L201.952,29.0688 L201.952,26.7616 C201.952,26.4181316 202.052799,26.1493343 202.2544,25.9552 C202.456001,25.7610657 202.728532,25.664 203.072,25.664 C203.415468,25.664 203.691732,25.7610657 203.9008,25.9552 C204.109868,26.1493343 204.2144,26.4181316 204.2144,26.7616 L204.2144,29.0688 L206.432,29.0688 C206.745601,29.0688 206.988266,29.1471992 207.16,29.304 C207.331734,29.4608008 207.4176,29.6735987 207.4176,29.9424 C207.4176,30.2261348 207.331734,30.4426659 207.16,30.592 C206.988266,30.7413341 206.745601,30.816 206.432,30.816 L204.2144,30.816 L204.2144,36.2368 C204.2144,36.9386702 204.359998,37.453865 204.6512,37.7824 C204.942401,38.110935 205.386664,38.2975998 205.984,38.3424 L206.6112,38.3872 Z M210.0672,40.112 C209.738665,40.112 209.466134,40.0224009 209.2496,39.8432 C209.033065,39.6639991 208.9248,39.3952018 208.9248,39.0368 L208.9248,29.9424 C208.9248,29.5839982 209.033065,29.3114676 209.2496,29.1248 C209.466134,28.9381324 209.738665,28.8448 210.0672,28.8448 C210.395735,28.8448 210.664532,28.9381324 210.8736,29.1248 C211.082668,29.3114676 211.1872,29.5839982 211.1872,29.9424 L211.1872,39.0368 C211.1872,39.3952018 211.082668,39.6639991 210.8736,39.8432 C210.664532,40.0224009 210.395735,40.112 210.0672,40.112 Z M210.0672,26.6496 C209.634131,26.6496 209.290668,26.5301345 209.0368,26.2912 C208.782932,26.0522655 208.656,25.7386686 208.656,25.3504 C208.656,24.9621314 208.782932,24.6522678 209.0368,24.4208 C209.290668,24.1893322 209.634131,24.0736 210.0672,24.0736 C210.485335,24.0736 210.825065,24.1893322 211.0864,24.4208 C211.347735,24.6522678 211.4784,24.9621314 211.4784,25.3504 C211.4784,25.7386686 211.351468,26.0522655 211.0976,26.2912 C210.843732,26.5301345 210.500269,26.6496 210.0672,26.6496 Z M226.6496,28.8 C229.098679,28.8 230.3232,30.2709186 230.3232,33.2128 L230.3232,39.0368 C230.3232,39.3802684 230.218668,39.6453324 230.0096,39.832 C229.800532,40.0186676 229.524268,40.112 229.1808,40.112 C228.852265,40.112 228.583468,40.0186676 228.3744,39.832 C228.165332,39.6453324 228.0608,39.3802684 228.0608,39.0368 L228.0608,33.2352 C228.0608,32.3242621 227.896535,31.6634687 227.568,31.2528 C227.239465,30.8421313 226.72427,30.6368 226.0224,30.6368 C225.201062,30.6368 224.551469,30.9167972 224.0736,31.4768 C223.595731,32.0368028 223.3568,32.8021285 223.3568,33.7728 L223.3568,39.0368 C223.3568,39.3802684 223.252268,39.6453324 223.0432,39.832 C222.834132,40.0186676 222.557868,40.112 222.2144,40.112 C221.885865,40.112 221.617068,40.0186676 221.408,39.832 C221.198932,39.6453324 221.0944,39.3802684 221.0944,39.0368 L221.0944,33.2352 C221.0944,32.3242621 220.930135,31.6634687 220.6016,31.2528 C220.273065,30.8421313 219.75787,30.6368 219.056,30.6368 C218.234662,30.6368 217.581336,30.9167972 217.096,31.4768 C216.610664,32.0368028 216.368,32.8021285 216.368,33.7728 L216.368,39.0368 C216.368,39.3802684 216.263468,39.6453324 216.0544,39.832 C215.845332,40.0186676 215.576535,40.112 215.248,40.112 C214.919465,40.112 214.646934,40.0186676 214.4304,39.832 C214.213865,39.6453324 214.1056,39.3802684 214.1056,39.0368 L214.1056,29.92 C214.1056,29.591465 214.217599,29.3301343 214.4416,29.136 C214.665601,28.9418657 214.934398,28.8448 215.248,28.8448 C215.561601,28.8448 215.819199,28.9381324 216.0208,29.1248 C216.222401,29.3114676 216.3232,29.569065 216.3232,29.8976 L216.3232,30.7264 C216.651735,30.0991969 217.107197,29.621335 217.6896,29.2928 C218.272003,28.964265 218.943996,28.8 219.7056,28.8 C220.541871,28.8 221.232531,28.9717316 221.7776,29.3152 C222.322669,29.6586684 222.729599,30.1887964 222.9984,30.9056 C223.326935,30.2634635 223.812263,29.7520019 224.4544,29.3712 C225.096536,28.9903981 225.828262,28.8 226.6496,28.8 Z M237.7888,28.8 C239.252274,28.8 240.409596,29.2703953 241.2608,30.2112 C242.112004,31.1520047 242.5376,32.4213253 242.5376,34.0192 C242.5376,34.6165363 242.268803,34.9152 241.7312,34.9152 L234.8096,34.9152 C234.958934,37.2298782 236.071456,38.3872 238.1472,38.3872 C238.699736,38.3872 239.177598,38.3125341 239.5808,38.1632 C239.984002,38.0138659 240.409598,37.8197345 240.8576,37.5808 L240.948992,37.5288321 C241.013503,37.4947842 241.106239,37.4486403 241.2272,37.3904 C241.428801,37.2933328 241.596799,37.2448 241.7312,37.2448 C241.940268,37.2448 242.111999,37.3269325 242.2464,37.4912 C242.380801,37.6554675 242.448,37.8645321 242.448,38.1184 C242.448,38.5514688 242.179203,38.9173318 241.6416,39.216 C241.118931,39.5146682 240.547736,39.7461325 239.928,39.9104 C239.308263,40.0746675 238.714669,40.1568 238.1472,40.1568 C236.414925,40.1568 235.048538,39.652805 234.048,38.6448 C233.047462,37.636795 232.5472,36.2592087 232.5472,34.512 C232.5472,33.3919944 232.767464,32.3989377 233.208,31.5328 C233.648535,30.6666623 234.268263,29.9946691 235.0672,29.5168 C235.866137,29.0389309 236.773328,28.8 237.7888,28.8 Z M237.8336,30.4576 C236.967462,30.4576 236.273069,30.7338639 235.7504,31.2864 C235.227731,31.8389361 234.914134,32.6154617 234.8096,33.616 L234.8096,33.616 L240.5888,33.616 C240.544,32.6005283 240.286402,31.8202694 239.816,31.2752 C239.345598,30.7301306 238.684804,30.4576 237.8336,30.4576 Z" id="+BuyAirtime" fill="#FFFFFF" fill-rule="nonzero"></path>
                            </g>
                        </g>
                    </g>
                </g>
            </g>
        </g>
    </g>
</svg>