<?xml version="1.0" encoding="UTF-8"?>
<svg width="709px" height="395px" viewBox="0 0 709 395" version="1.1" xmlns="http://www.w3.org/2000/svg" xmlns:xlink="http://www.w3.org/1999/xlink">
    <!-- Generator: Sketch 58 (84663) - https://sketch.com -->
    <title>Group 17</title>
    <desc>Created with Sketch.</desc>
    <defs>
        <radialGradient cx="64.9917296%" cy="60.9813594%" fx="64.9917296%" fy="60.9813594%" r="385.114765%" gradientTransform="translate(0.649917,0.609814),scale(0.186218,1.000000),rotate(-8.281078),translate(-0.649917,-0.609814)" id="radialGradient-1">
            <stop stop-color="#FFFFFF" offset="0%"></stop>
            <stop stop-color="#E0E3F0" offset="100%"></stop>
        </radialGradient>
        <rect id="path-2" x="0" y="0" width="413.4935" height="77" rx="18"></rect>
        <rect id="path-4" x="0.651521798" y="0.888635857" width="379" height="334" rx="14"></rect>
        <rect id="path-6" x="42" y="0" width="524.4" height="97.2" rx="14"></rect>
        <filter x="-21.7%" y="-104.9%" width="143.5%" height="334.6%" filterUnits="objectBoundingBox" id="filter-7">
            <feOffset dx="0" dy="12" in="SourceAlpha" result="shadowOffsetOuter1"></feOffset>
            <feGaussianBlur stdDeviation="36" in="shadowOffsetOuter1" result="shadowBlurOuter1"></feGaussianBlur>
            <feColorMatrix values="0 0 0 0 0.560784314   0 0 0 0 0.57254902   0 0 0 0 0.631372549  0 0 0 0.122568837 0" type="matrix" in="shadowBlurOuter1"></feColorMatrix>
        </filter>
        <rect id="path-8" x="0" y="0" width="69.6" height="69.6" rx="15.6"></rect>
        <filter x="-163.8%" y="-146.6%" width="427.6%" height="427.6%" filterUnits="objectBoundingBox" id="filter-9">
            <feOffset dx="0" dy="12" in="SourceAlpha" result="shadowOffsetOuter1"></feOffset>
            <feGaussianBlur stdDeviation="36" in="shadowOffsetOuter1" result="shadowBlurOuter1"></feGaussianBlur>
            <feColorMatrix values="0 0 0 0 0.560784314   0 0 0 0 0.57254902   0 0 0 0 0.631372549  0 0 0 0.122568837 0" type="matrix" in="shadowBlurOuter1"></feColorMatrix>
        </filter>
        <rect id="path-10" x="0" y="0" width="69.6" height="69.6" rx="15.6"></rect>
        <filter x="-163.8%" y="-146.6%" width="427.6%" height="427.6%" filterUnits="objectBoundingBox" id="filter-11">
            <feOffset dx="0" dy="12" in="SourceAlpha" result="shadowOffsetOuter1"></feOffset>
            <feGaussianBlur stdDeviation="36" in="shadowOffsetOuter1" result="shadowBlurOuter1"></feGaussianBlur>
            <feColorMatrix values="0 0 0 0 0.560784314   0 0 0 0 0.57254902   0 0 0 0 0.631372549  0 0 0 0.122568837 0" type="matrix" in="shadowBlurOuter1"></feColorMatrix>
        </filter>
        <rect id="path-12" x="0" y="0" width="69.6" height="69.6" rx="15.6"></rect>
        <filter x="-163.8%" y="-146.6%" width="427.6%" height="427.6%" filterUnits="objectBoundingBox" id="filter-13">
            <feOffset dx="0" dy="12" in="SourceAlpha" result="shadowOffsetOuter1"></feOffset>
            <feGaussianBlur stdDeviation="36" in="shadowOffsetOuter1" result="shadowBlurOuter1"></feGaussianBlur>
            <feColorMatrix values="0 0 0 0 0.560784314   0 0 0 0 0.57254902   0 0 0 0 0.631372549  0 0 0 0.122568837 0" type="matrix" in="shadowBlurOuter1"></feColorMatrix>
        </filter>
        <linearGradient x1="48.0479248%" y1="24.9447096%" x2="54.4538187%" y2="70.0343741%" id="linearGradient-14">
            <stop stop-color="#123214" offset="0%"></stop>
            <stop stop-color="#3E7C37" offset="46%"></stop>
            <stop stop-color="#5FBB46" offset="91%"></stop>
        </linearGradient>
        <linearGradient x1="63.4083987%" y1="6.88076318%" x2="63.4083987%" y2="77.5858385%" id="linearGradient-15">
            <stop stop-color="#FFFFFF" stop-opacity="0" offset="0%"></stop>
            <stop stop-color="#FFFFFF" stop-opacity="0.43" offset="64%"></stop>
            <stop stop-color="#FFFFFF" stop-opacity="0.42" offset="100%"></stop>
        </linearGradient>
        <radialGradient cx="52.4616451%" cy="52.6255858%" fx="52.4616451%" fy="52.6255858%" r="94.2216859%" gradientTransform="translate(0.524616,0.526256),scale(0.615915,1.000000),rotate(26.760599),translate(-0.524616,-0.526256)" id="radialGradient-16">
            <stop stop-color="#FFFFFF" offset="13%"></stop>
            <stop stop-color="#FFFFFF" stop-opacity="0.69" offset="29%"></stop>
            <stop stop-color="#FFFFFF" stop-opacity="0.4" offset="45%"></stop>
            <stop stop-color="#FFFFFF" stop-opacity="0.18" offset="59%"></stop>
            <stop stop-color="#FFFFFF" stop-opacity="0.05" offset="69%"></stop>
            <stop stop-color="#FFFFFF" stop-opacity="0" offset="74%"></stop>
        </radialGradient>
        <radialGradient cx="59.1924303%" cy="32.6138519%" fx="59.1924303%" fy="32.6138519%" r="61.5828593%" gradientTransform="translate(0.591924,0.326139),scale(0.922591,1.000000),rotate(39.840000),translate(-0.591924,-0.326139)" id="radialGradient-17">
            <stop stop-color="#000000" stop-opacity="0" offset="86%"></stop>
            <stop stop-color="#000000" stop-opacity="0.47" offset="98%"></stop>
            <stop stop-color="#000000" offset="100%"></stop>
        </radialGradient>
        <rect id="path-18" x="0" y="0" width="69.6" height="69.6" rx="15.6"></rect>
        <filter x="-163.8%" y="-146.6%" width="427.6%" height="427.6%" filterUnits="objectBoundingBox" id="filter-19">
            <feOffset dx="0" dy="12" in="SourceAlpha" result="shadowOffsetOuter1"></feOffset>
            <feGaussianBlur stdDeviation="36" in="shadowOffsetOuter1" result="shadowBlurOuter1"></feGaussianBlur>
            <feColorMatrix values="0 0 0 0 0.560784314   0 0 0 0 0.57254902   0 0 0 0 0.631372549  0 0 0 0.122568837 0" type="matrix" in="shadowBlurOuter1"></feColorMatrix>
        </filter>
        <rect id="path-20" x="0" y="0" width="437" height="81" rx="7"></rect>
        <filter x="-21.7%" y="-104.9%" width="143.5%" height="334.6%" filterUnits="objectBoundingBox" id="filter-21">
            <feOffset dx="0" dy="10" in="SourceAlpha" result="shadowOffsetOuter1"></feOffset>
            <feGaussianBlur stdDeviation="30" in="shadowOffsetOuter1" result="shadowBlurOuter1"></feGaussianBlur>
            <feColorMatrix values="0 0 0 0 0.560784314   0 0 0 0 0.57254902   0 0 0 0 0.631372549  0 0 0 0.122568837 0" type="matrix" in="shadowBlurOuter1"></feColorMatrix>
        </filter>
        <rect id="path-22" x="0" y="0" width="58" height="58" rx="13"></rect>
        <filter x="-163.8%" y="-146.6%" width="427.6%" height="427.6%" filterUnits="objectBoundingBox" id="filter-23">
            <feOffset dx="0" dy="10" in="SourceAlpha" result="shadowOffsetOuter1"></feOffset>
            <feGaussianBlur stdDeviation="30" in="shadowOffsetOuter1" result="shadowBlurOuter1"></feGaussianBlur>
            <feColorMatrix values="0 0 0 0 0.560784314   0 0 0 0 0.57254902   0 0 0 0 0.631372549  0 0 0 0.122568837 0" type="matrix" in="shadowBlurOuter1"></feColorMatrix>
        </filter>
        <linearGradient x1="100%" y1="50%" x2="0%" y2="50%" id="linearGradient-24">
            <stop stop-color="#6122D3" offset="0%"></stop>
            <stop stop-color="#320FA8" offset="100%"></stop>
        </linearGradient>
        <rect id="path-25" x="0" y="0" width="349.6" height="64.8" rx="5.6"></rect>
        <filter x="-21.7%" y="-104.9%" width="143.5%" height="334.6%" filterUnits="objectBoundingBox" id="filter-26">
            <feOffset dx="0" dy="8" in="SourceAlpha" result="shadowOffsetOuter1"></feOffset>
            <feGaussianBlur stdDeviation="24" in="shadowOffsetOuter1" result="shadowBlurOuter1"></feGaussianBlur>
            <feColorMatrix values="0 0 0 0 0.560784314   0 0 0 0 0.57254902   0 0 0 0 0.631372549  0 0 0 0.122568837 0" type="matrix" in="shadowBlurOuter1"></feColorMatrix>
        </filter>
    </defs>
    <g id="Iteration-2" stroke="none" stroke-width="1" fill="none" fill-rule="evenodd">
        <g id="Developers" transform="translate(-40.000000, -1771.000000)">
            <g id="Group-6-Copy" transform="translate(88.000000, 1678.000000)">
                <g id="Block" transform="translate(23.000000, 29.000000)">
                    <g id="Group-17" transform="translate(0.000000, 75.000000)">
                        <g id="Group-19" transform="translate(98.000000, 0.000000)">
                            <g id="Group-13-Copy-2">
                                <g id="Group-9" transform="translate(0.348478, 0.111364)">
                                    <mask id="mask-3" fill="white">
                                        <use xlink:href="#path-2"></use>
                                    </mask>
                                    <use id="Rectangle" fill="url(#radialGradient-1)" xlink:href="#path-2"></use>
                                </g>
                            </g>
                        </g>
                        <g id="Group-19" transform="translate(0.000000, 14.000000)">
                            <g id="Group-9" transform="translate(115.000000, 0.000000)">
                                <mask id="mask-5" fill="white">
                                    <use xlink:href="#path-4"></use>
                                </mask>
                                <use id="Rectangle" fill="#FFFFFF" xlink:href="#path-4"></use>
                            </g>
                            <g id="Group-20" transform="translate(0.000000, 34.000000)">
                                <g id="Rectangle">
                                    <use fill="black" fill-opacity="1" filter="url(#filter-7)" xlink:href="#path-6"></use>
                                    <use fill="#FFFFFF" fill-rule="evenodd" xlink:href="#path-6"></use>
                                </g>
                                <g id="Group-18" transform="translate(232.200000, 14.400000)">
                                    <g id="Rectangle-Copy-6">
                                        <use fill="black" fill-opacity="1" filter="url(#filter-9)" xlink:href="#path-8"></use>
                                        <use fill="#FFFFFF" fill-rule="evenodd" xlink:href="#path-8"></use>
                                    </g>
                                    <g id="9mobile-Logo" transform="translate(22.800000, 15.600000)">
                                        <path d="M4.3472,35.1688 C4.86026667,35.1688 5.2352,35.2774667 5.472,35.4948 C5.7088,35.7121333 5.82733333,36.0501333 5.8276,36.5088 L5.8276,38.9672 L5.058,38.9672 L5.058,36.6128 C5.058,36.0944 4.76733333,35.8352 4.186,35.8352 C3.93489453,35.8331114 3.68837282,35.902476 3.4752,36.0352 C3.51208118,36.1902974 3.52941576,36.3493993 3.5268,36.5088 L3.5268,38.9672 L2.7572,38.9672 L2.7572,36.6128 C2.7572,36.0944 2.46653333,35.8352 1.8852,35.8352 C1.61994273,35.8354416 1.35686702,35.8831258 1.1084,35.976 L1.1084,38.9672 L0.3392,38.9672 L0.3392,35.554 C0.593865693,35.4273852 0.863449213,35.3333132 1.1416,35.274 C1.43829258,35.2048305 1.74175826,35.1688761 2.0464,35.1668 C2.5264,35.1668 2.88306667,35.2601333 3.1164,35.4468 C3.50070185,35.2632198 3.92130182,35.1682192 4.3472,35.1688 L4.3472,35.1688 Z M8.4644,39.08 C7.87773333,39.08 7.4368,38.9121333 7.1416,38.5764 C6.8464,38.2406667 6.69866667,37.752 6.6984,37.1104 C6.6984,35.812 7.28506667,35.1629333 8.4584,35.1631999 C9.0496,35.1631999 9.49413333,35.3297333 9.792,35.6628 C10.0898667,35.9958667 10.2389333,36.4784 10.2392,37.1104 C10.2392,37.7418667 10.0853333,38.228 9.7776,38.5688 C9.46986667,38.9096 9.03213333,39.08 8.4644,39.08 Z M8.4568,38.4208 C9.1312,38.4208 9.46826667,37.984 9.46800016,37.1104 C9.46800016,36.676 9.388,36.3514667 9.228,36.1368 C9.068,35.9221333 8.81146667,35.8146667 8.4584,35.8144 C8.10186667,35.8144 7.84666667,35.9242667 7.6928,36.144 C7.53893333,36.3637333 7.462,36.6858667 7.462,37.1104 C7.462,37.5346667 7.54133333,37.8592 7.7,38.084 C7.85866667,38.3088 8.11093333,38.4205333 8.4568,38.4192 L8.4568,38.4208 Z M12.8084,35.1704 C13.3556,35.1704 13.7708,35.3357333 14.054,35.6664 C14.3372,35.9970667 14.4792,36.4654667 14.48,37.0716 C14.48,37.8022667 14.3102667,38.3193333 13.9708,38.6228 C13.6313333,38.9262667 13.1998667,39.0786667 12.6764,39.08 C11.626,39.08 11.1008,38.7986667 11.1008,38.236 L11.1008,33.762 L11.8632,33.762 L11.8632,35.4 C12.0165065,35.3267404 12.1775002,35.2707951 12.3432,35.2332 C12.4953215,35.1941553 12.6513924,35.1725496 12.8084,35.1688 L12.8084,35.1704 Z M12.6176,38.406 C13.0176,38.406 13.2976,38.29 13.4576,38.058 C13.6176,37.826 13.6976,37.5076 13.6976,37.1028 C13.6976,36.6884 13.6133333,36.3725333 13.4448,36.1552 C13.2762667,35.9378667 13.026,35.8293333 12.694,35.8295995 C12.5493593,35.8305762 12.4053722,35.8491118 12.2652,35.8848 C12.1248879,35.9186882 11.9901765,35.9725728 11.8651947,36.0448 L11.8651947,38.0448 C11.8638667,38.2848 12.1146667,38.4046667 12.6176,38.4044 L12.6176,38.406 Z M15.3496,33.956 L16.1704,33.956 L16.1704,34.6596 L15.3496,34.6596 L15.3496,33.956 Z M15.3716,35.274 L16.1412,35.274 L16.1484,38.9688 L15.3716,38.9688 L15.3716,35.274 Z M17.2316,38.9688 L17.2316,33.8436 L17.994,33.8436 L17.994,38.9672 L17.2316,38.9688 Z M20.572,35.16 C21.1437333,35.16 21.5626667,35.3466667 21.8288,35.72 C22.0949333,36.0933333 22.2256,36.6153333 22.2208,37.286 L19.64,37.286 C19.6648,37.6513333 19.7714667,37.9290667 19.96,38.1192 C20.1485333,38.3093333 20.416,38.4042667 20.7624,38.404 C21.1773918,38.4044404 21.585766,38.3000078 21.9496,38.1004 L21.9496,38.826 C21.5685333,38.9953333 21.132,39.08 20.64,39.08 C20.088,39.08 19.6544,38.9109333 19.3392,38.5728 C19.024,38.2346667 18.8665333,37.7546667 18.8667997,37.1328 C18.8667997,36.496 19.0157333,36.0086667 19.3136,35.6708 C19.6114667,35.3329333 20.0309333,35.1626667 20.572,35.16 Z M20.55,35.8 C20.2910667,35.8 20.0884,35.8692 19.942,36.0076 C19.7956,36.146 19.7002667,36.3804 19.656,36.7108 L21.4368,36.7108 C21.4024,36.3948 21.3144,36.1641333 21.1728,36.0188 C21.0312,35.8734667 20.8236,35.8005333 20.55,35.8 Z M13.2,5.3384 C12.3512,5.12853333 11.6978667,5.02346667 11.24,5.0232 C7.8244,5.0232 5.0552,7.7832 5.0552,11.1868 C5.0552,14.5904 7.8256,17.3508 11.24,17.3508 C14.6544,17.3508 17.4252,14.5908 17.4252,11.1868 C17.4254395,10.6895399 17.3655379,10.1940758 17.2468,9.7112 L22.164,8.3868 C22.9695523,11.4492695 22.4366549,14.7097582 20.698,17.3564 L12.5556,32.452 L5.0124,32.452 L10.3724,22.572 C10.4016,22.5176 10.3156,22.3976 10.2436,22.3912 C4.516,21.8712 0.0296,17.0712 0.0296,11.2276 C0.0296,5.036 5.0656,0.0171931863 11.2784,0.0171931863 C12.4156972,0.0159495564 13.546635,0.186817456 14.6328,0.524 L13.2,5.3384 Z" id="Shape" fill="#006E53"></path>
                                        <circle id="Oval" fill="#D6E806" fill-rule="nonzero" cx="11.2028" cy="11.1868" r="3.39"></circle>
                                        <path d="M17.0584,8.8756 C16.4711004,7.40543014 15.3391404,6.21859159 13.8984,5.5624 M19.216,7.9508 C18.3865471,5.91179446 16.8182053,4.26088585 14.8244,3.328 M21.2964,7.2576 C20.2398836,4.56951254 18.1622731,2.40892425 15.5176,1.248" id="Shape" stroke="#D6E806" stroke-width="0.770478571" stroke-linecap="round"></path>
                                    </g>
                                </g>
                                <g id="Group-18-Copy" transform="translate(156.200000, 14.400000)">
                                    <g id="Rectangle-Copy-6">
                                        <use fill="black" fill-opacity="1" filter="url(#filter-11)" xlink:href="#path-10"></use>
                                        <use fill="#FFFFFF" fill-rule="evenodd" xlink:href="#path-10"></use>
                                    </g>
                                    <g id="Airtel-Nigeria-Logo" transform="translate(17.800000, 14.600000)" fill="#E20010" fill-rule="nonzero">
                                        <path d="M21.596,0.0104 C22.92,0.0288 24.1832,0.28 25.3628,0.88 C26.4028,1.4124 27.2508,2.1568 27.8296,3.1828 C28.2057617,3.86011105 28.4525011,4.60155033 28.5572,5.3692 C28.7724,6.8428 28.5548,8.2684 28.0688,9.6624 C27.7832,10.48 27.388,11.2468 26.96,12 C26.088,13.5332 24.9676,14.862 23.6644,16.04 C21.9924405,17.5528052 20.1589933,18.8769168 18.1972,19.9884 C17.4372,20.4176 16.6492,20.778 15.8016,20.9984 C15.2823507,21.1386451 14.7462164,21.2064863 14.2084,21.2 C13.5004,21.1856 12.9464,20.8632 12.5156,20.32 C12.1177921,19.8324746 11.9128237,19.2158615 11.9396,18.5872 C11.9442839,18.4123148 11.969524,18.2385877 12.0148,18.0696 C12.2712,17.1588 12.6196,16.2864 13.1404,15.4908 C13.5384,14.8832 14.0128,14.3436 14.6332,13.9576 C15.3232,13.528 16.0732,13.3444 16.8844,13.5216 C17.138009,13.5810516 17.3766846,13.692016 17.5856,13.8476 C18.1196,14.2292 18.0916,14.828 17.8352,15.2104 C17.6155431,15.5427148 17.3699794,15.8571595 17.1008,16.1508 C16.6448,16.642 16.1604,17.1064 15.6876,17.5816 C15.2692,18.002 14.876,18.4432 14.5572,18.946 C14.392,19.2068 14.2396,19.4728 14.194,19.786 C14.1364,20.1788 14.3404,20.4464 14.7368,20.4832 C14.941898,20.4999356 15.1483293,20.4791975 15.346,20.422 C15.9552,20.2536 16.5208,19.982 17.0764,19.6892 C17.9332,19.236 18.724,18.682 19.4948,18.0976 C20.4292,17.3892 21.3376,16.6504 22.1748,15.8288 C23.1284,14.894 23.9784,13.878 24.6288,12.7056 C25.104,11.8496 25.454,10.9456 25.6096,9.976 C25.7472,9.122 25.6704,8.29 25.2748,7.506 C25.0842959,7.11848562 24.7863065,6.79397436 24.4164,6.5712 C24.2456018,6.46837971 24.0572167,6.39812523 23.8608,6.364 C23.146,6.2372 22.4544,6.3412 21.7748,6.568 C21.0664,6.8048 20.4092,7.1504 19.7704,7.528 C18.384,8.3504 16.996,9.1724 15.6748,10.0984 C15.0124,10.5624 14.3704,11.056 13.7212,11.5384 C13.1348,11.9744 12.5524,12.4156 11.9116,12.772 C11.3915766,13.068115 10.8287443,13.2817241 10.2432,13.4052 C9.5176,13.5524 8.8488,13.4156 8.2344,13.0212 C7.5968,12.612 7.1504,12.0504 6.9544,11.3072 C6.8296,10.838 6.8788,10.3728 6.9864,9.9096 C7.1436,9.2296 7.442,8.6136 7.814,8.0296 C8.734,6.5872 9.8908,5.3636 11.236,4.3176 C13.2296,2.7676 15.4232,1.574 17.796,0.7104 C19.0142225,0.264788742 20.2989567,0.0281271708 21.596,0.0104 Z" id="Path"></path>
                                        <path d="M5.1944,32.988 C5.1876,32.5352 5.136,32.128 4.8744,31.7748 C4.74701058,31.6041309 4.57064745,31.4763235 4.3688,31.4084 C3.8488,31.222 3.3192,31.244 2.8028,31.4036 C2.3888,31.5316 1.9896,31.706 1.5844,31.8616 C1.5044,31.8912 1.4316,31.9292 1.3348,31.9724 C1.144,31.4992 0.9564,31.04 0.76,30.56 C1.0444,30.4252 1.3124,30.2876 1.5888,30.1696 C2.2256,29.8972 2.886,29.7104 3.5804,29.6684 C4.2748,29.6264 4.96,29.6632 5.592,30 C6.3068,30.3784 6.8228,30.9248 7.0388,31.72 C7.06996395,31.8240829 7.08862857,31.9315052 7.0944,32.04 C7.122,33.0724 7.1592,34.1048 7.1636,35.1372 C7.1664,35.8428 7.12,36.5488 7.0992,37.2548 C7.09548318,37.3515973 7.05516879,37.4433769 6.9864,37.5116 C6.4924,38.0556 5.888,38.4316 5.2032,38.684 C4.46887275,38.9519483 3.68686419,39.0643254 2.9068,39.014 C2.1868,38.974 1.5652,38.6792 1.0396,38.19 C0.514,37.7008 0.1468,37.11 0.0444,36.386 C-0.0956,35.3944 0.1904,34.534 0.9032,33.826 C1.3616,33.3708 1.9264,33.1356 2.5628,33.0524 C3.2668,32.9608 3.9732,32.9852 4.6796,32.9872 L5.1944,32.988 Z M5.102,34.6 C5.06050623,34.5918123 5.01856734,34.5860691 4.9764,34.5828 C4.7364,34.578 4.4936,34.5696 4.2524,34.5732 C3.9632,34.5776 3.6728,34.5788 3.3852,34.606 C3.088,34.6344 2.7996,34.7212 2.5692,34.9196 C2.1868,35.2492 2.0732,35.6796 2.1664,36.1648 C2.2824,36.7648 2.6176,37.184 3.2152,37.3624 C3.52333299,37.454565 3.84960543,37.4683144 4.1644,37.4024 C4.45700071,37.3488469 4.72992098,37.2179114 4.9548,37.0232 C5.031826,36.963463 5.07923307,36.8733166 5.0848,36.776 C5.094,36.5652 5.1212,36.3548 5.1228,36.144 C5.126,35.6612 5.1188,35.1784 5.1148,34.6956 C5.11240275,34.6635108 5.10812877,34.6315895 5.102,34.6 Z" id="Shape"></path>
                                        <path d="M29.2532,34.56 C27.5372,34.56 25.8532,34.5232 24.1456,34.568 C24.1544,34.688 24.1596,34.8016 24.1704,34.9124 C24.2144,35.3656 24.312,35.806 24.5036,36.2216 C24.6525772,36.5605931 24.8838377,36.8570246 25.1764,37.084 C25.6404,37.4364 26.17,37.494 26.7256,37.4224 C27.1848,37.3632 27.6124,37.1952 28.0388,37.026 C28.2344,36.9488 28.4284,36.866 28.6388,36.78 C28.8388,37.1984 29.0348,37.6096 29.2388,38.0328 C29.2012,38.06 29.166,38.0904 29.1268,38.1128 C28.2948,38.6064 27.4012,38.9244 26.436,39.0084 C25.556,39.0848 24.716,38.9404 23.956,38.4536 C23.4384,38.122 23.076,37.6536 22.7728,37.1296 C22.3993765,36.477673 22.1732785,35.7518657 22.1104,35.0032 C21.9834667,33.6381333 22.2733333,32.3672 22.98,31.1904 C23.4728,30.3724 24.2084,29.928 25.1292,29.7748 C25.9755929,29.625972 26.8474304,29.7710665 27.6,30.186 C28.0216,30.4144 28.3152,30.774 28.5572,31.1772 C28.8772,31.7088 29.0456,32.2948 29.1264,32.902 C29.192,33.3916 29.2128,33.8872 29.252,34.382 C29.2568,34.4328 29.2532,34.4856 29.2532,34.56 Z M27.1732,33.006 C27.0736,32.5496 27.0056,32.0832 26.7068,31.6964 C26.55695,31.5041582 26.3464762,31.3682595 26.1096,31.3108 C25.4796,31.144 24.8464,31.4344 24.5756,32.0308 C24.4788,32.2432 24.422,32.474 24.3516,32.6976 C24.32,32.7988 24.2996,32.904 24.2744,33.006 C24.4436,33.0508 27,33.0528 27.174,33.0072 L27.1732,33.006 Z" id="Shape"></path>
                                        <path d="M17.996,27.5884 L20.0436,27.2716 L20.0436,29.7864 C20.498,29.8136 20.9308,29.784 21.366,29.8308 L21.366,31.38 C20.926,31.3872 20.4952,31.374 20.046,31.4012 C20.046,31.4884 20.046,31.5536 20.046,31.6188 C20.0422667,33.11 20.0390667,34.6013333 20.0364,36.0928 C20.0364,36.3276 20.0552,36.5628 20.0764,36.7968 C20.11,37.1568 20.3096,37.3852 20.6584,37.4728 C20.8508,37.5216 21.0484,37.5492 21.2436,37.5864 L21.4396,37.6264 L21.4396,38.9412 C21.4175751,38.952092 21.3941551,38.9598987 21.37,38.9644 C20.7888,38.9904 20.21,38.9752 19.648,38.8044 C19.0992,38.6388 18.6416,38.3388 18.3312,37.8444 C18.1548,37.5644 18.0652,37.2496 18.0264,36.9244 C18.002947,36.7207151 17.9914606,36.51583 17.9919819,36.3108 C17.9919819,33.4788 17.9936,30.6470667 17.9968,27.8156 L17.996,27.5884 Z" id="Path"></path>
                                        <path d="M30.3788,27.59 L32.3588,27.2468 L32.3588,27.52 C32.3588,30.092 32.3598667,32.664 32.362,35.236 C32.362,35.7068 32.366,36.1776 32.3696,36.6488 C32.3728,37.1136 32.5424,37.3504 32.9864,37.4888 C33.1372837,37.5305185 33.2904787,37.5633746 33.4452,37.5872 C33.5396,37.6048 33.6352,37.6132 33.75,37.6272 L33.75,38.9704 C33.7393368,38.9792372 33.726722,38.9854074 33.7132,38.9884 C33.1508,39.0112 32.5908,39.002 32.044,38.842 C31.7126758,38.7466328 31.4041732,38.5849649 31.1372,38.3668 C30.64,37.96 30.4376,37.4148 30.3856,36.8 C30.3704,36.62 30.3724,36.438 30.3728,36.2572 C30.3728,33.4436 30.3748,30.6302667 30.3788,27.8172 L30.3788,27.59 Z" id="Path"></path>
                                        <path d="M14.0152,38.8516 L12.0152,38.8516 C12.0128,38.768 12.0088,38.6916 12.0084,38.616 C12.0062667,37.4144 12.0045333,36.2128 12.0032,35.0112 C12.0008,34.0512 11.9948,33.0912 11.9951809,32.1312 C11.9958318,31.957123 12.0092009,31.7833256 12.0352,31.6112 C12.0648,31.4148 12.1676,31.2512 12.3104,31.1132 C13.096,30.3484 14.0372,29.89 15.1104,29.6924 C15.7829759,29.5690716 16.4722872,29.5681231 17.1452,29.6896 C17.1808,29.696 17.2164,29.704 17.2512,29.7128 C17.2684,29.7172 17.2848,29.7256 17.318,29.7384 C17.0908,30.316 16.814,30.868 16.5532,31.4136 C16.2416,31.4136 15.9464,31.4044 15.652,31.4156 C15.1435901,31.4324785 14.6445141,31.5568045 14.1876,31.7804 C14.058,31.844 14.0096,31.9232 14.01,32.0724 C14.0156,34.2590667 14.0169333,36.4457333 14.014,38.6324 L14.0152,38.8516 Z" id="Path"></path>
                                        <path d="M10.54,29.8712 C10.5612,32.868 10.538,35.8472 10.5572,38.8448 L8.6,38.8448 C8.5952,38.7724 8.5856,38.6968 8.5856,38.6212 C8.5856,36.7372 8.5856,34.8529333 8.5856,32.9684 C8.5856,32.1048 8.5928,31.2412 8.5964,30.3776 C8.5964,30.312 8.5964,30.2464 8.5964,30.164 L10.54,29.8712 Z" id="Path"></path>
                                        <path d="M9.48,28.989205 C8.5244,28.9868 7.926,28.0356 8.3224,27.1376 C8.566,26.5868 8.9844,26.3776 9.588,26.3812 C10.3968,26.388 10.9964,27.1924 10.8036,27.9784 C10.6496,28.6064 10.1456,28.9908 9.48,28.989205 Z" id="Path"></path>
                                    </g>
                                </g>
                                <g id="Group-18-Copy-3" transform="translate(76.200000, 14.400000)">
                                    <g id="Rectangle-Copy-6">
                                        <use fill="black" fill-opacity="1" filter="url(#filter-13)" xlink:href="#path-12"></use>
                                        <use fill="#FFFFFF" fill-rule="evenodd" xlink:href="#path-12"></use>
                                    </g>
                                    <g id="Globacom-Limited-Logo" transform="translate(12.000000, 12.000000)">
                                        <circle id="Oval" fill="#50B651" fill-rule="nonzero" cx="22.48752" cy="22.55712" r="19.28592"></circle>
                                        <path d="M41.7144,22.50288 C41.7144,33.18768 33.0528,41.84928 22.3704,41.84928 C11.688,41.84928 3.024,33.18768 3.024,22.50288 C3.024,17.77632 3.15648,17.0736 5.01696,14.38272 C5.01696,14.38272 4.92096,17.42208 7.1496,19.23072 C8.53536,20.3544 9.9816,19.5432 12.6288,18.324 C15.49248,17.004 17.82048,16.15248 19.6368,16.37712 C22.3728,16.716 30.80592,21.78048 35.20704,20.772 C38.72304,19.968 38.352,11.6784 38.352,11.6784 C42.192,15.42816 41.7144,17.96256 41.7144,22.50288 Z" id="Path" fill="url(#linearGradient-14)" opacity="0.662999988"></path>
                                        <path d="M30.672,36.71328 C37.6688,30.13184 38.83184,22.592 34.16112,14.09376 C34.1848,14.11104 34.47376,13.11392 35.028,11.1024 C37.51376,14.11264 38.83552,17.82816 38.99328,22.24896 C38.992,27.97504 36.21824,32.79648 30.672,36.71328 Z" id="Path" fill="url(#linearGradient-15)" opacity="0.586000025"></path>
                                        <path d="M27.35328,11.14224 C23.976,9.27312 20.10144,5.51328 20.61648,4.72368 C21.13152,3.93408 27.81648,4.06992 31.19424,5.93904 C34.572,7.80816 37.44672,13.41504 36.93216,14.20464 C36.4176,14.99424 30.73056,13.01136 27.35328,11.14224 Z" id="Path" fill="url(#radialGradient-16)" opacity="0.744000018"></path>
                                        <path d="M30.2952,27.30672 C27.49344,27.30672 25.22208,24.97056 25.22208,22.08912 C25.22208,19.20768 27.49344,16.872 30.2952,16.872 C33.09696,16.872 35.3688,19.20768 35.3688,22.08912 C35.3688,24.97056 33.09744,27.30672 30.2952,27.30672 Z M30.3312,25.65168 C32.07984,25.65168 33.4992,24.05664 33.4992,22.08912 C33.4992,20.1216 32.07984,18.528 30.3312,18.528 C28.58256,18.528 27.1632,20.12304 27.1632,22.09008 C27.1632,24.05712 28.58256,25.65168 30.3312,25.65168 Z" id="Shape" fill="#FFFFFF"></path>
                                        <polygon id="Path" fill="#FFFFFF" points="19.82784 12.67104 23.48352 12.67104 23.48352 27.24864 21.47664 27.24864 21.47664 14.26992 19.82784 14.26992"></polygon>
                                        <path d="M17.10336,17.02032 L19.0008,17.02032 L19.0008,29.19408 C19.0008,30.30336 17.83392,31.45872 16.6968,31.956 C16.1592,32.19088 15.1672,32.3304 13.7208,32.37456 L13.7208,31.16352 C15.13552,31.00576 16.0904,30.69104 16.58544,30.21936 C16.871097,29.8223999 17.0496378,29.3585246 17.10384,28.87248 L17.10384,25.296 C16.59664,26.37216 15.95792,27.0856 15.18768,27.43632 C14.38704,27.86832 12.75744,27.79728 12.09216,27.43632 C11.42688,27.07536 10.45104,26.12496 10.00368,24.70944 C9.87984,24.31872 9.57168,23.25552 9.60384,22.12896 C9.63264,21.05616 9.98784,19.92096 10.28304,19.4544 C10.78992,18.6576 11.58912,17.65968 12.79968,17.24256 C13.39104,17.03872 14.48704,16.96544 16.08768,17.02272 L16.08768,18.22704 C14.89824,18.14672 14.15616,18.18688 13.86144,18.34752 C13.41936,18.58752 12.42144,18.88368 12.09216,21.05856 C11.76288,23.23344 12.10176,25.01328 13.14576,25.57056 C13.50336,25.76256 14.136,25.9896 14.72064,25.78944 C15.84384,25.40544 16.9008,24.036 16.98144,23.10816 C17.06272,22.16672 17.10336,20.13744 17.10336,17.02032 Z" id="Path" fill="#FFFFFF"></path>
                                        <path d="M41.10816,26.37504 C39.31632,35.00304 31.67088,41.48592 22.512,41.48592 C12.02256,41.48592 3.51888,32.98224 3.51888,22.4928 C3.51888,15.97632 6.80064,10.2264 11.80128,6.8064 C7.73808,10.176 5.15088,15.2664 5.15088,20.95872 C5.15088,31.11216 13.38192,39.34272 23.53488,39.34272 C31.80336,39.34272 38.796,33.88464 41.10816,26.37504 Z" id="Path" fill="url(#radialGradient-17)"></path>
                                        <path d="M22.512,0 C10.0896,0 0.01872,10.0704 0.01872,22.4928 C0.01872,34.9152 10.0896,44.98608 22.512,44.98608 C34.9344,44.98608 45.00528,34.9152 45.00528,22.4928 C45.00528,10.0704 34.9344,0 22.512,0 Z M22.512,41.4864 C12.02256,41.4864 3.51888,32.98272 3.51888,22.49328 C3.51888,15.9768 6.80064,10.22688 11.80128,6.80688 C14.9550225,4.6469123 18.6894985,3.49380037 22.512,3.49965763 C33.00144,3.49965763 41.5051226,12.00288 41.5051226,22.4928 C41.5058027,23.7970444 41.3727875,25.0979236 41.10816,26.37504 C39.31632,35.00304 31.67088,41.48592 22.512,41.48592 L22.512,41.4864 Z" id="Shape" fill="#FFFFFF"></path>
                                    </g>
                                </g>
                                <g id="Group-18-Copy-2" transform="translate(0.200000, 14.400000)">
                                    <g id="Rectangle-Copy-6">
                                        <use fill="black" fill-opacity="1" filter="url(#filter-19)" xlink:href="#path-18"></use>
                                        <use fill="#FFFFFF" fill-rule="evenodd" xlink:href="#path-18"></use>
                                    </g>
                                    <g id="MTN-Logo" transform="translate(13.000000, 13.000000)">
                                        <rect id="Rectangle" fill="#FFC325" fill-rule="nonzero" x="0" y="0" width="43" height="43"></rect>
                                        <path d="M1,22.0004317 C1,17.5821282 10.4020417,14 22,14 C33.5979583,14 43,17.5829916 43,22.0008634 C43,26.4187352 33.5984003,30 22,30 C10.4015997,30 1,26.4183035 1,22.0004317 Z" id="Path" fill="#006891" fill-rule="nonzero"></path>
                                        <path d="M1,22.0004317 C1,17.5821282 10.4020417,14 22,14 C33.5979583,14 43,17.5829916 43,22.0008634 C43,26.4187352 33.5984003,30 22,30 C10.4015997,30 1,26.4183035 1,22.0004317 Z" id="Path" stroke="#006891" stroke-width="0.5"></path>
                                        <polygon id="Path" fill="#FFFFFF" points="9 25 11.0901314 17 14.3891565 17 14.3891565 21.7051665 14.4107742 21.7051665 16.6488382 17 20 17 17.9098686 25 15.731571 25 17.0714423 19.868474 17.0498247 19.868474 14.3891565 25 12.6449077 25 12.6449077 19.868474 12.6093021 19.868474 11.2694309 25"></polygon>
                                        <polygon id="Path" fill="#EE4034" points="20 26 20.3295669 25 23 25 22.6699623 26"></polygon>
                                        <polygon id="Path" fill="#FFC325" points="21.0607607 24 22.3914657 19.1417639 20 19.1417639 20.5867347 17 28 17 27.4137291 19.1417639 25.0222635 19.1417639 23.6920223 23.9986381"></polygon>
                                        <polygon id="Path" fill="#FFFFFF" points="26 25 28.1275004 17 30.5321629 17 31.6170672 21.2805454 31.6382213 21.2805454 32.7770902 17 35 17 32.8720679 25 30.5844006 25 29.4062455 20.6307926 29.3850914 20.6307926 28.2229098 25"></polygon>
                                    </g>
                                </g>
                                <text id="2,000" font-family="Nunito-Regular, Nunito" font-size="36" font-weight="normal" line-spacing="43.2" fill="#242F40">
                                    <tspan x="322.8" y="64.6">2,000</tspan>
                                </text>
                                <text id="NGN" opacity="0.167712984" font-family="Nunito-SemiBold, Nunito" font-size="27.6" font-weight="500" line-spacing="43.2" fill="#242F40">
                                    <tspan x="468.2" y="55.6">NGN</tspan>
                                </text>
                            </g>
                            <g id="Group-20-Copy" transform="translate(86.000000, 147.000000)">
                                <g id="Rectangle">
                                    <use fill="black" fill-opacity="1" filter="url(#filter-21)" xlink:href="#path-20"></use>
                                    <use fill="#FFFFFF" fill-rule="evenodd" xlink:href="#path-20"></use>
                                </g>
                                <g id="Group-18" transform="translate(16.000000, 12.000000)">
                                    <g id="Rectangle-Copy-6">
                                        <use fill="black" fill-opacity="1" filter="url(#filter-23)" xlink:href="#path-22"></use>
                                        <use fill="#FFFFFF" fill-rule="evenodd" xlink:href="#path-22"></use>
                                    </g>
                                    <g id="Stockholm-icons-/-Communication-/-Call" transform="translate(3.000000, 6.000000)">
                                        <rect id="bound" x="0" y="0" width="48" height="48"></rect>
                                        <path d="M24,4 C35.045695,4 44,12.954305 44,24 C44,35.045695 35.045695,44 24,44 C12.954305,44 4,35.045695 4,24 C4,12.954305 12.954305,4 24,4 Z M31.5983777,13.8128937 C31.2078534,13.4223694 30.5746884,13.4223694 30.1841641,13.8128937 L30.1841641,13.8128937 L26.9990801,16.9979777 C26.1088414,17.8882164 25.8881408,19.2482349 26.4511772,20.3743078 C27.0142136,21.5003806 26.793513,22.8603991 25.9032742,23.7506378 L25.9032742,23.7506378 L23.227844,26.4260681 C22.3376052,27.3163068 20.9775867,27.5370075 19.8515139,26.973971 C18.7254411,26.4109346 17.3654226,26.6316353 16.4751838,27.521874 L16.4751838,27.521874 L13.4531644,30.5438934 C13.3433895,30.6536683 13.2606807,30.787494 13.2115879,30.9347725 C13.0369401,31.4587158 13.3201001,32.0250358 13.8440434,32.1996835 L13.8440434,32.1996835 L16.5516823,33.1022298 C19.1518528,33.9689533 22.0185479,33.2922184 23.9566006,31.3541657 L23.9566006,31.3541657 L31.9550346,23.3557317 C33.735512,21.5752543 34.1769133,18.8552172 33.0508405,16.6030716 L33.0508405,16.6030716 L31.7856981,14.0727869 C31.7376307,13.976652 31.674379,13.888895 31.5983777,13.8128937 Z" id="Combined-Shape" fill="#EAEDF3" fill-rule="evenodd"></path>
                                    </g>
                                </g>
                                <text id="+234---803584092" font-family="Nunito-Regular, Nunito" font-size="24" font-weight="normal" letter-spacing="1.3">
                                    <tspan x="87" y="51" fill="#242F40">+234 </tspan>
                                    <tspan x="157.292" y="51" fill="#8F92A1">- 803584092</tspan>
                                </text>
                            </g>
                            <g id="Group-20-Copy-2" transform="translate(130.000000, 250.000000)">
                                <g id="Rectangle">
                                    <use fill="black" fill-opacity="1" filter="url(#filter-26)" xlink:href="#path-25"></use>
                                    <use fill="url(#linearGradient-24)" fill-rule="evenodd" xlink:href="#path-25"></use>
                                </g>
                                <text id="+-Buy-Airtime" font-family="Nunito-SemiBold, Nunito" font-size="22.4" font-weight="500" letter-spacing="-0.24000001" fill="#FFFFFF">
                                    <tspan x="106" y="40">+ Buy Airtime</tspan>
                                </text>
                            </g>
                        </g>
                    </g>
                </g>
            </g>
        </g>
    </g>
</svg>