<svg xmlns="http://www.w3.org/2000/svg" width="195" height="62" viewBox="0 0 195 62">
    <g fill="none" fill-rule="evenodd">
        <rect width="195" height="62" fill="#345DEE" rx="8"/>
        <text fill="#FFF" font-family="Inter-SemiBold, Inter" font-size="20" font-weight="500" letter-spacing="-.5">
            <tspan x="58" y="45.3">App Store</tspan>
        </text>
        <text fill="#FFF" font-family="Inter-Regular, Inter" font-size="14" letter-spacing="-.4">
            <tspan x="59.526" y="22.6">Download on the</tspan>
        </text>
        <path d="M16 15h32v32H16z"/>
        <path fill="#FFF" d="M36.862 24.031l.302.019c.845.023 3.249.313 4.8 2.437-.125.07-2.864 1.583-2.834 4.69.034 3.725 3.469 4.956 3.51 4.97-.02.086-.537 1.777-1.826 3.493-1.075 1.51-2.203 2.988-3.993 3.015-1.739.037-2.324-.962-4.319-.962-2.013 0-2.636.935-4.304 1-1.705.058-3.008-1.614-4.123-3.111-2.228-3.058-3.963-8.616-1.637-12.398a6.457 6.457 0 0 1 5.38-3.082c1.706-.033 3.29 1.083 4.34 1.083 1.028 0 2.987-1.335 5.006-1.135zm-.435-7.698c.17 1.455-.443 2.889-1.34 3.943-.937 1.037-2.434 1.83-3.893 1.729-.191-1.4.548-2.889 1.376-3.797.935-1.031 2.559-1.82 3.857-1.875z"/>
    </g>
</svg>
