<svg xmlns="http://www.w3.org/2000/svg" width="196" height="62" viewBox="0 0 196 62">
    <g fill="none" fill-rule="evenodd" transform="translate(.722)">
        <rect width="195" height="62" fill="#345DEE" rx="8"/>
        <text fill="#FFF" font-family="Inter-SemiBold, Inter" font-size="20" font-weight="500" letter-spacing="-.5">
            <tspan x="58" y="45.3">Google Play</tspan>
        </text>
        <text fill="#FFF" font-family="Inter-Regular, Inter" font-size="14" letter-spacing="-.4">
            <tspan x="59.526" y="22.6">Get it on</tspan>
        </text>
        <path d="M16 15h32v32H16z"/>
        <path fill="#FFF" d="M21.952 17.825L34.55 31.02 22.012 44.33c-.365-.244-.562-.772-.565-1.455l-.114-23.623c-.003-.747.256-1.202.619-1.427zm16.754 8.785l-15.32-8.767a1.487 1.487 0 0 0-.535-.176l12.221 12.8 3.634-3.857zm.68 8.375l-3.79-3.97 3.787-4.018 5.213 2.983c1.285.735.628 1.654 0 2.014l-5.21 2.99zm-16.335 9.348c.107-.042.218-.096.334-.162l15.324-8.797-3.633-3.805L23.05 44.333z"/>
    </g>
</svg>
