<svg xmlns="http://www.w3.org/2000/svg" width="14" height="14" viewBox="0 0 14 14">
    <g fill="none" fill-rule="evenodd" opacity=".556">
        <path d="M-5-5h24v24H-5z"/>
        <path fill="#DBDEEB" d="M13.875 5.603H7.148c0 .7 0 2.099-.004 2.798h3.898c-.15.7-.68 1.68-1.428 2.172 0 0 0 .005-.002.004-.995.657-2.308.806-3.283.61A4.33 4.33 0 0 1 3.1 8.367c.003-.002.005-.021.007-.023-.307-.873-.307-2.042 0-2.741.396-1.286 1.642-2.46 3.172-2.78 1.23-.261 2.62.021 3.64.977.136-.133 1.88-1.836 2.011-1.974C8.44-1.334 2.854-.223.763 3.858l-.004.008a6.837 6.837 0 0 0 .007 6.274l-.007.006a7.126 7.126 0 0 0 4.536 3.616c2.107.552 4.79.174 6.587-1.45l.002.001c1.522-1.37 2.47-3.707 1.991-6.71"/>
    </g>
</svg>
