<svg xmlns="http://www.w3.org/2000/svg" width="49" height="50" viewBox="0 0 49 50">
    <g fill="none" fill-rule="evenodd" transform="translate(-.043 .15)">
        <circle cx="24.5" cy="24.5" r="24.5" fill="#EFF2F6"/>
        <path d="M12.25 12.25h25v25h-25z"/>
        <path fill="#18214D" d="M33.604 23.708h-1.562v-4.166a2.09 2.09 0 0 0-2.084-2.084h-4.166v-1.562a2.605 2.605 0 0 0-5.209 0v1.562h-4.166a2.08 2.08 0 0 0-2.073 2.084V23.5h1.552a2.814 2.814 0 0 1 2.812 2.813 2.814 2.814 0 0 1-2.812 2.812h-1.563v3.958a2.09 2.09 0 0 0 2.084 2.084h3.958v-1.563a2.814 2.814 0 0 1 2.813-2.812A2.814 2.814 0 0 1 26 33.604v1.563h3.958a2.09 2.09 0 0 0 2.084-2.084v-4.166h1.562a2.605 2.605 0 0 0 0-5.209z"/>
    </g>
</svg>
