<svg xmlns="http://www.w3.org/2000/svg" xmlns:xlink="http://www.w3.org/1999/xlink" width="361" height="607" viewBox="0 0 361 607">
    <defs>
        <rect id="a" width="269.808" height="154.817" rx="8"/>
    </defs>
    <g fill="none" fill-rule="evenodd">
        <path fill="#FFF" fill-rule="nonzero" d="M357.384 251.63v393.602h-6.069v5.532h6.07v13.277c0 30.553-24.703 55.32-55.176 55.32H58.077c-30.473 0-55.176-24.769-55.176-55.32v-13.277h6.07v-5.532H2.9v-377.56H1.25c-.61 0-1.106-.494-1.106-1.103v-50.346c0-.61.493-1.104 1.106-1.104h1.652v-13.277H1.25c-.61 0-1.106-.495-1.106-1.104v-50.346c0-.61.493-1.104 1.106-1.104h1.652v-22.681H1.25c-.61 0-1.106-.493-1.106-1.106V98.946c0-.61.493-1.106 1.106-1.106h1.652V75.436h6.07v-5.532H2.9v-13.83C2.901 25.52 27.604.754 58.077.754h244.132c30.472 0 55.175 24.768 55.175 55.32v13.83h-6.069v5.532h6.07v90.448h1.379c.761 0 1.379.617 1.379 1.382v82.982c0 .764-.62 1.382-1.38 1.382h-1.379z"/>
        <path fill="#EFF2F6" d="M357.384 251.63v393.602h-6.069v5.532h6.07v13.277c0 30.553-24.703 55.32-55.176 55.32H58.077c-30.473 0-55.176-24.769-55.176-55.32v-13.277h6.07v-5.532H2.9v-377.56H1.25c-.61 0-1.106-.494-1.106-1.103v-50.346c0-.61.493-1.104 1.106-1.104h1.652v-13.277H1.25c-.61 0-1.106-.495-1.106-1.104v-50.346c0-.61.493-1.104 1.106-1.104h1.652v-22.681H1.25c-.61 0-1.106-.493-1.106-1.106V98.946c0-.61.493-1.106 1.106-1.106h1.652V75.436h6.07v-5.532H2.9v-13.83C2.901 25.52 27.604.754 58.077.754h244.132c30.472 0 55.175 24.768 55.175 55.32v13.83h-6.069v5.532h6.07v90.448h1.379c.761 0 1.379.617 1.379 1.382v82.982c0 .764-.62 1.382-1.38 1.382h-1.379zM8.97 56.628v606.858c0 27.5 22.231 49.79 49.655 49.79H301.66c27.423 0 49.654-22.292 49.654-49.79V56.628c0-27.499-22.23-49.79-49.654-49.79H58.625C31.202 6.839 8.97 29.13 8.97 56.629zm134.621-22.682a3.315 3.315 0 0 1-3.31-3.32 3.315 3.315 0 0 1 3.31-3.319 3.315 3.315 0 0 1 3.31 3.32 3.315 3.315 0 0 1-3.31 3.319zm76.69 2.212c-3.047 0-5.517-2.476-5.517-5.532 0-3.055 2.47-5.532 5.517-5.532s5.517 2.477 5.517 5.532c0 3.056-2.47 5.532-5.517 5.532zm-58.483-7.744h36.966a2.21 2.21 0 0 1 2.206 2.212 2.21 2.21 0 0 1-2.206 2.213h-36.966a2.21 2.21 0 0 1-2.207-2.213 2.21 2.21 0 0 1 2.207-2.212z"/>
        <g>
            <path stroke="#DFE4EA" stroke-width="2" d="M269.376 24.35v-1l-1 1h1zm-181.689 0h1v-1h-1v1zm181.69 0v-1l-1 1h1zm2.593-.988v-.011h-1v.011h1zm-.082.997a2.322 2.322 0 0 0-2.511 2.32v.275h-2v-4.603h5.593v2.097l-1.082-.09z"/>
            <path fill="#FFF" d="M26.888 611.654H333.77v57.633c0 14.911-12.088 27-27 27H53.889c-14.913 0-27-12.089-27-27v-57.633z"/>
            <path fill="#DFE4EA" d="M26.888 610.621h308.94v1.032H26.888z"/>
            <path d="M249.325 611.654h77.235v55.734h-77.235z"/>
            <text fill="#18214D" font-family="Inter-Medium, Inter" font-size="12" font-weight="400" letter-spacing="-.35" opacity=".4" transform="translate(249.325 611.654)">
                <tspan x="15.885" y="46.349">Account</tspan>
            </text>
            <path fill="#345DEE" d="M288.458 621.975c-5.685 0-10.298 4.623-10.298 10.32 0 5.698 4.613 10.322 10.298 10.322 5.684 0 10.298-4.624 10.298-10.321 0-5.698-4.614-10.321-10.298-10.321zm0 11.353c3.65 0 6.746 2.38 7.827 5.675-.512.6-1.09 1.14-1.725 1.608a6.183 6.183 0 0 0-6.102-5.219c-3.082 0-5.637 2.261-6.103 5.218a10.374 10.374 0 0 1-1.724-1.606c1.08-3.297 4.176-5.676 7.827-5.676zm0-8.257c1.71 0 3.09 1.383 3.09 3.096a3.089 3.089 0 1 1-6.18 0 3.089 3.089 0 0 1 3.09-3.096z"/>
            <path d="M177.24 611.654h77.234v55.734H177.24z"/>
            <text fill="#18214D" font-family="Inter-Medium, Inter" font-size="12" font-weight="400" letter-spacing="-.35" opacity=".4" transform="translate(177.24 611.654)">
                <tspan x="19.06" y="46.349">History</tspan>
            </text>
            <path fill="#DFE4EA" d="M216.372 621.975c-5.664 0-10.298 4.644-10.298 10.32 0 5.677 4.634 10.322 10.298 10.322s10.298-4.645 10.298-10.321c0-5.677-4.634-10.321-10.298-10.321zm3.655 14.243l-4.201-2.59a1.018 1.018 0 0 1-.494-.878v-4.84a.795.795 0 0 1 .782-.775c.422 0 .773.351.773.774v4.593l3.954 2.384c.37.227.494.712.268 1.084a.79.79 0 0 1-1.082.248z"/>
            <g>
                <path d="M105.153 611.654h77.235v55.734h-77.235z"/>
                <text fill="#18214D" font-family="Inter-Medium, Inter" font-size="12" font-weight="400" letter-spacing="-.35" opacity=".4" transform="translate(105.153 611.654)">
                    <tspan x="22.509" y="46.349">Cards</tspan>
                </text>
                <path fill="#DFE4EA" d="M154.584 631.264v7.289a2 2 0 0 1-2 2h-16.596a2 2 0 0 1-2-2v-7.29h20.596zm-2-7.225a2 2 0 0 1 2 2v3.16h-20.596v-3.16a2 2 0 0 1 2-2h16.596z"/>
            </g>
            <g>
                <path d="M33.067 611.654h77.235v55.734H33.067z"/>
                <text fill="#18214D" font-family="Inter-Medium, Inter" font-size="12" font-weight="400" letter-spacing="-.35" opacity=".4" transform="translate(33.067 611.654)">
                    <tspan x="18.15" y="46.349">Actions</tspan>
                </text>
                <path fill="#DFE4EA" d="M79.408 623.007H64.991c-1.133 0-2.06.929-2.06 2.064v14.45c0 1.135.927 2.064 2.06 2.064h14.417c1.133 0 2.06-.93 2.06-2.065v-14.45a2.068 2.068 0 0 0-2.06-2.063zm-11.328 14.45c-.566 0-1.03-.465-1.03-1.033v-5.16c0-.568.464-1.033 1.03-1.033.567 0 1.03.465 1.03 1.033v5.16c0 .568-.463 1.032-1.03 1.032zm4.12 0c-.567 0-1.03-.465-1.03-1.033v-8.257c0-.567.463-1.032 1.03-1.032.566 0 1.03.465 1.03 1.032v8.257c0 .568-.464 1.032-1.03 1.032zm4.119 0c-.567 0-1.03-.465-1.03-1.033v-2.064c0-.568.463-1.032 1.03-1.032.566 0 1.03.464 1.03 1.032v2.064c0 .568-.464 1.032-1.03 1.032z"/>
            </g>
            <g transform="translate(45.425 535.277)">
                <rect width="269.808" height="61.927" fill="#EFF2F6" rx="10"/>
                <g transform="translate(16.477 16.514)">
                    <rect width="51.49" height="28.899" fill="#FFF" rx="5"/>
                    <g fill-rule="nonzero" transform="translate(13.387 6.193)">
                        <ellipse cx="7.806" cy="8.107" fill="#EE0005" rx="7.806" ry="8.107"/>
                        <ellipse cx="17.505" cy="8.107" fill="#F9A000" rx="7.806" ry="8.107"/>
                        <path fill="#FF6300" d="M9.699 8.107c0 2.574 1.155 4.868 2.957 6.353 1.801-1.485 2.957-3.779 2.957-6.353s-1.156-4.868-2.957-6.353c-1.802 1.485-2.957 3.779-2.957 6.353z"/>
                    </g>
                </g>
                <text fill="#18214D" font-family="Inter-Medium, Inter" font-size="12" font-weight="400" letter-spacing="-.35" opacity=".4">
                    <tspan x="80.325" y="46.349">Mastercard • 6789</tspan>
                </text>
                <text fill="#18214D" font-family="Inter-SemiBold, Inter" font-size="14" font-weight="500" letter-spacing="-.5">
                    <tspan x="80.325" y="26.674">Tinkoff Gold</tspan>
                </text>
            </g>
            <g>
                <g transform="translate(45.425 366.011)">
                    <mask id="b" fill="#fff">
                        <use xlink:href="#a"/>
                    </mask>
                    <use fill="#345DEE" xlink:href="#a"/>
                    <ellipse cx="215.228" cy="27.867" fill="#18214D" mask="url(#b)" rx="108.129" ry="108.372"/>
                </g>
                <g transform="translate(283.233 482.011)">
                    <circle cx="11" cy="11" r="11" fill="#FFF"/>
                    <path d="M4.125 4.125h13.75v13.75H4.125z"/>
                    <path fill="#345DEE" d="M15.01 6.417h-.572v-.573a.575.575 0 0 0-.573-.573.575.575 0 0 0-.573.573v.573H8.708v-.573a.575.575 0 0 0-.573-.573.575.575 0 0 0-.572.573v.573H6.99a1.14 1.14 0 0 0-1.14 1.145l-.006 8.021c0 .63.51 1.146 1.146 1.146h8.02a1.15 1.15 0 0 0 1.146-1.146v-8.02a1.15 1.15 0 0 0-1.146-1.146zm0 8.593a.575.575 0 0 1-.572.573H7.561a.575.575 0 0 1-.572-.573V9.281h8.02v5.73zm-6.875-4.583h1.146v1.146H8.135v-1.146zm2.292 0h1.146v1.146h-1.146v-1.146zm2.292 0h1.146v1.146h-1.146v-1.146z"/>
                </g>
                <text fill="#FFF" font-family="Inter-SemiBold, Inter" font-size="16" font-weight="500" letter-spacing="-.4" transform="translate(45.425 366.011)">
                    <tspan x="10.298" y="137.078">$18,956.00</tspan>
                </text>
                <path fill="#FFF" d="M55.723 473.35h249.212v1.033H55.723z" opacity=".2"/>
                <text fill="#FFF" font-family="Inter-Regular, Inter" font-size="14" letter-spacing="-.4" transform="translate(45.425 366.011)">
                    <tspan x="10.298" y="26.706">Visa Platinium</tspan>
                </text>
                <text fill="#FFF" font-family="Inter-SemiBold, Inter" font-size="16" font-weight="500" letter-spacing="-.4" transform="translate(45.425 366.011)">
                    <tspan x="10.298" y="85.505">4800 •••• •••• 8910</tspan>
                </text>
                <g transform="translate(260.653 376.332)">
                    <rect width="44.134" height="24.771" fill="#FFF" rx="4.286"/>
                    <path fill="#345DEE" d="M27.037 7.077c.908 0 1.654.186 2.166.375l.146.057-.35 2.23-.23-.118a4.425 4.425 0 0 0-1.932-.395c-1.011 0-1.478.457-1.479.885-.006.482.548.798 1.45 1.275 1.488.734 2.176 1.622 2.167 2.795-.02 2.134-1.782 3.512-4.494 3.512-1.069-.012-2.101-.225-2.727-.482l-.148-.066.36-2.302.333.164c.848.384 1.397.54 2.43.54.743 0 1.538-.316 1.545-1.005.004-.45-.334-.773-1.34-1.276-.977-.491-2.275-1.316-2.26-2.794.016-1.999 1.812-3.395 4.363-3.395zm8.83.19l2.089 10.277H35.56s-.238-1.182-.314-1.54h-.302l-2.706-.006h-.297c-.094.26-.485 1.382-.537 1.53l-.006.016h-2.71L32.52 8.12c.25-.618.664-.821 1.213-.849l.14-.003h1.993zm-14.264-.01L19.99 17.54h-2.58l1.614-10.283h2.58zm-10.224.008l1.34 7.011 2.525-7.01h2.734l-4.063 10.266h-2.731L9.122 9.504l-2.943-2.24h5.2zm22.85 3.661l-.174-.887c-.13.385-.358 1.008-.343.981 0 0-.745 2.089-.997 2.788l-.03.086h2.141l-.594-2.954-.003-.014-.174-.887z"/>
                </g>
            </g>
            <g>
                <g transform="translate(293.233 324.727)">
                    <circle cx="11" cy="11" r="11" fill="#345DEE"/>
                    <path d="M4.125 4.125h13.75v13.75H4.125z"/>
                    <path fill="#FFF" d="M6.99 11.573h6.4l-2.224 2.223a.577.577 0 0 0 0 .813.57.57 0 0 0 .808 0l3.203-3.202a.57.57 0 0 0 0-.808L11.98 7.391a.57.57 0 1 0-.808.807l2.217 2.23h-6.4a.575.575 0 0 0-.572.572c0 .315.257.573.573.573z"/>
                </g>
                <text fill="#18214D" font-family="Inter-SemiBold, Inter" font-size="16" font-weight="500" letter-spacing="-.4" transform="translate(45.425 324.727)">
                    <tspan x="0" y="16.353">Your Cards</tspan>
                </text>
            </g>
            <g>
                <g transform="translate(45.425 141.011)">
                    <rect width="129.755" height="165.138" fill="#EFF2F6" rx="8"/>
                    <g fill="#345DEE" transform="translate(10.298 62.959)">
                        <rect width="5" height="48.509" x=".075" y="43.349" rx="2.5"/>
                        <rect width="5" height="49.541" x="46.416" y="42.317" rx="2.5"/>
                        <rect width="5" height="20.642" x="22.73" y="71.216" rx="2.5"/>
                        <rect width="5" height="47.477" x="69.071" y="44.381" rx="2.5"/>
                        <rect width="5" height="68.119" x="92.757" y="23.739" rx="2.5"/>
                        <rect width="5" height="75.344" x="11.402" y="16.514" rx="2.5"/>
                        <rect width="5" height="24.771" x="57.743" y="67.087" rx="2.5"/>
                        <rect width="5" height="81.537" x="35.088" y="10.321" rx="2.5"/>
                        <rect width="5" height="91.858" x="80.399" rx="2.5"/>
                        <rect width="5" height="34.06" x="104.084" y="57.798" rx="2.5"/>
                    </g>
                    <text fill="#18214D" font-family="Inter-SemiBold, Inter" font-size="14" font-weight="500" letter-spacing="-.35">
                        <tspan x="12.358" y="24.594">Incomes</tspan>
                    </text>
                    <path d="M102.98 11.353h16v17h-16z"/>
                    <path fill="#345DEE" d="M110.98 12.784c-3.673 0-6.653 3.166-6.653 7.07 0 3.902 2.98 7.068 6.653 7.068 3.673 0 6.653-3.166 6.653-7.069s-2.98-7.069-6.653-7.069zm-.347 11.234v-2.932h-1.773c-.247 0-.413-.284-.293-.517l2.453-5.08c.153-.332.627-.212.627.164v2.968h1.693c.247 0 .407.276.3.51l-2.373 5.043c-.16.34-.634.22-.634-.156z"/>
                </g>
                <g transform="translate(185.478 141.011)">
                    <rect width="129.755" height="165.138" fill="#EFF2F6" rx="8"/>
                    <g fill="#EE3465" transform="translate(10.298 51.606)">
                        <rect width="5" height="29.931" x=".075" y="73.28" rx="2.5"/>
                        <rect width="5" height="31.995" x="46.416" y="71.216" rx="2.5"/>
                        <rect width="5" height="59.862" x="22.73" y="43.349" rx="2.5"/>
                        <rect width="5" height="84.633" x="69.071" y="18.578" rx="2.5"/>
                        <rect width="5" height="68.119" x="92.757" y="35.092" rx="2.5"/>
                        <rect width="5" height="103.211" x="11.402" rx="2.5"/>
                        <rect width="5" height="66.055" x="57.743" y="37.156" rx="2.5"/>
                        <rect width="5" height="33.028" x="35.088" y="70.183" rx="2.5"/>
                        <rect width="5" height="42.317" x="80.399" y="60.894" rx="2.5"/>
                        <rect width="5" height="49.541" x="104.084" y="53.67" rx="2.5"/>
                    </g>
                    <text fill="#18214D" font-family="Inter-SemiBold, Inter" font-size="14" font-weight="500" letter-spacing="-.35">
                        <tspan x="12.358" y="24.594">Spending</tspan>
                    </text>
                    <path d="M102.98 11.353h16v17h-16z"/>
                    <path fill="#EE3465" d="M110.98 12.784c-3.673 0-6.653 3.166-6.653 7.07 0 3.902 2.98 7.068 6.653 7.068 3.673 0 6.653-3.166 6.653-7.069s-2.98-7.069-6.653-7.069zm-.347 11.234v-2.932h-1.773c-.247 0-.413-.284-.293-.517l2.453-5.08c.153-.332.627-.212.627.164v2.968h1.693c.247 0 .407.276.3.51l-2.373 5.043c-.16.34-.634.22-.634-.156z"/>
                </g>
            </g>
            <g>
                <path d="M290.517 96.63h25v25h-25z"/>
                <path fill="#18214D" d="M309.944 105.328l-2.906 2.907a.522.522 0 0 0 .365.896h1.864a6.255 6.255 0 0 1-6.25 6.25 6.066 6.066 0 0 1-2.343-.459c-.375-.156-.803-.041-1.084.24a1.044 1.044 0 0 0 .354 1.708c.948.386 1.99.594 3.073.594a8.331 8.331 0 0 0 8.334-8.333h1.864a.516.516 0 0 0 .365-.886l-2.906-2.906a.513.513 0 0 0-.73-.01zm-13.177 3.803a6.255 6.255 0 0 1 6.25-6.25c.823 0 1.625.156 2.344.458.375.156.802.042 1.083-.24a1.044 1.044 0 0 0-.354-1.708 8.154 8.154 0 0 0-3.073-.594 8.331 8.331 0 0 0-8.333 8.334h-1.865a.516.516 0 0 0-.364.885l2.906 2.906a.516.516 0 0 0 .74 0l2.906-2.906a.52.52 0 0 0-.375-.885h-1.865z"/>
            </g>
            <text fill="#18214D" font-family="Inter-SemiBold, Inter" font-size="22" font-weight="500" letter-spacing="-.55" transform="translate(24.829 23.35)">
                <tspan x="20.596" y="89.601">Account</tspan>
            </text>
            <text fill="#3E4462" font-family="Inter-Regular, Inter" font-size="14" letter-spacing="-.4" transform="translate(24.829 23.35)">
                <tspan x="20.596" y="61.798">Saturday, 04 May</tspan>
            </text>
        </g>
    </g>
</svg>
