<svg xmlns="http://www.w3.org/2000/svg" width="124" height="21" viewBox="0 0 124 21">
    <g fill="#18214D" fill-rule="evenodd" opacity=".364">
        <path d="M16.265.499l-4.253 11.108L7.734.5H.42v20.133h5.264V7.322l5.168 13.31h2.323l5.14-13.31v13.31h5.264V.499zM34.253 16.89v-1.3c-.488-.695-1.591-1.027-2.626-1.027-1.225 0-2.358.545-2.358 1.69 0 1.146 1.133 1.692 2.358 1.692 1.035 0 2.138-.363 2.626-1.056v.001zm0 3.74v-1.449c-.917 1.084-2.69 1.811-4.589 1.811-2.264 0-5.076-1.541-5.076-4.801 0-3.53 2.81-4.704 5.076-4.704 1.963 0 3.706.63 4.589 1.719v-1.45c0-1.266-1.097-2.142-2.998-2.142-1.469 0-2.938.572-4.129 1.57l-1.742-3.232C27.282 6.354 29.82 5.69 32.08 5.69c3.549 0 6.888 1.301 6.888 5.827v9.116h-4.716v-.002zM39.607 18.73l1.958-3.318c1.104.962 3.456 1.96 5.205 1.96 1.405 0 1.986-.397 1.986-1.027 0-1.81-8.596.058-8.596-5.855 0-2.567 2.265-4.8 6.33-4.8 2.51 0 4.589.784 6.181 1.93l-1.8 3.295c-.89-.85-2.573-1.605-4.345-1.605-1.104 0-1.837.424-1.837.998 0 1.598 8.562-.059 8.562 5.918 0 2.772-2.474 4.766-6.697 4.766-2.66 0-5.383-.877-6.947-2.263M64.177 20.632v-8.488c0-1.775-.948-2.348-2.452-2.348-1.376 0-2.293.75-2.84 1.415v9.42h-4.717V.498h4.717v7.333c.883-1.027 2.632-2.141 5.106-2.141 3.369 0 4.896 1.871 4.896 4.558v10.383h-4.71zM79.505 16.89v-1.3c-.49-.695-1.591-1.027-2.632-1.027-1.225 0-2.358.545-2.358 1.69 0 1.146 1.133 1.692 2.358 1.692 1.04 0 2.143-.363 2.632-1.056v.001zm0 3.74v-1.449c-.919 1.084-2.696 1.811-4.589 1.811-2.266 0-5.082-1.541-5.082-4.801 0-3.53 2.816-4.704 5.082-4.704 1.957 0 3.7.63 4.589 1.719v-1.45c0-1.266-1.105-2.142-2.998-2.142-1.469 0-2.94.572-4.135 1.57L70.63 7.951c1.898-1.598 4.437-2.263 6.703-2.263 3.547 0 6.88 1.301 6.88 5.827v9.116h-4.708v-.002zM93.269 16.89c1.865 0 3.276-1.364 3.276-3.564 0-2.17-1.411-3.535-3.276-3.535-1.011 0-2.23.545-2.816 1.33v4.468c.586.785 1.806 1.301 2.816 1.301zm-7.527 3.74V.5h4.71v7.274a5.492 5.492 0 0 1 4.38-2.082c3.7 0 6.517 2.868 6.517 7.635 0 4.95-2.876 7.666-6.517 7.666-1.655 0-3.154-.664-4.38-2.051v1.69h-4.71zM102.296.499h4.71v20.133h-4.71zM115.788 9.43c-2.052 0-2.846 1.21-3.033 2.264h6.093c-.126-1.027-.888-2.263-3.06-2.263m-7.836 3.895c0-4.222 3.212-7.637 7.836-7.637 4.373 0 7.556 3.168 7.556 8.118v1.06H112.82c.336 1.296 1.561 2.384 3.7 2.384 1.04 0 2.753-.453 3.613-1.238l2.044 3.048c-1.465 1.295-3.915 1.931-6.175 1.931-4.559 0-8.05-2.927-8.05-7.666"/>
    </g>
</svg>
