<svg xmlns="http://www.w3.org/2000/svg" width="73" height="27" viewBox="0 0 73 27">
    <path fill="#18214D" fill-rule="evenodd" d="M8.053 26.989c-2.175-.09-3.955-.707-5.346-1.855a10.88 10.88 0 0 1-1.11-1.153c-.565-.736-.95-1.453-1.205-2.248-.788-2.447-.382-5.66 1.16-9.184C2.872 9.532 4.907 6.54 8.46 2.394 8.982 1.784 10.54 0 10.552 0c.002 0-.082.153-.189.339C9.44 1.944 8.65 3.835 8.218 5.473c-.692 2.627-.608 4.882.245 6.63.588 1.204 1.596 2.247 2.73 2.824 1.985 1.01 4.891 1.093 8.439.244.244-.058 12.35-3.394 26.904-7.412S73 .456 73 .46c.004.003-33.81 15.02-51.365 22.81-2.78 1.233-3.522 1.545-4.83 2.021-3.34 1.218-6.333 1.799-8.752 1.699z" opacity=".364"/>
</svg>
