<svg xmlns="http://www.w3.org/2000/svg" xmlns:xlink="http://www.w3.org/1999/xlink" width="717" height="789" viewBox="0 0 717 789">
    <defs>
        <rect id="a" width="559" height="631" rx="15"/>
        <filter id="b" width="146.5%" height="141.2%" x="-23.3%" y="-17.4%" filterUnits="objectBoundingBox">
            <feOffset dy="20" in="SourceAlpha" result="shadowOffsetOuter1"/>
            <feGaussianBlur in="shadowOffsetOuter1" result="shadowBlurOuter1" stdDeviation="40"/>
            <feColorMatrix in="shadowBlurOuter1" values="0 0 0 0 0.919413107 0 0 0 0 0.912335226 0 0 0 0 0.929064764 0 0 0 0.705965909 0"/>
        </filter>
        <rect id="e" width="217.464" height="239.707" rx="12.96"/>
        <filter id="d" width="189.7%" height="181.3%" x="-44.8%" y="-30.7%" filterUnits="objectBoundingBox">
            <feOffset dy="24" in="SourceAlpha" result="shadowOffsetOuter1"/>
            <feGaussianBlur in="shadowOffsetOuter1" result="shadowBlurOuter1" stdDeviation="28.5"/>
            <feColorMatrix in="shadowBlurOuter1" values="0 0 0 0 0 0 0 0 0 0 0 0 0 0 0 0 0 0 0.0590854458 0"/>
        </filter>
        <linearGradient id="f" x1="13.56%" x2="13.56%" y1="0%" y2="100%">
            <stop offset="0%" stop-color="#320FA8"/>
            <stop offset="100%" stop-color="#B59FD3"/>
        </linearGradient>
        <linearGradient id="g" x1="13.56%" x2="13.56%" y1="0%" y2="100%">
            <stop offset="0%" stop-color="#320FA8"/>
            <stop offset="100%" stop-color="#B59FD3"/>
        </linearGradient>
        <linearGradient id="h" x1="13.56%" x2="13.56%" y1="0%" y2="100%">
            <stop offset="0%" stop-color="#320FA8"/>
            <stop offset="100%" stop-color="#B59FD3"/>
        </linearGradient>
        <linearGradient id="i" x1="13.56%" x2="13.56%" y1="0%" y2="100%">
            <stop offset="0%" stop-color="#320FA8"/>
            <stop offset="100%" stop-color="#B59FD3"/>
        </linearGradient>
        <linearGradient id="j" x1="13.56%" x2="13.56%" y1="0%" y2="100%">
            <stop offset="0%" stop-color="#320FA8"/>
            <stop offset="100%" stop-color="#B59FD3"/>
        </linearGradient>
        <linearGradient id="k" x1="13.56%" x2="13.56%" y1="0%" y2="100%">
            <stop offset="0%" stop-color="#320FA8"/>
            <stop offset="100%" stop-color="#B59FD3"/>
        </linearGradient>
        <filter id="l" width="201.3%" height="442.2%" x="-50.7%" y="-171.1%" filterUnits="objectBoundingBox">
            <feOffset dy="16" in="SourceAlpha" result="shadowOffsetOuter1"/>
            <feGaussianBlur in="shadowOffsetOuter1" result="shadowBlurOuter1" stdDeviation="12"/>
            <feColorMatrix in="shadowBlurOuter1" result="shadowMatrixOuter1" values="0 0 0 0 0 0 0 0 0 0 0 0 0 0 0 0 0 0 0.106643357 0"/>
            <feMerge>
                <feMergeNode in="shadowMatrixOuter1"/>
                <feMergeNode in="SourceGraphic"/>
            </feMerge>
        </filter>
        <linearGradient id="m" x1="100%" x2="0%" y1="50%" y2="50%">
            <stop offset="0%" stop-color="#FF7663"/>
            <stop offset="100%" stop-color="#FFB09E"/>
        </linearGradient>
        <rect id="o" width="217.464" height="344.25" rx="12.96"/>
        <filter id="n" width="189.7%" height="156.6%" x="-44.8%" y="-21.4%" filterUnits="objectBoundingBox">
            <feOffset dy="24" in="SourceAlpha" result="shadowOffsetOuter1"/>
            <feGaussianBlur in="shadowOffsetOuter1" result="shadowBlurOuter1" stdDeviation="28.5"/>
            <feColorMatrix in="shadowBlurOuter1" values="0 0 0 0 0 0 0 0 0 0 0 0 0 0 0 0 0 0 0.0590854458 0"/>
        </filter>
        <linearGradient id="p" x1="18.433%" x2="93.318%" y1="13.7%" y2="100%">
            <stop offset="0%" stop-color="#320FA8"/>
            <stop offset="100%" stop-color="#B59FD3"/>
        </linearGradient>
    </defs>
    <g fill="none" fill-rule="evenodd" transform="translate(79 59)">
        <mask id="c" fill="#fff">
            <use xlink:href="#a"/>
        </mask>
        <use fill="#000" filter="url(#b)" xlink:href="#a"/>
        <use fill="#FFF" xlink:href="#a"/>
        <g mask="url(#c)">
            <g transform="translate(61.061 314.584)">
                <rect width="216.27" height="127.98" x="251.1" y="250.29" fill="#FFF" rx="13.77"/>
                <g fill-rule="nonzero">
                    <g transform="translate(249.48)">
                        <use fill="#000" filter="url(#d)" xlink:href="#e"/>
                        <use fill="#FFF" xlink:href="#e"/>
                    </g>
                    <path fill="#111" d="M328.103 174.547v11.626h-2.463v-11.626h2.463zm4.237 6.584v5.042h-2.414v-8.71h2.302v1.534h.104c.392-1.022 1.327-1.654 2.622-1.654 1.815 0 3.007 1.247 3.007 3.276v5.554h-2.415v-5.114c0-1.07-.584-1.71-1.551-1.71-.975 0-1.647.663-1.655 1.782zm11.305 5.21c-2.686 0-4.293-1.838-4.293-4.491 0-2.677 1.639-4.507 4.285-4.507 2.279 0 3.806 1.319 3.91 3.34h-2.287c-.128-.879-.696-1.454-1.583-1.454-1.12 0-1.863.943-1.863 2.589 0 1.662.736 2.613 1.863 2.613.831 0 1.439-.52 1.583-1.454h2.286c-.12 1.997-1.575 3.363-3.901 3.363zm9.234 0c-2.638 0-4.293-1.806-4.293-4.491 0-2.7 1.647-4.507 4.293-4.507s4.293 1.806 4.293 4.507c0 2.685-1.647 4.49-4.293 4.49zm.008-1.87c1.2 0 1.823-1.119 1.823-2.637s-.624-2.645-1.823-2.645c-1.215 0-1.839 1.119-1.839 2.637 0 1.526.624 2.637 1.84 2.637v.008zm5.7 1.702v-8.71h2.311v1.534h.104a2.446 2.446 0 0 1 2.43-1.654c1.2 0 2.08.64 2.367 1.654h.088c.36-.998 1.36-1.654 2.63-1.654 1.623 0 2.75 1.08 2.75 2.965v5.865h-2.414v-5.386c0-.967-.584-1.454-1.359-1.454-.88 0-1.391.615-1.391 1.518v5.322h-2.343v-5.434c0-.863-.535-1.406-1.327-1.406-.807 0-1.423.64-1.423 1.606v5.234h-2.422zm18.397.167c-2.686 0-4.317-1.725-4.317-4.482 0-2.693 1.655-4.515 4.221-4.515 2.31 0 4.102 1.463 4.102 4.427v.663h-5.94c0 1.303.767 2.102 1.974 2.102.807 0 1.44-.344 1.679-1.007l2.239.152c-.344 1.614-1.8 2.66-3.958 2.66zm-1.935-5.409h3.662c0-1.039-.728-1.782-1.783-1.782a1.838 1.838 0 0 0-1.879 1.782zm14.615-.99l-2.215.135c-.12-.56-.615-1.023-1.455-1.023-.751 0-1.343.344-1.335.863 0 .424.296.703 1.104.88l1.583.319c1.686.343 2.51 1.095 2.518 2.357 0 1.718-1.623 2.876-3.886 2.876-2.31 0-3.725-1.038-3.957-2.7l2.382-.128c.144.719.72 1.079 1.583 1.079.848 0 1.407-.368 1.423-.88-.016-.439-.36-.718-1.119-.878l-1.519-.296c-1.695-.335-2.518-1.182-2.518-2.493 0-1.678 1.47-2.717 3.701-2.717 2.199 0 3.494 1 3.71 2.605z"/>
                    <g fill="#EDEBF2" transform="translate(280.66 31.961)">
                        <rect width="1.599" height="108.667" rx=".799"/>
                        <rect width="1.599" height="108.667" x="25.584" rx=".799"/>
                        <rect width="1.599" height="108.667" x="51.168" rx=".799"/>
                        <rect width="1.599" height="108.667" x="76.752" rx=".799"/>
                        <rect width="1.599" height="108.667" x="102.336" rx=".799"/>
                        <rect width="1.599" height="108.667" x="127.92" rx=".799"/>
                        <rect width="1.599" height="108.667" x="153.504" rx=".799"/>
                    </g>
                    <g transform="translate(280.66 70.314)">
                        <rect width="1.599" height="28.765" y="41.549" fill="url(#f)" rx=".799"/>
                        <rect width="1.599" height="47.941" x="25.584" y="22.373" fill="url(#g)" rx=".799"/>
                        <rect width="1.599" height="35.956" x="51.168" y="34.358" fill="url(#h)" rx=".799"/>
                        <rect width="1.599" height="70.314" x="76.752" fill="url(#i)" rx=".799"/>
                        <rect width="1.599" height="9.588" x="127.92" y="60.726" fill="url(#j)" rx=".799"/>
                        <rect width="1.599" height="51.138" x="153.504" y="19.177" fill="url(#k)" rx=".799"/>
                    </g>
                    <path fill="#666" d="M299.033 206.947v-1.062l2.83-2.773c.8-.807 1.215-1.294 1.215-1.974 0-.767-.591-1.238-1.359-1.238-.807 0-1.359.511-1.35 1.35h-1.408c0-1.55 1.16-2.557 2.782-2.557 1.64 0 2.719 1.071 2.719 2.43 0 .99-.496 1.733-1.92 3.116l-1.406 1.422v.056h3.477v1.23h-5.58zm9.81.16c-1.967 0-3.134-1.558-3.134-4.219 0-2.66 1.175-4.187 3.134-4.187 1.95 0 3.134 1.534 3.134 4.187 0 2.669-1.175 4.22-3.134 4.211v.008zm0-1.246c1.015 0 1.647-1.015 1.647-2.973 0-1.941-.64-2.956-1.647-2.956-1.008 0-1.647 1.015-1.647 2.956 0 1.958.631 2.973 1.647 2.973zm6.995-7.048h1.8l2.422 5.897h.096l2.414-5.897h1.799v8.134h-1.415v-5.593h-.072l-2.247 5.57h-1.063l-2.247-5.578h-.08v5.601h-1.407v-8.134zm11.825 8.254c-1.167 0-2.047-.64-2.047-1.838 0-1.366 1.136-1.725 2.319-1.845 1.08-.12 1.519-.136 1.519-.56v-.016c0-.599-.368-.942-1.04-.942-.703 0-1.11.36-1.255.775l-1.343-.192c.32-1.11 1.303-1.678 2.59-1.678 1.168 0 2.479.48 2.479 2.093v4.083h-1.383v-.839h-.048c-.264.512-.832.96-1.791.96zm.376-1.055c.863 0 1.415-.575 1.415-1.254v-.72c-.192.153-.944.24-1.32.296-.639.096-1.127.32-1.127.88 0 .527.432.798 1.032.798zm4.141.935v-6.104h1.391v1.023h.064a1.519 1.519 0 0 1 1.511-1.111c.32 0 .6.088.816.224l-.448 1.198a1.182 1.182 0 0 0-.56-.128c-.76 0-1.335.544-1.335 1.31v3.588h-1.439zm17.541-4.01v1.102h-11.193v-1.103h11.193zm3.246 4.01v-1.062l2.822-2.773c.8-.807 1.216-1.294 1.216-1.974 0-.767-.584-1.238-1.36-1.238-.807 0-1.359.511-1.35 1.35h-1.4c0-1.55 1.16-2.557 2.774-2.557 1.647 0 2.719 1.071 2.727 2.43 0 .99-.504 1.733-1.92 3.116l-1.414 1.422v.056h3.486v1.23h-5.58zm7.092 0l3.461-6.847v-.056h-4.013v-1.23h5.54v1.254l-3.453 6.88h-1.535zm8.81-8.134h1.807l2.414 5.897h.096l2.415-5.897h1.807v8.134h-1.415v-5.593h-.08l-2.239 5.57h-1.071l-2.247-5.578h-.08v5.601h-1.415v-8.134h.008zm11.833 8.254c-1.168 0-2.047-.64-2.047-1.838 0-1.366 1.135-1.725 2.319-1.845 1.079-.12 1.51-.136 1.51-.56v-.016c0-.599-.367-.942-1.039-.942-.695 0-1.103.36-1.247.775l-1.343-.192c.32-1.11 1.303-1.678 2.59-1.678 1.16 0 2.479.48 2.479 2.093v4.083h-1.383v-.839h-.048c-.264.512-.84.96-1.791.96zm.367-1.055c.872 0 1.416-.575 1.416-1.254v-.72c-.184.153-.944.24-1.32.296-.64.096-1.119.32-1.119.88 0 .527.424.798 1.023.798zm4.142.935v-6.104h1.399v1.023h.064a1.519 1.519 0 0 1 1.503-1.111c.328 0 .608.088.823.224l-.447 1.198a1.216 1.216 0 0 0-.568-.128c-.751 0-1.335.544-1.335 1.31v3.588h-1.44zm7.14 0v-1.062l2.822-2.773c.8-.807 1.223-1.294 1.223-1.974 0-.767-.592-1.238-1.36-1.238-.815 0-1.358.511-1.358 1.35h-1.4c0-1.55 1.16-2.557 2.775-2.557 1.647 0 2.718 1.071 2.726 2.43 0 .99-.504 1.733-1.919 3.116l-1.415 1.422v.056h3.486v1.23h-5.58zm9.801.16c-1.959 0-3.134-1.558-3.134-4.219 0-2.66 1.183-4.187 3.134-4.187 1.959 0 3.142 1.534 3.142 4.187 0 2.669-1.175 4.22-3.142 4.211v.008zm0-1.246c1.024 0 1.655-1.015 1.655-2.973 0-1.941-.64-2.956-1.655-2.956-1.007 0-1.639 1.015-1.647 2.956 0 1.958.64 2.973 1.647 2.973zm7.38-7.048v8.134h-1.44v-6.256h-.071c-.16.256-.768.607-1.68.607V200.1c1.12 0 1.775-.927 1.807-1.287h1.384zm4.733-.136c1.567.008 3.11.967 3.118 3.956-.008 2.796-1.248 4.426-3.198 4.426-1.543 0-2.607-.983-2.775-2.325h1.448a1.279 1.279 0 0 0 1.327 1.047c1.119 0 1.759-1.039 1.759-2.773h-.056c-.392.695-1.152 1.119-2.031 1.119-1.431 0-2.527-1.103-2.527-2.645 0-1.598 1.176-2.813 2.935-2.805zm0 1.199c-.856 0-1.503.687-1.503 1.574 0 .879.631 1.558 1.495 1.558.855 0 1.519-.719 1.519-1.566 0-.847-.64-1.574-1.503-1.574l-.008.008z"/>
                </g>
                <g filter="url(#l)" transform="translate(268.038 261.22)">
                    <rect width="44.671" height="44.996" fill="#FFF" fill-rule="nonzero" rx="12.96"/>
                    <path d="M31.98 32.068V12.923H12.696v19.145z"/>
                    <path fill="url(#m)" fill-rule="nonzero" d="M7.18 4.821H.797A.8.8 0 0 1 0 4.018a.8.8 0 0 1 .798-.804h6.381V1.446a.804.804 0 0 1 .414-.698.793.793 0 0 1 .807.023l4.076 2.572a.805.805 0 0 1 0 1.358L8.4 7.27a.793.793 0 0 1-.81.022.804.804 0 0 1-.41-.704V4.82z" transform="matrix(0 -1 -1 0 26.356 28.877)"/>
                    <g fill-rule="nonzero">
                        <path fill="#111" d="M67.964 19.413c-1.93 0-3.326-1.157-3.366-2.772h1.906c.048.723.678 1.221 1.452 1.221.925 0 1.58-.675 1.58-1.647 0-.98-.67-1.663-1.604-1.663-.55 0-1.1.24-1.388.626l-1.747-.313.439-4.934h5.68v1.623h-4.069l-.24 2.339h.057c.319-.458 1.029-.804 1.842-.804 1.676 0 2.92 1.286 2.912 3.078 0 1.888-1.404 3.246-3.47 3.246h.016zm8.137 0c-2.043 0-3.494-1.141-3.526-2.772h1.978c.032.683.686 1.14 1.548 1.14.9 0 1.531-.514 1.531-1.253 0-.755-.654-1.285-1.707-1.285h-.861v-1.447h.861c.893 0 1.516-.498 1.516-1.237 0-.7-.535-1.19-1.325-1.19-.797 0-1.451.467-1.475 1.174h-1.883c.032-1.607 1.46-2.732 3.366-2.732 1.923 0 3.207 1.157 3.2 2.627 0 1.053-.71 1.792-1.756 1.977v.08c1.372.169 2.106.997 2.098 2.17.008 1.59-1.483 2.748-3.565 2.748zm4.714-1.768v-1.559l3.877-6.155h2.457v6.123h1.148v1.583H87.15v1.647h-1.875v-1.647h-4.467l.008.008zm4.491-1.59v-3.962h-.072l-2.44 3.889v.08h2.512v-.008zm4.036 1.582v-1.55L93.22 9.93h2.45v6.123h1.156v1.583h-1.157v1.647h-1.874v-1.647h-4.452zm4.491-1.583v-3.961h-.08l-2.44 3.889v.08h2.52v-.008zm4.882 3.35c-.599 0-1.085-.489-1.085-1.092 0-.604.486-1.093 1.085-1.093.583 0 1.085.49 1.093 1.085-.008.61-.51 1.1-1.093 1.1zm5.552 0c-2.09 0-3.605-1.124-3.597-2.635 0-1.173.877-2.121 2.01-2.314v-.064a2.07 2.07 0 0 1-1.667-2.065c0-1.446 1.372-2.523 3.254-2.523 1.875 0 3.255 1.068 3.263 2.523 0 1.02-.702 1.864-1.675 2.065v.072a2.389 2.389 0 0 1 2.018 2.314c0 1.519-1.516 2.644-3.606 2.644v-.016zm0-1.446c.934 0 1.564-.554 1.564-1.341 0-.812-.662-1.399-1.564-1.399-.901 0-1.555.587-1.555 1.399 0 .787.622 1.341 1.555 1.341zm0-4.178c.782 0 1.34-.514 1.34-1.253 0-.723-.55-1.23-1.34-1.23-.797 0-1.34.498-1.34 1.23 0 .739.559 1.253 1.34 1.253zm8.488 5.705c-2.345 0-3.757-1.792-3.75-4.87 0-3.053 1.42-4.812 3.75-4.812 2.321 0 3.749 1.76 3.749 4.82-.008 3.078-1.42 4.87-3.75 4.87v-.008zm0-1.631c1.06 0 1.747-1.077 1.739-3.238 0-2.121-.686-3.19-1.74-3.19-1.06 0-1.754 1.069-1.754 3.19 0 2.161.686 3.238 1.755 3.238z"/>
                        <path fill="#666" d="M67.07 29.143v7.015h-1.236v-5.384h-.056c-.135.21-.654.515-1.436.515V30.26c.958 0 1.516-.803 1.548-1.117h1.18zm1.891 7.015l2.952-5.906v-.048h-3.43v-1.06h4.738v1.084l-2.944 5.93h-1.316zm10.282-7.015h1.245v4.934c0 1.358-.902 2.17-2.242 2.17-1.22 0-2.153-.66-2.153-1.953h1.244c.016.562.39.916.957.916.598 0 .942-.394.95-1.133v-4.934zm5.752 4.805v-3.053h1.236v5.263h-1.196v-.932h-.056c-.24.586-.79 1.004-1.572 1.004-1.02 0-1.739-.723-1.739-1.984v-3.351h1.229v3.158c0 .667.399 1.092.99 1.092.542 0 1.116-.401 1.116-1.205l-.008.008zm3.59-.876v3.086h-1.229v-5.263h1.173v.9h.064c.239-.587.773-.964 1.555-.964 1.077 0 1.795.723 1.787 1.976v3.35h-1.229V33c0-.699-.382-1.125-1.013-1.125-.654 0-1.108.442-1.108 1.205v-.008zm6.78 3.19c-1.571 0-2.537-1.052-2.537-2.7 0-1.623.981-2.731 2.473-2.731 1.284 0 2.393.803 2.393 2.651v.386H94.05c.016.9.542 1.43 1.332 1.43.534 0 .941-.24 1.109-.683l1.148.129c-.215.916-1.053 1.518-2.273 1.518zm-1.308-3.23h2.449c0-.723-.479-1.237-1.189-1.237-.734 0-1.228.562-1.26 1.237zm6.812 3.126v-.916l2.417-2.387c.686-.699 1.037-1.124 1.037-1.703 0-.667-.494-1.069-1.157-1.069-.694 0-1.156.442-1.156 1.157h-1.197c0-1.325.99-2.193 2.37-2.193 1.411 0 2.329.916 2.329 2.089 0 .86-.423 1.503-1.636 2.684l-1.212 1.229v.048h2.983v1.06h-4.778zm8.392.136c-1.675 0-2.688-1.341-2.688-3.64 0-2.29 1.013-3.607 2.688-3.607 1.675 0 2.68 1.326 2.68 3.616 0 2.298-1.005 3.631-2.68 3.631zm0-1.076c.87 0 1.404-.876 1.404-2.563 0-1.664-.543-2.548-1.404-2.548-.87 0-1.404.884-1.412 2.548 0 1.687.542 2.57 1.412 2.57v-.007zm6.302-6.075v7.015h-1.229v-5.384h-.064c-.135.21-.654.515-1.435.515V30.26c.957 0 1.523-.803 1.555-1.117h1.173zm4.06 7.111c-1.356 0-2.37-.835-2.409-2.008h1.228c.04.578.55.98 1.181.98.742 0 1.276-.563 1.276-1.342 0-.796-.55-1.366-1.316-1.366-.415 0-.853.169-1.093.434l-1.14-.193.367-3.616h4.036v1.06h-2.991l-.2 1.865h.04c.255-.313.758-.538 1.324-.538 1.26 0 2.194.972 2.194 2.33 0 1.39-1.03 2.394-2.497 2.394zm4.627-1.052l-.048.377c-.096.86-.47 1.856-.638 2.29h-.822c.096-.41.335-1.366.399-2.29l.024-.377h1.085zm5.887-6.059v7.015H128.9v-5.384h-.056c-.135.21-.654.515-1.435.515V30.26c.957 0 1.515-.803 1.547-1.117h1.18zm1.69 7.015v-.916l2.418-2.387c.678-.699 1.037-1.124 1.037-1.703 0-.667-.503-1.069-1.165-1.069-.694 0-1.156.442-1.156 1.157h-1.197c0-1.325.99-2.193 2.37-2.193 1.411 0 2.328.916 2.336 2.089 0 .86-.43 1.503-1.643 2.684l-1.204 1.229v.048h2.975v1.06h-4.77zm6.582-.964a.745.745 0 0 1-.742-.748c0-.412.332-.747.742-.747a.76.76 0 0 1 .75.747.76.76 0 0 1-.75.748zm0-3.536a.745.745 0 0 1-.742-.747c0-.413.332-.747.742-.747.399 0 .742.337.75.747a.762.762 0 0 1-.75.755v-.008zm1.922 4.5v-.916l2.417-2.387c.686-.699 1.037-1.124 1.037-1.703 0-.667-.494-1.069-1.156-1.069-.694 0-1.157.442-1.157 1.157h-1.197c0-1.325.99-2.193 2.37-2.193 1.412 0 2.329.916 2.329 2.089 0 .86-.423 1.503-1.635 2.684l-1.213 1.229v.048h2.984v1.06h-4.779zm8.312.096c-1.467 0-2.52-.82-2.552-2.008h1.276c.032.578.574.94 1.276.94.742 0 1.277-.418 1.277-1.045s-.527-1.077-1.404-1.077h-.615v-.98h.615c.718 0 1.22-.402 1.22-1.02 0-.587-.43-.98-1.077-.98-.638 0-1.188.36-1.204.956h-1.22c.031-1.182 1.076-1.993 2.432-1.993 1.388 0 2.29.876 2.29 1.944 0 .788-.503 1.35-1.26 1.519v.056c.98.137 1.515.764 1.515 1.647 0 1.182-1.077 2.041-2.569 2.041z"/>
                    </g>
                </g>
                <g transform="translate(266.49 315.9)">
                    <rect width="44.658" height="44.996" fill="#FFF" fill-rule="nonzero" rx="12.96"/>
                    <path d="M31.974 12.931v19.14H12.69V12.93z"/>
                    <path fill="#C9C5CF" fill-rule="nonzero" d="M21.528 23.299v-6.38a.8.8 0 0 1 .804-.798.8.8 0 0 1 .803.798v6.38h1.768c.291.002.558.16.698.413a.792.792 0 0 1-.023.807l-2.571 4.075a.805.805 0 0 1-1.358 0l-2.571-4.075a.792.792 0 0 1-.021-.81.805.805 0 0 1 .704-.41h1.767z"/>
                    <g fill-rule="nonzero">
                        <path fill="#F08D8D" d="M69.204 13.877v1.43h-4.657v-1.43h4.657zm1.492 5.407v-1.422l3.301-3.085c.83-.804 1.292-1.326 1.3-2.074 0-.82-.622-1.333-1.435-1.333-.862 0-1.436.546-1.436 1.446H70.56c0-1.84 1.364-3.013 3.31-3.013 2.001 0 3.27 1.261 3.27 2.876 0 1.206-.615 2.081-2.25 3.584l-1.363 1.342v.064h3.788v1.615h-6.62zm8.022 0v-1.422l3.302-3.085c.821-.804 1.292-1.326 1.3-2.074-.008-.82-.622-1.333-1.444-1.333-.853 0-1.435.546-1.435 1.446h-1.858c0-1.84 1.355-3.013 3.31-3.013 1.993 0 3.26 1.261 3.269 2.876 0 1.206-.614 2.081-2.257 3.584l-1.356 1.342v.064h3.78v1.615H78.71h.008zm11.34.129c-2.041 0-3.493-1.141-3.525-2.772h1.986c.04.683.686 1.14 1.547 1.14.901 0 1.54-.514 1.531-1.253 0-.755-.653-1.285-1.706-1.285h-.861v-1.447h.86c.894 0 1.516-.498 1.516-1.237 0-.7-.526-1.19-1.324-1.19-.797 0-1.451.467-1.467 1.174h-1.882c.024-1.607 1.46-2.732 3.357-2.732 1.922 0 3.206 1.157 3.198 2.627.008 1.053-.71 1.792-1.746 1.977v.08c1.363.169 2.097.997 2.097 2.17 0 1.59-1.491 2.748-3.573 2.748h-.008zm4.713-1.768v-1.559l3.876-6.155h2.456v6.123h1.149v1.583h-1.149v1.647H99.23v-1.647h-4.458v.008zm4.49-1.59v-3.962h-.072l-2.44 3.889v.08h2.512v-.008zm4.889 3.35c-.6 0-1.085-.49-1.085-1.093 0-.604.486-1.093 1.085-1.093.574 0 1.084.49 1.084 1.085 0 .61-.51 1.1-1.084 1.1zm2.384-1.768v-1.55l3.868-6.156h2.456v6.123h1.156v1.583h-1.156v1.647h-1.874v-1.647h-4.45zm4.49-1.583v-3.961h-.08l-2.44 3.889v.08h2.52v-.008zm7.56 3.359c-1.922 0-3.326-1.157-3.358-2.772h1.898c.048.723.678 1.221 1.46 1.221.917 0 1.579-.675 1.579-1.647 0-.98-.678-1.663-1.611-1.663-.542 0-1.1.24-1.38.626l-1.754-.313.446-4.934h5.67v1.623h-4.05l-.24 2.339h.048c.327-.458 1.037-.804 1.85-.804 1.675 0 2.91 1.286 2.903 3.078.008 1.888-1.396 3.246-3.461 3.246z"/>
                        <path fill="#666" d="M64.467 36.158v-.916l2.417-2.387c.686-.699 1.037-1.124 1.037-1.703 0-.667-.495-1.069-1.157-1.069-.694 0-1.156.442-1.156 1.157h-1.196c0-1.325.989-2.193 2.368-2.193 1.412 0 2.329.916 2.329 2.089 0 .86-.423 1.503-1.635 2.684l-1.212 1.229v.048h2.982v1.06h-4.777zm8.366.096c-1.34 0-2.664-.835-2.664-3.407 0-2.41 1.061-3.816 2.736-3.816 1.308 0 2.217.851 2.368 2.009H74.03a1.102 1.102 0 0 0-1.124-.908c-.973 0-1.507.891-1.515 2.386h.055a1.95 1.95 0 0 1 1.739-.964c1.22 0 2.153.964 2.153 2.282 0 1.39-1.005 2.426-2.504 2.41v.008zm-.008-1.028c.734 0 1.292-.595 1.292-1.366 0-.747-.542-1.342-1.276-1.342-.742 0-1.3.619-1.308 1.358 0 .731.542 1.35 1.292 1.35zm5.822-6.083h1.547l2.073 5.086h.08l2.065-5.086h1.54v7.015h-1.213v-4.821h-.064l-1.914 4.797h-.909l-1.922-4.797h-.071v4.82h-1.205v-7.014h-.007zm10.12 7.12c-.997 0-1.755-.547-1.755-1.584 0-1.18.973-1.486 1.994-1.599.917-.096 1.284-.112 1.284-.466v-.024c0-.514-.311-.811-.878-.811-.606 0-.957.305-1.076.667l-1.149-.161c.272-.964 1.117-1.454 2.217-1.454.99 0 2.114.417 2.114 1.808v3.519h-1.18v-.723h-.04c-.224.442-.718.827-1.532.827zm.318-.909c.742 0 1.213-.498 1.213-1.084v-.62c-.16.13-.806.21-1.133.258-.55.08-.957.281-.957.755 0 .45.367.691.877.691zm3.541.804v-5.263h1.196v.884h.048c.192-.61.686-.956 1.292-.956.28 0 .518.08.702.192l-.383 1.029a1.11 1.11 0 0 0-.486-.113c-.638 0-1.14.474-1.14 1.133v3.094h-1.229zm6.1 0v-.916l2.417-2.387c.678-.699 1.037-1.124 1.037-1.703 0-.667-.503-1.069-1.156-1.069-.694 0-1.165.442-1.157 1.157h-1.196c0-1.325.98-2.193 2.368-2.193 1.404 0 2.321.916 2.33 2.089 0 .86-.432 1.503-1.644 2.684l-1.204 1.229v.048h2.975v1.06h-4.77zm8.382.136c-1.674 0-2.68-1.341-2.68-3.64 0-2.29 1.014-3.607 2.68-3.607 1.675 0 2.68 1.326 2.68 3.616 0 2.298-.997 3.631-2.68 3.631zm0-1.076c.877 0 1.412-.876 1.412-2.563 0-1.664-.543-2.548-1.412-2.548-.861 0-1.403.884-1.403 2.548 0 1.687.542 2.57 1.403 2.57v-.007zm6.308-6.075v7.015h-1.236v-5.384h-.056c-.135.21-.654.515-1.435.515V30.26c.957 0 1.515-.803 1.547-1.117h1.18zm4.051-.112c1.332.008 2.656.835 2.656 3.407 0 2.41-1.06 3.816-2.727 3.816-1.316 0-2.233-.843-2.377-2.008h1.244c.128.562.527.907 1.133.907.957 0 1.499-.891 1.507-2.394h-.048a1.95 1.95 0 0 1-1.739.964c-1.22 0-2.16-.948-2.16-2.274 0-1.39 1.004-2.426 2.511-2.418zm0 1.028c-.733 0-1.292.595-1.292 1.366 0 .747.543 1.342 1.276 1.342.742 0 1.308-.627 1.308-1.358 0-.723-.542-1.35-1.292-1.35zm5.104 5.143l-.04.377c-.095.86-.478 1.856-.638 2.29h-.829c.096-.41.343-1.366.399-2.29l.024-.377h1.084zm5.886-6.059v7.015h-1.237v-5.384h-.055c-.136.21-.654.515-1.436.515V30.26c.957 0 1.515-.803 1.547-1.117h1.18zm4.05 7.111c-1.355 0-2.368-.835-2.392-2.008h1.22c.04.578.55.98 1.173.98.75 0 1.284-.563 1.276-1.342.008-.796-.543-1.366-1.308-1.366-.415 0-.862.169-1.093.434l-1.14-.193.367-3.616h4.035v1.06h-2.99l-.208 1.865h.048c.255-.313.757-.538 1.316-.538 1.268 0 2.2.972 2.2 2.33 0 1.39-1.036 2.394-2.503 2.394zm4.275-1.06a.744.744 0 0 1-.742-.748c0-.412.332-.747.742-.747.399 0 .742.33.742.747 0 .41-.343.748-.742.748zm0-3.536a.744.744 0 0 1-.742-.747c0-.413.332-.747.742-.747.399 0 .742.337.742.747a.755.755 0 0 1-.742.755v-.008zm4.498-2.515v7.015h-1.228v-5.384h-.056c-.136.21-.662.515-1.436.515V30.26c.957 0 1.516-.803 1.548-1.117h1.172zm1.89 7.015l2.958-5.906v-.048H142.7v-1.06h4.737v1.084l-2.95 5.93h-1.316z"/>
                    </g>
                </g>
                <g fill-rule="nonzero">
                    <g transform="translate(.651 30.775)">
                        <use fill="#000" filter="url(#n)" xlink:href="#o"/>
                        <use fill="#FFF" xlink:href="#o"/>
                    </g>
                    <path fill="url(#p)" d="M12.792 0h191.88c7.064 0 12.792 5.732 12.792 12.803v220.845H0V12.803C0 5.732 5.727 0 12.792 0z" transform="translate(.651 30.775)"/>
                    <g fill="#FFF">
                        <path d="M35.925 189.207v-4.96L47.518 173.5c2.894-2.8 4.525-4.625 4.54-7.225-.015-2.865-2.174-4.641-5.052-4.641-2.99 0-5.02 1.888-5.02 5.025h-6.54c-.017-6.401 4.788-10.482 11.608-10.482 7.028 0 11.449 4.369 11.48 10.018.017 4.169-2.158 7.241-7.906 12.498l-4.781 4.657v.224h13.287v5.633h-23.21zm40.055.449c-7.156 0-12.24-3.961-12.352-9.658h6.931c.128 2.384 2.399 3.976 5.437 3.976 3.15 0 5.372-1.784 5.356-4.377.016-2.624-2.286-4.472-5.98-4.472h-3.038v-5.057h3.038c3.134 0 5.309-1.737 5.293-4.297.016-2.457-1.839-4.137-4.621-4.137-2.814 0-5.093 1.6-5.173 4.08h-6.596c.096-5.624 5.117-9.537 11.8-9.537 6.74 0 11.242 4.04 11.226 9.178.016 3.656-2.503 6.24-6.14 6.889v.256c4.789.608 7.355 3.497 7.347 7.562.016 5.569-5.213 9.594-12.528 9.594zm16.805-6.178v-5.425l13.592-21.436h8.618v21.34h4.046v5.521h-4.046v5.73h-6.58v-5.73h-15.63zm15.758-5.52V164.13h-.255l-8.571 13.571v.256h8.826zm17.397 11.666a3.805 3.805 0 0 1-3.5-1.826 3.811 3.811 0 0 1 0-3.95 3.805 3.805 0 0 1 3.5-1.826 3.863 3.863 0 0 1 3.814 3.777 3.871 3.871 0 0 1-3.814 3.825zm19.828.032c-6.692-.032-12.968-4.081-13-16.004.032-11.05 5.197-17.571 13.24-17.571 6.508 0 10.953 4.16 11.609 9.642h-6.796c-.52-2.393-2.319-3.745-4.813-3.745-4.237 0-6.468 3.953-6.5 10.394h.224c1.463-2.88 4.629-4.6 8.203-4.6 5.772 0 10.033 4.408 10.017 10.521.016 6.642-4.933 11.395-12.176 11.363h-.008zm-.024-5.41c3.174 0 5.549-2.504 5.533-5.76.016-3.233-2.311-5.73-5.485-5.73-3.166 0-5.572 2.577-5.58 5.745 0 3.177 2.35 5.745 5.532 5.745zm16.965 4.961v-32.59h6.772v17.427h.368l7.819-9.282h7.78l-9.067 10.587 9.522 13.858h-7.931l-6.66-9.85-1.83 2.08v7.77h-6.773zM66.458 223.614h-1.575l2.87-8.145h1.815l2.878 8.145h-1.575l-.68-2.008H67.13l-.671 2.008zm1.071-3.2h2.263l-1.096-3.28h-.064l-1.103 3.28zm8.235 3.32c-1.823 0-2.926-1.304-2.926-3.152 0-1.865 1.127-3.16 2.918-3.16 1.487 0 2.526.88 2.622 2.2h-1.375c-.112-.592-.536-1.04-1.231-1.04-.88 0-1.48.744-1.48 1.976 0 1.248.584 2 1.48 2 .64 0 1.111-.376 1.231-1.032h1.375c-.104 1.296-1.079 2.208-2.614 2.208zm6.3 0c-1.823 0-2.926-1.304-2.926-3.152 0-1.865 1.135-3.16 2.918-3.16 1.495 0 2.526.88 2.622 2.2h-1.375c-.112-.592-.535-1.04-1.223-1.04-.887 0-1.48.744-1.48 1.976 0 1.248.577 2 1.48 2 .632 0 1.103-.376 1.223-1.032h1.375c-.104 1.296-1.079 2.208-2.614 2.208zm6.308 0c-1.79 0-2.926-1.264-2.926-3.152 0-1.889 1.135-3.16 2.926-3.16 1.783 0 2.926 1.271 2.926 3.16 0 1.888-1.143 3.152-2.926 3.152zm0-1.152c.975 0 1.463-.88 1.463-2s-.48-2.017-1.455-2.017c-.991 0-1.479.897-1.479 2.017 0 1.12.48 2 1.479 2h-.008zm7.867-1.536v-3.545h1.44v6.113h-1.392v-1.088h-.064a1.887 1.887 0 0 1-1.839 1.168c-1.199 0-2.03-.832-2.03-2.296v-3.897h1.439v3.673c0 .776.455 1.264 1.15 1.264.64 0 1.296-.464 1.296-1.392zm4.197-1.008v3.576h-1.439v-6.113h1.376v1.04h.08c.271-.68.903-1.12 1.814-1.12 1.264 0 2.095.84 2.095 2.305v3.888h-1.44v-3.664c0-.816-.447-1.305-1.198-1.305-.752 0-1.28.505-1.28 1.393h-.008zm8.275-2.537v1.12h-1.199v3.145c0 .584.288.712.648.712.184 0 .343-.04.423-.056l.24 1.12c-.16.056-.432.136-.847.144-1.08.032-1.92-.528-1.903-1.68v-3.385h-.872v-1.12h.872v-1.464h1.439v1.464h1.2zm3.766 6.113v-8.145h3.118c1.759 0 2.638.896 2.638 2.112 0 .992-.623 1.545-1.423 1.737v.08c.872.04 1.743.76 1.743 2 0 1.264-.911 2.216-2.774 2.216h-3.302zm1.479-1.232h1.583c1.071 0 1.519-.456 1.519-1.104 0-.72-.568-1.28-1.479-1.28h-1.623v2.384zm0-3.448h1.455c.768 0 1.351-.449 1.351-1.16 0-.633-.447-1.089-1.319-1.089h-1.487v2.249zm7.411 4.8c-1.159 0-2.038-.64-2.038-1.84 0-1.368 1.135-1.728 2.318-1.848 1.071-.12 1.511-.136 1.511-.56v-.016c0-.6-.368-.945-1.04-.945-.703 0-1.102.36-1.246.777l-1.344-.192c.32-1.113 1.304-1.68 2.583-1.68 1.167 0 2.478.48 2.478 2.096v4.088h-1.375v-.84h-.048c-.264.512-.84.96-1.799.96zm.376-1.056c.872 0 1.415-.576 1.415-1.256v-.72c-.184.152-.943.24-1.319.296-.64.096-1.12.32-1.12.88 0 .528.424.8 1.024.8zm5.58-7.21v8.146h-1.438v-8.145h1.439zm3.079 8.266c-1.168 0-2.047-.64-2.047-1.84 0-1.368 1.135-1.728 2.318-1.848 1.08-.12 1.512-.136 1.512-.56v-.016c0-.6-.368-.945-1.04-.945-.695 0-1.103.36-1.247.777l-1.343-.192c.32-1.113 1.303-1.68 2.59-1.68 1.16 0 2.479.48 2.479 2.096v4.088h-1.383v-.84h-.048c-.264.512-.832.96-1.791.96zm.367-1.056c.872 0 1.416-.576 1.416-1.256v-.72c-.184.152-.936.24-1.32.296-.64.096-1.119.32-1.119.88 0 .528.424.8 1.023.8zm5.58-2.64v3.576h-1.438v-6.113h1.375v1.04h.08c.272-.68.903-1.12 1.815-1.12 1.263 0 2.094.84 2.094 2.305v3.888h-1.439v-3.664c0-.816-.447-1.305-1.199-1.305-.751 0-1.28.505-1.28 1.393h-.007zm7.892 3.696c-1.823 0-2.926-1.304-2.926-3.152 0-1.865 1.127-3.16 2.918-3.16 1.495 0 2.526.88 2.622 2.2h-1.375c-.112-.592-.535-1.04-1.223-1.04-.887 0-1.48.744-1.48 1.976 0 1.248.577 2 1.48 2 .632 0 1.103-.376 1.223-1.032h1.375c-.104 1.296-1.079 2.208-2.614 2.208zm6.34 0c-1.839 0-2.958-1.224-2.958-3.136 0-1.889 1.135-3.177 2.886-3.177 1.503 0 2.79.944 2.79 3.089v.44h-4.253c.016 1.048.632 1.664 1.559 1.664.616 0 1.095-.272 1.295-.792l1.343.16c-.255 1.056-1.239 1.752-2.662 1.752zm-1.527-3.752h2.862c0-.832-.56-1.44-1.391-1.44-.855 0-1.431.664-1.471 1.44z"/>
                        <g transform="translate(83.799 67.583)">
                            <ellipse cx="25.584" cy="25.605" opacity=".3" rx="25.584" ry="25.605"/>
                            <path d="M31.18 21.604h-.8v-.8a2.4 2.4 0 0 0-2.398-2.4h-7.995a2.4 2.4 0 0 0-2.398 2.4v9.602a2.4 2.4 0 0 0 2.398 2.4H31.18a2.4 2.4 0 0 0 2.399-2.4v-6.401a2.4 2.4 0 0 0-2.399-2.4zm-11.193-1.6h7.995a.8.8 0 0 1 .8.8v.8h-8.795a.8.8 0 0 1 0-1.6zm11.993 8.002h-.8a.8.8 0 0 1 0-1.6h.8v1.6zm0-3.2h-.8a2.4 2.4 0 0 0-2.398 2.4 2.4 2.4 0 0 0 2.398 2.4h.8v.8a.8.8 0 0 1-.8.8H19.987a.8.8 0 0 1-.799-.8V23.07c.257.09.527.136.8.136H31.18a.8.8 0 0 1 .8.8v.8z"/>
                        </g>
                    </g>
                    <g fill="#0DB884">
                        <path d="M86.273 292.157v13.386h-2.774v-9.922h-.12c-.288.448-1.248.993-2.719.993v-2.24c1.711 0 2.863-1.401 2.894-2.217h2.719zm3.19 13.386v-2.04l4.757-4.409c1.191-1.152 1.863-1.904 1.87-2.969-.007-1.176-.895-1.904-2.078-1.904-1.231 0-2.063.776-2.063 2.065h-2.686c0-2.633 1.967-4.313 4.765-4.313 2.886 0 4.701 1.8 4.717 4.12 0 1.713-.887 2.977-3.246 5.13l-1.967 1.92v.08h5.46v2.32h-9.53zm16.557.185c-2.742-.017-5.324-1.68-5.34-6.578.016-4.537 2.134-7.21 5.436-7.21 2.679 0 4.502 1.705 4.773 3.953h-2.79c-.216-.976-.96-1.528-1.975-1.528-1.743 0-2.662 1.616-2.67 4.265h.088a3.677 3.677 0 0 1 3.366-1.888c2.374 0 4.125 1.808 4.117 4.32 0 2.721-2.022 4.681-5.005 4.666zm-.008-2.225a2.262 2.262 0 0 0 2.271-2.36c0-1.329-.943-2.361-2.255-2.361a2.31 2.31 0 0 0-2.286 2.36c0 1.313.96 2.361 2.27 2.361zm7.891 2.208a1.567 1.567 0 0 1-1.488-2.39 1.567 1.567 0 0 1 1.488-.73c.832 0 1.56.696 1.567 1.552 0 .872-.735 1.568-1.567 1.568zm3.822-.168v-2.04l4.765-4.409c1.183-1.152 1.855-1.904 1.863-2.969 0-1.176-.896-1.904-2.079-1.904-1.223 0-2.063.776-2.063 2.065h-2.678c-.008-2.633 1.959-4.313 4.765-4.313 2.878 0 4.701 1.8 4.717 4.12 0 1.713-.895 2.977-3.246 5.13l-1.967 1.92v.08h5.461v2.32h-9.538zm16.374.184c-2.934 0-5.03-1.632-5.069-3.968h2.846c.048.984.984 1.632 2.23 1.632 1.296 0 2.207-.728 2.2-1.792.007-1.08-.936-1.84-2.455-1.84h-1.247v-2.081h1.247c1.287 0 2.183-.712 2.175-1.76 0-1.009-.76-1.697-1.903-1.697-1.152 0-2.079.656-2.119 1.68h-2.71c.04-2.32 2.102-3.92 4.845-3.92 2.766 0 4.62 1.656 4.613 3.76 0 1.513-1.031 2.56-2.527 2.833v.104c1.967.248 3.03 1.44 3.023 3.105 0 2.288-2.143 3.944-5.15 3.944zm14.359-2.696v-.704c0-1.6 1.055-2.969 2.942-2.969 1.919 0 2.958 1.352 2.95 2.969v.704c0 1.608-1.055 2.976-2.95 2.976-1.91 0-2.934-1.36-2.942-2.976zm-6.86-7.658v-.704c0-1.624 1.071-2.976 2.934-2.976 1.927 0 2.958 1.36 2.958 2.976v.704c0 1.625-1.055 2.96-2.958 2.96-1.903 0-2.934-1.351-2.934-2.96zm.64 10.17l9.194-13.386h1.703l-9.202 13.386h-1.703.008zm8.123-3.216v.704c0 .624.24 1.288 1.039 1.288.8 0 1.04-.64 1.04-1.28v-.712c0-.64-.217-1.297-1.04-1.297-.784 0-1.04.657-1.04 1.297zm-6.852-7.658v.704c0 .64.256 1.289 1.023 1.289.8 0 1.04-.64 1.04-1.28v-.72c0-.64-.216-1.297-1.04-1.297-.775 0-1.015.68-1.023 1.304zM60.729 303.143h9.162a1.599 1.599 0 0 0 1.231-2.625l-4.58-5.505a1.598 1.598 0 0 0-2.463 0l-4.581 5.505a1.601 1.601 0 0 0 1.23 2.625z"/>
                    </g>
                </g>
            </g>
            <text font-family="Inter-Regular, Inter" font-size="12.6" letter-spacing="-.21" transform="translate(-15.483 315.265)">
                <tspan x="98.789" y="166.017" fill="#FFF">₦</tspan>
            </text>
        </g>
    </g>
</svg>
