<?xml version="1.0" encoding="UTF-8"?>
<svg width="475px" height="380px" viewBox="0 0 475 380" version="1.1" xmlns="http://www.w3.org/2000/svg" xmlns:xlink="http://www.w3.org/1999/xlink">
    <!-- Generator: Sketch 58 (84663) - https://sketch.com -->
    <title>Accept payment</title>
    <desc>Created with Sketch.</desc>
    <defs>
        <rect id="path-1" x="0" y="0" width="475" height="380" rx="8"></rect>
        <rect id="path-3" x="33" y="58" width="409" height="359" rx="20"></rect>
        <filter x="-30.6%" y="-48.7%" width="185.6%" height="197.5%" filterUnits="objectBoundingBox" id="filter-4">
            <feOffset dx="50" dy="0" in="SourceAlpha" result="shadowOffsetOuter1"></feOffset>
            <feGaussianBlur stdDeviation="50" in="shadowOffsetOuter1" result="shadowBlurOuter1"></feGaussianBlur>
            <feColorMatrix values="0 0 0 0 0.857945884   0 0 0 0 0.88162157   0 0 0 0 1  0 0 0 0.232681381 0" type="matrix" in="shadowBlurOuter1"></feColorMatrix>
        </filter>
        <rect id="path-5" x="35" y="83" width="388" height="275" rx="12"></rect>
        <filter x="-21.9%" y="-23.6%" width="143.8%" height="161.8%" filterUnits="objectBoundingBox" id="filter-6">
            <feOffset dx="0" dy="20" in="SourceAlpha" result="shadowOffsetOuter1"></feOffset>
            <feGaussianBlur stdDeviation="25" in="shadowOffsetOuter1" result="shadowBlurOuter1"></feGaussianBlur>
            <feColorMatrix values="0 0 0 0 0.756862745   0 0 0 0 0.780392157   0 0 0 0 0.815686275  0 0 0 0.168405813 0" type="matrix" in="shadowBlurOuter1"></feColorMatrix>
        </filter>
    </defs>
    <g id="Iteration-2" stroke="none" stroke-width="1" fill="none" fill-rule="evenodd">
        <g id="Accept-payment">
            <g id="Elements-/-Placeholder-/-Radius-8px">
                <g id="Bitmap">
                    <mask id="mask-2" fill="white">
                        <use xlink:href="#path-1"></use>
                    </mask>
                    <use id="Mask" fill="#FAFBFF" xlink:href="#path-1"></use>
                    <g id="Rectangle" mask="url(#mask-2)">
                        <use fill="black" fill-opacity="1" filter="url(#filter-4)" xlink:href="#path-3"></use>
                        <use fill="#FFFFFF" fill-rule="evenodd" xlink:href="#path-3"></use>
                    </g>
                    <g id="Rectangle" mask="url(#mask-2)">
                        <use fill="black" fill-opacity="1" filter="url(#filter-6)" xlink:href="#path-5"></use>
                        <use fill="#FFFFFF" fill-rule="evenodd" xlink:href="#path-5"></use>
                    </g>
                    <g id="Group-36" mask="url(#mask-2)">
                        <g transform="translate(60.000000, 105.000000)">
                            <rect id="Rectangle-Copy-8" fill="#008CED" fill-rule="evenodd" x="0" y="0" width="356" height="75" rx="12"></rect>
                            <text id="****-****-****-3728" fill="none" font-family="Nunito-Regular, Nunito" font-size="18" font-weight="normal" letter-spacing="2">
                                <tspan x="102" y="44" fill="#FFFFFF">**** **** **** 3728</tspan>
                            </text>
                            <g id="Group-35" stroke-width="1" fill="none" fill-rule="evenodd" transform="translate(0.000000, 86.000000)">
                                <rect id="Rectangle-Copy-11" fill-opacity="0.274612107" fill="#E0E3F0" x="0" y="0" width="356" height="75" rx="12"></rect>
                                <g id="Mastercard" transform="translate(20.000000, 23.000000)" fill-rule="nonzero">
                                    <ellipse id="Oval" fill="#EE0005" cx="13.644761" cy="14.1385714" rx="13.644761" ry="14.1385714"></ellipse>
                                    <ellipse id="Oval" fill="#F9A000" cx="30.5973116" cy="14.1385714" rx="13.644761" ry="14.1385714"></ellipse>
                                    <path d="M16.9527574,14.1383571 C16.9527574,18.6276429 18.9723805,22.6278214 22.1211397,25.2176786 C25.2697955,22.6277143 27.2895221,18.6276429 27.2895221,14.1383571 C27.2895221,9.64907143 25.2698989,5.64889286 22.1211397,3.05903571 C18.9724839,5.64910714 16.9527574,9.64917857 16.9527574,14.1383571 Z" id="Path" fill="#FF6300"></path>
                                </g>
                                <text id="****-****-****-9264" font-family="Nunito-Regular, Nunito" font-size="18" font-weight="normal" letter-spacing="2" fill="#89A3BF">
                                    <tspan x="102" y="44">**** **** **** 9264</tspan>
                                </text>
                            </g>
                            <g id="Group-34" opacity="0.476748512" stroke-width="1" fill="none" fill-rule="evenodd" transform="translate(0.000000, 171.000000)">
                                <rect id="Rectangle-Copy-12" fill-opacity="0.274612107" fill="#E0E3F0" x="0" y="0" width="356" height="75" rx="12"></rect>
                                <g id="Verve-Logo" transform="translate(20.000000, 27.000000)" fill-rule="nonzero">
                                    <g id="Group" transform="translate(28.565217, 10.742188) rotate(-90.000000) translate(-28.565217, -10.742188) translate(18.565217, -17.257812)">
                                        <path d="M9.9927125,19.4182004 C4.5000125,19.4182004 0.047325,15.0910768 0.047325,9.75326855 C0.047325,4.41521735 4.5000125,0.0879722343 9.9927125,0.0879722343 C15.4854125,0.0879722343 19.9381,4.41521735 19.9381,9.75326855 C19.9381,15.0910768 15.4854125,19.4182004 9.9927125,19.4182004" id="Path" fill="#ED342B"></path>
                                        <path d="M5.7326,9.75313492 C10.7751375,7.59127983 15.485825,6.00615184 15.485825,6.00615184 L15.485825,2.69203297 C15.485825,2.69203297 9.4396375,4.70916269 1.8785125,8.4560243 L1.8785125,11.0502577 C9.4396375,14.7971193 15.485825,16.8141154 15.485825,16.8141154 L15.485825,13.4999965 C15.485825,13.4999965 10.7751375,11.9150022 5.7326,9.75313492" id="Path" fill="#FEFEFE"></path>
                                        <path d="M10.5114,51.3766351 C10.5114,49.5031375 8.4353625,49.3592625 8.4353625,49.3592625 L8.4353625,53.3936434 C8.4353625,53.3936434 10.5114,53.2497562 10.5114,51.3766351 M6.3597,55.8435037 L6.3597,49.3592625 C6.3597,49.3592625 4.135225,49.5031375 4.135225,52.3853761 C4.135225,53.826131 4.580525,55.2671289 4.580525,55.2671289 L2.208125,55.5554985 C2.208125,55.5554985 1.61465,54.1145007 1.61465,52.0970065 C1.61465,49.2151323 3.0975875,46.6213848 7.2492875,46.6213848 C10.5114,46.6213848 12.5873125,48.638879 12.5873125,51.5207531 C12.5873125,55.8435037 8.139,56.1315089 6.3597,55.8435037 M9.8632625,33.7946395 L12.3115,34.2408538 C12.3115,34.2408538 13.38725,30.7956026 11.393675,27.9953232 L1.6007125,27.9953232 L1.6007125,30.9692269 L9.557525,30.9692269 C10.475225,32.1587714 9.8632625,33.7946395 9.8632625,33.7946395 M10.5114,21.3985354 C10.5114,19.5254143 8.4353625,19.3814056 8.4353625,19.3814056 L8.4353625,23.415908 C8.4353625,23.415908 10.5114,23.272033 10.5114,21.3985354 M6.3597,25.8654161 L6.3597,19.3814056 C6.3597,19.3814056 4.135225,19.5254143 4.135225,22.4072885 C4.135225,23.8479219 4.580525,25.2890412 4.580525,25.2890412 L2.208125,25.5774108 C2.208125,25.5774108 1.61465,24.1362915 1.61465,22.1189189 C1.61465,19.2370447 3.0975875,16.6431757 7.2492875,16.6431757 C10.5114,16.6431757 12.5873125,18.6606698 12.5873125,21.542544 C12.5873125,25.8654161 8.139,26.1534213 6.3597,25.8654161 M5.3435125,41.0522516 C9.07315,39.5421709 12.585525,38.7874221 12.585525,38.7874221 L12.58515,35.7678681 C12.58515,35.7678681 6.5868,37.2778273 1.6164875,39.8448625 L1.6164875,42.2596408 C6.5868,44.8267974 12.584275,46.3367566 12.584275,46.3367566 L12.584275,43.317069 C12.584275,43.317069 9.07315,42.5623323 5.3435125,41.0522516" id="Shape" fill="#03435F"></path>
                                    </g>
                                </g>
                                <text id="****-****-****-9264-copy" font-family="Nunito-Regular, Nunito" font-size="18" font-weight="normal" letter-spacing="2" fill="#89A3BF">
                                    <tspan x="102" y="44">**** **** **** 9264</tspan>
                                </text>
                            </g>
                            <g id="visa-pay-logo" stroke-width="1" fill="none" fill-rule="evenodd" transform="translate(20.000000, 28.000000)">
                                <polygon id="Path" fill="#FFFFFF" fill-rule="nonzero" points="22.9836 0.9588 20.0664 18.078 24.732 18.078 27.6516 0.9588"></polygon>
                                <path d="M16.1544,0.978 L11.5848,12.6528 L11.0976,10.89 C10.1964,8.766 7.638,5.7156 4.6344,3.7932 L8.8128,18.0696 L13.7496,18.0612 L21.0972,0.9744 L16.1544,0.978 Z" id="Path" fill="#FFFFFF" fill-rule="nonzero"></path>
                                <path d="M9.3264,2.2032 C9.0552,1.1604 8.2692,0.8496 7.2936,0.8124 L0.06,0.8124 L0,1.1532 C5.6292,2.5188 9.354,5.8092 10.8996,9.7656 L9.3264,2.2032 Z" id="Path" fill="#FFFFFF" fill-rule="nonzero"></path>
                                <path d="M37.1076,4.2408 C38.634,4.2168 39.7404,4.5504 40.5996,4.896 L41.0208,5.094 L41.652,1.3836 C40.728,1.0368 39.2796,0.6648 37.4724,0.6648 C32.862,0.6648 29.6124,2.9868 29.5872,6.3144 C29.5572,8.7732 31.902,10.146 33.6732,10.9656 C35.4912,11.8056 36.1008,12.3396 36.0924,13.0896 C36.078,14.2356 34.6428,14.7612 33.3024,14.7612 C31.434,14.7612 30.4416,14.5032 28.9092,13.8648 L28.308,13.5912 L27.6516,17.4228 C28.7436,17.9016 30.7584,18.3132 32.85,18.3348 C37.7544,18.3348 40.9416,16.0404 40.9752,12.4848 C40.9956,10.5396 39.7512,9.0552 37.0548,7.8372 C35.4228,7.0428 34.4244,6.5148 34.434,5.7132 C34.434,5.0016 35.2812,4.2408 37.1076,4.2408 Z" id="Path" fill="#FFFFFF" fill-rule="nonzero"></path>
                                <path d="M53.6256,0.978 L50.0208,0.978 C48.9012,0.978 48.0684,1.2828 47.5764,2.3988 L40.6488,18.0876 L45.5484,18.0876 C45.5484,18.0876 46.3476,15.978 46.5288,15.516 C47.0652,15.516 51.8256,15.5232 52.5036,15.5232 C52.6428,16.1208 53.0724,18.0876 53.0724,18.0876 L57.4008,18.0876 L53.6256,0.978 Z M47.8716,12.012 C48.2556,11.0292 49.7304,7.2276 49.7304,7.2276 C49.7052,7.2744 50.1108,6.2376 50.352,5.5932 L50.6664,7.0692 C50.6664,7.0692 51.5604,11.1564 51.7476,12.012 L47.8716,12.012 Z" id="Shape" fill="#FFFFFF" fill-rule="nonzero"></path>
                            </g>
                        </g>
                    </g>
                </g>
            </g>
        </g>
    </g>
</svg>