<svg xmlns="http://www.w3.org/2000/svg" width="50" height="50" viewBox="0 0 50 50">
    <g fill="none" fill-rule="evenodd" transform="translate(.915 .15)">
        <circle cx="24.5" cy="24.5" r="24.5" fill="#EFF2F6"/>
        <path d="M12.25 12.25h25v25h-25z"/>
        <path fill="#18214D" d="M16.417 25.792h6.25c.573 0 1.041-.47 1.041-1.042v-8.333c0-.573-.468-1.042-1.041-1.042h-6.25c-.573 0-1.042.469-1.042 1.042v8.333c0 .573.469 1.042 1.042 1.042zm0 8.333h6.25c.573 0 1.041-.469 1.041-1.042v-4.166c0-.573-.468-1.042-1.041-1.042h-6.25c-.573 0-1.042.469-1.042 1.042v4.166c0 .573.469 1.042 1.042 1.042zm10.416 0h6.25c.573 0 1.042-.469 1.042-1.042V24.75c0-.573-.469-1.042-1.042-1.042h-6.25c-.573 0-1.041.47-1.041 1.042v8.333c0 .573.468 1.042 1.041 1.042zm-1.041-17.708v4.166c0 .573.468 1.042 1.041 1.042h6.25c.573 0 1.042-.469 1.042-1.042v-4.166c0-.573-.469-1.042-1.042-1.042h-6.25c-.573 0-1.041.469-1.041 1.042z"/>
    </g>
</svg>
