<svg xmlns="http://www.w3.org/2000/svg" width="71" height="31" viewBox="0 0 71 31">
    <path fill="#18214D" fill-rule="evenodd" d="M4.984 12.147c0-.806.64-1.117 1.684-1.117 1.504 0 3.383.476 4.887 1.325V7.49c-1.629-.683-3.258-.952-4.887-.952C2.66 6.54 0 8.733 0 12.396c0 5.712 7.49 4.801 7.49 7.264 0 .951-.78 1.262-1.894 1.262-1.628 0-3.717-.704-5.373-1.655v4.925a13.032 13.032 0 0 0 5.373 1.18c4.107 0 6.933-2.132 6.933-5.837-.027-6.166-7.545-5.07-7.545-7.388zM18.32 2.401l-4.817 1.076-.014 16.576c0 3.063 2.186 5.318 5.11 5.318 1.614 0 2.797-.31 3.452-.683v-4.2c-.627.268-3.745 1.22-3.745-1.842v-7.347h3.745V6.891h-3.745l.014-4.49zm9.856 6.022l-.306-1.532h-4.26V25h4.928V12.727c1.156-1.593 3.133-1.304 3.745-1.076V6.89c-.626-.248-2.937-.703-4.107 1.532zm5.304-1.532h4.956V25h-4.956V6.89zm0-1.573l4.956-1.117V0l-4.956 1.097v4.221zM48.74 6.54c-1.935 0-3.188.952-3.87 1.615l-.264-1.283h-4.33V31l4.928-1.097.014-5.856c.71.538 1.754 1.304 3.495 1.304 3.536 0 6.752-2.98 6.752-9.54-.028-6.002-3.272-9.272-6.725-9.272zm-1.183 14.259c-1.17 0-1.865-.435-2.339-.973l-.014-7.678c.515-.6 1.225-1.013 2.353-1.013 1.782 0 3.035 2.11 3.035 4.821 0 2.773-1.225 4.843-3.035 4.843zM71 16.018c0-5.298-2.45-9.479-7.114-9.479-4.705 0-7.545 4.18-7.545 9.437 0 6.229 3.355 9.375 8.172 9.375 2.338 0 4.12-.56 5.457-1.346v-4.139c-1.337.704-2.882 1.139-4.831 1.139-1.907 0-3.606-.704-3.828-3.146h9.647c0-.269.042-1.345.042-1.842zm-9.745-1.967c0-2.338 1.364-3.31 2.603-3.31 1.211 0 2.492.972 2.492 3.31h-5.095z" opacity=".364"/>
</svg>
