<svg xmlns="http://www.w3.org/2000/svg" width="85" height="28" viewBox="0 0 85 28">
    <path fill="#18214D" fill-rule="evenodd" d="M11.011 9.946v2.969l7.09-.003c-.218 1.637-.77 2.836-1.608 3.675-1.034 1.034-2.648 2.173-5.482 2.173-4.368 0-7.787-3.523-7.787-7.896 0-4.372 3.419-7.896 7.787-7.896 2.358 0 4.079.928 5.35 2.12l2.092-2.094C16.683 1.3 14.325 0 11.013 0 5.033 0 0 4.877 0 10.864 0 16.852 5.032 21.73 11.014 21.73c3.228 0 5.666-1.06 7.572-3.048 1.96-1.962 2.57-4.716 2.57-6.943 0-.662-.05-1.274-.148-1.792H11.01zm59.804 11.357V.798H67.82v20.505h2.995zm-41.454.429c3.864 0 7.013-2.969 7.013-6.997 0-4.057-3.149-6.997-7.013-6.997-3.865 0-7.014 2.94-7.014 6.997 0 4.028 3.149 6.997 7.014 6.997zm0-11.237c2.118 0 3.944 1.723 3.944 4.24 0 2.489-1.826 4.24-3.944 4.24s-3.943-1.748-3.943-4.24c0-2.517 1.825-4.24 3.943-4.24zm15.132 11.237c3.864 0 7.013-2.969 7.013-6.997 0-4.057-3.15-6.997-7.013-6.997-3.866 0-7.015 2.943-7.015 6.997 0 4.028 3.15 6.997 7.015 6.997zm0-11.237c2.118 0 3.943 1.723 3.943 4.24 0 2.489-1.825 4.24-3.943 4.24-2.118 0-3.944-1.748-3.944-4.24 0-2.517 1.826-4.24 3.944-4.24zm21.514-2.331v12.558c0 5.168-3.046 7.278-6.645 7.278-3.389 0-5.429-2.268-6.198-4.123l2.673-1.114c.476 1.14 1.643 2.483 3.52 2.483 2.306 0 3.734-1.423 3.734-4.1v-1.007h-.107c-.687.848-2.011 1.59-3.682 1.59-3.496 0-6.7-3.048-6.7-6.969 0-3.95 3.204-7.022 6.7-7.022 1.667 0 2.992.741 3.682 1.565h.107V8.164h2.916zm-2.699 6.596c0-2.464-1.643-4.265-3.733-4.265-2.118 0-3.892 1.801-3.892 4.265 0 2.439 1.774 4.215 3.892 4.215 2.09 0 3.733-1.776 3.733-4.215zm19.177 2.278l2.383 1.59c-.77 1.139-2.623 3.1-5.826 3.1-3.972 0-6.938-3.072-6.938-6.996 0-4.161 2.991-6.997 6.595-6.997 3.628 0 5.402 2.89 5.983 4.451l.318.795-9.347 3.874c.716 1.404 1.828 2.12 3.389 2.12 1.563 0 2.649-.77 3.443-1.937zm-7.337-2.518l6.249-2.596c-.343-.874-1.377-1.482-2.595-1.482-1.56 0-3.732 1.378-3.654 4.078z" opacity=".364"/>
</svg>
