<?xml version="1.0" encoding="UTF-8"?>
<svg width="754px" height="590px" viewBox="0 0 754 590" version="1.1" xmlns="http://www.w3.org/2000/svg" xmlns:xlink="http://www.w3.org/1999/xlink">
    <!-- Generator: Sketch 58 (84663) - https://sketch.com -->
    <title>Group 17</title>
    <desc>Created with Sketch.</desc>
    <defs>
        <linearGradient x1="2.21806806%" y1="68.9523384%" x2="102.218068%" y2="31.0476616%" id="linearGradient-1">
            <stop stop-color="#02182C" offset="0%"></stop>
            <stop stop-color="#696772" offset="100%"></stop>
        </linearGradient>
        <path d="M33.3876739,0 L374.4935,0 C396.032605,-3.95666944e-15 413.4935,17.4608948 413.4935,39 L413.4935,299.204924 C413.4935,317.644427 398.545329,332.592598 380.105826,332.592598 L45,332.592598 C20.1471863,332.592598 3.04359188e-15,312.445411 0,287.592598 L0,33.3876739 C4.84723951e-15,14.9481708 14.9481708,1.04927091e-14 33.3876739,0 Z" id="path-2"></path>
        <path d="M12,0 L208.5,0 C215.127417,5.58920087e-16 220.5,5.372583 220.5,12 L220.5,127.5 C220.5,134.127417 215.127417,139.5 208.5,139.5 L12,139.5 C5.372583,139.5 8.11624501e-16,134.127417 0,127.5 L0,12 C-8.11624501e-16,5.372583 5.372583,6.54650727e-15 12,0 Z" id="path-4"></path>
        <filter x="-68.0%" y="-86.0%" width="236.1%" height="315.1%" filterUnits="objectBoundingBox" id="filter-5">
            <feOffset dx="0" dy="30" in="SourceAlpha" result="shadowOffsetOuter1"></feOffset>
            <feGaussianBlur stdDeviation="45" in="shadowOffsetOuter1" result="shadowBlurOuter1"></feGaussianBlur>
            <feColorMatrix values="0 0 0 0 0.141176471   0 0 0 0 0.184313725   0 0 0 0 0.250980392  0 0 0 0.194629589 0" type="matrix" in="shadowBlurOuter1"></feColorMatrix>
        </filter>
        <linearGradient x1="15.2633944%" y1="82.5577459%" x2="-14.0614168%" y2="8.38497502%" id="linearGradient-6">
            <stop stop-color="#17B7BD" offset="0%"></stop>
            <stop stop-color="#9DEB93" offset="100%"></stop>
        </linearGradient>
        <path d="M12,0 L208.5,0 C215.127417,5.58920087e-16 220.5,5.372583 220.5,12 L220.5,127.5 C220.5,134.127417 215.127417,139.5 208.5,139.5 L12,139.5 C5.372583,139.5 8.11624501e-16,134.127417 0,127.5 L0,12 C-8.11624501e-16,5.372583 5.372583,6.54650727e-15 12,0 Z" id="path-7"></path>
        <filter x="-59.0%" y="-74.6%" width="217.9%" height="286.4%" filterUnits="objectBoundingBox" id="filter-8">
            <feOffset dx="0" dy="26" in="SourceAlpha" result="shadowOffsetOuter1"></feOffset>
            <feGaussianBlur stdDeviation="39" in="shadowOffsetOuter1" result="shadowBlurOuter1"></feGaussianBlur>
            <feColorMatrix values="0 0 0 0 0.652880611   0 0 0 0 0.675737715   0 0 0 0 0.700520833  0 0 0 0.5 0" type="matrix" in="shadowBlurOuter1"></feColorMatrix>
        </filter>
        <linearGradient x1="67.1103397%" y1="100%" x2="6.828217%" y2="-28.451723%" id="linearGradient-9">
            <stop stop-color="#FF829C" offset="0%"></stop>
            <stop stop-color="#FFD0A0" offset="100%"></stop>
        </linearGradient>
    </defs>
    <g id="Iteration-2" stroke="none" stroke-width="1" fill="none" fill-rule="evenodd">
        <g id="Developers" transform="translate(-618.000000, -877.000000)">
            <g id="Group-6" transform="translate(80.000000, 780.000000)">
                <g id="Block" transform="translate(51.000000, 55.000000)">
                    <g id="Group-17" transform="translate(576.000000, 82.000000)">
                        <g id="Group-19" transform="translate(42.000000, 0.000000)">
                            <g id="Group-13-Copy-2">
                                <path d="M357.185119,296.860967 L552.185119,296.860967 C556.603397,296.860967 560.185119,300.442689 560.185119,304.860967 L560.185119,459.860967 C560.185119,464.279245 556.603397,467.860967 552.185119,467.860967 L357.185119,467.860967 C352.766841,467.860967 349.185119,464.279245 349.185119,459.860967 L349.185119,304.860967 C349.185119,300.442689 352.766841,296.860967 357.185119,296.860967 Z" id="Rectangle-Copy-9" stroke="#B59FD3" stroke-width="2" opacity="0.952566964" stroke-linejoin="round" stroke-dasharray="7"></path>
                                <path d="M8,0.5 L184,0.5 C188.418278,0.5 192,4.081722 192,8.5 L192,147.5 C192,151.918278 188.418278,155.5 184,155.5 L8,155.5 C3.581722,155.5 5.41083001e-16,151.918278 0,147.5 L0,8.5 C-5.41083001e-16,4.081722 3.581722,0.5 8,0.5 Z" id="Rectangle-Copy-10" stroke="#B59FD3" stroke-width="1.65" opacity="0.560872396" stroke-linejoin="round" stroke-dasharray="6"></path>
                                <g id="Group-9" transform="translate(51.348478, 72.233935)">
                                    <mask id="mask-3" fill="white">
                                        <use xlink:href="#path-2"></use>
                                    </mask>
                                    <use id="Rectangle" fill="url(#linearGradient-1)" xlink:href="#path-2"></use>
                                    <g id="Carbon-SME-Finance_-Fast-and-Flexible-loans-for-your-business.-1-Copy-2" opacity="0.173781622" style="mix-blend-mode: normal;" mask="url(#mask-3)" fill-rule="nonzero">
                                        <g transform="translate(363.651522, 181.266065) rotate(-18.000000) translate(-363.651522, -181.266065) translate(156.651522, -55.233935)" id="Path">
                                            <polygon fill="#243444" points="414 112.693069 276 120 414 352.693069"></polygon>
                                            <polygon fill="#435465" points="414 114 210 0 276 120"></polygon>
                                            <polygon fill="#243444" points="276 118.693069 210 0 0 118.675424"></polygon>
                                            <polygon fill="#243444" points="0 354 138 352.693069 0 120"></polygon>
                                            <polygon fill="#435465" points="0 354 210 472.693069 142.011732 352.693069"></polygon>
                                            <polygon fill="#243444" points="138 352.693069 207.003864 472.693069 414 352.693069"></polygon>
                                        </g>
                                    </g>
                                    <g id="Group-12" mask="url(#mask-3)" stroke-linecap="round">
                                        <g transform="translate(25.937513, 79.817869)">
                                            <g id="Group-10" transform="translate(62.007414, 62.116652) rotate(40.000000) translate(-62.007414, -62.116652) translate(18.007414, 18.116652)">
                                                <circle id="Oval" stroke="#E4D0FF" stroke-width="17.9779782" cx="43.6608043" cy="43.6608043" r="43.6608043"></circle>
                                                <path d="M43.6608043,0 C19.5476079,0 0,19.5476079 0,43.6608043 C0,67.7740007 19.5476079,87.3216086 43.6608043,87.3216086 L43.6608043,87.3216086" id="Path" stroke="#FFFFFF" stroke-width="17.9779782"></path>
                                            </g>
                                            <g id="Group-11" transform="translate(183.959030, 34.671815)">
                                                <path d="M0,0.642070652 L71.7459467,0.642070652" id="Path-62-Copy" stroke="#D3C5FF" stroke-width="17.9779782"></path>
                                                <path d="M7.81597009e-14,52.0077228 L44.7789794,52.0077228" id="Path-62-Copy-2" stroke="#FFFFFF" stroke-width="17.9779782"></path>
                                            </g>
                                        </g>
                                    </g>
                                </g>
                            </g>
                        </g>
                        <g id="income" transform="translate(0.000000, 18.500000)">
                            <g id="Rectangle-9">
                                <use fill="black" fill-opacity="1" filter="url(#filter-5)" xlink:href="#path-4"></use>
                                <use fill="#FFFFFF" fill-rule="evenodd" xlink:href="#path-4"></use>
                            </g>
                            <g id="ic_add-income" transform="translate(111.000000, 46.500000) rotate(-225.000000) translate(-111.000000, -46.500000) translate(79.500000, 15.000000)">
                                <polygon id="Path" points="0 0 63 0 63 63 0 63"></polygon>
                                <path d="M40.32,38.550682 L22.183173,20.521791 C20.9916935,19.3374023 19.2151104,21.1246215 20.4065899,22.3090103 L38.5202915,40.3149135 L26.4620939,40.2948748 C25.7662161,40.2937184 25.2011582,40.8569014 25.2000017,41.5527792 C25.1988453,42.248657 25.7620283,42.8137149 26.4579061,42.8148714 L41.5335084,42.84 C41.5409812,42.84 41.5484457,42.84 41.5559018,42.84 L41.5779061,42.84 C42.2746018,42.841156 42.84,42.2766966 42.84,41.58 L42.84,26.4348731 C42.84,25.7389943 42.2758788,25.1748731 41.58,25.1748731 C40.8841212,25.1748731 40.32,25.7389943 40.32,26.4348731 L40.32,38.550682 Z M31.5,57.96 C16.8865455,57.96 5.04,46.1134545 5.04,31.5 C5.04,16.8865455 16.8865455,5.04 31.5,5.04 C46.1134545,5.04 57.96,16.8865455 57.96,31.5 C57.96,46.1134545 46.1134545,57.96 31.5,57.96 Z" id="Path" fill="url(#linearGradient-6)"></path>
                            </g>
                            <path d="M77.8305,114.5975 C77.5834988,114.5975 77.3852507,114.522751 77.23575,114.37325 C77.0862493,114.223749 77.0115,114.025501 77.0115,113.7785 L77.0115,102.1175 L72.819,102.1175 C72.5849988,102.1175 72.4030006,102.059001 72.273,101.942 C72.1429993,101.824999 72.078,101.656001 72.078,101.435 C72.078,101.213999 72.1429993,101.045001 72.273,100.928 C72.4030006,100.810999 72.5849988,100.7525 72.819,100.7525 L82.8225,100.7525 C83.0565012,100.7525 83.2384993,100.810999 83.3685,100.928 C83.4985006,101.045001 83.5635,101.213999 83.5635,101.435 C83.5635,101.656001 83.4985006,101.824999 83.3685,101.942 C83.2384993,102.059001 83.0565012,102.1175 82.8225,102.1175 L78.63,102.1175 L78.63,113.7785 C78.63,114.025501 78.5585007,114.223749 78.4155,114.37325 C78.2724993,114.522751 78.0775012,114.5975 77.8305,114.5975 Z M88.016,104.8085 C88.5620027,104.7695 88.835,104.990498 88.835,105.4715 C88.835,105.679501 88.7765005,105.845249 88.6595,105.96875 C88.5424994,106.092251 88.3410014,106.167 88.055,106.193 L87.47,106.2515 C86.5989956,106.3295 85.9522521,106.638247 85.52975,107.17775 C85.1072478,107.717253 84.896,108.350996 84.896,109.079 L84.896,113.8175 C84.896,114.077501 84.8245007,114.272499 84.6815,114.4025 C84.5384992,114.532501 84.3500011,114.5975 84.116,114.5975 C83.8819988,114.5975 83.6902507,114.529251 83.54075,114.39275 C83.3912492,114.256249 83.3165,114.064501 83.3165,113.8175 L83.3165,105.5885 C83.3165,105.341499 83.3944992,105.149751 83.5505,105.01325 C83.7065007,104.876749 83.8949988,104.8085 84.116,104.8085 C84.324001,104.8085 84.4994992,104.876749 84.6425,105.01325 C84.7855007,105.149751 84.857,105.334999 84.857,105.569 L84.857,106.661 C85.1300013,106.088997 85.5167474,105.653501 86.01725,105.3545 C86.5177525,105.055499 87.0929967,104.88 87.743,104.828 L88.016,104.8085 Z M93.6774999,104.7695 C96.0565118,104.7695 97.2459999,106.017488 97.2459999,108.5135 L97.2459999,113.8175 C97.2459999,114.051501 97.1777506,114.239999 97.0412499,114.383 C96.9047492,114.526001 96.7195011,114.5975 96.4854999,114.5975 C96.2514987,114.5975 96.0630006,114.526001 95.9199999,114.383 C95.7769992,114.239999 95.7054999,114.051501 95.7054999,113.8175 L95.7054999,112.8815 C95.4584987,113.440503 95.0815024,113.872748 94.5744999,114.17825 C94.0674974,114.483752 93.4825032,114.6365 92.8194999,114.6365 C92.2084968,114.6365 91.6462525,114.513001 91.1327499,114.266 C90.6192473,114.018999 90.2130014,113.674502 89.9139999,113.2325 C89.6149984,112.790498 89.4654999,112.303003 89.4654999,111.77 C89.4654999,111.054996 89.6474981,110.499252 90.0114999,110.10275 C90.3755017,109.706248 90.9734957,109.420251 91.8054999,109.24475 C92.5681704,109.083874 93.6039179,108.996734 94.9127693,108.983328 L95.7054999,108.9815 L95.7054999,108.338 C95.7054999,107.557996 95.5462515,106.986002 95.2277499,106.622 C94.9092483,106.257998 94.3925035,106.076 93.6774999,106.076 C92.7934955,106.076 91.8965045,106.316498 90.9864999,106.7975 C90.6354981,107.018501 90.3885006,107.129 90.2454999,107.129 C90.0894991,107.129 89.9595004,107.070501 89.8554999,106.9535 C89.7514994,106.836499 89.6994999,106.687001 89.6994999,106.505 C89.6994999,106.322999 89.7547494,106.163751 89.8652499,106.02725 C89.9757505,105.890749 90.1544987,105.751001 90.4014999,105.608 C90.8565022,105.347999 91.373247,105.143251 91.9517499,104.99375 C92.5302528,104.844249 93.105497,104.7695 93.6774999,104.7695 Z M93.0339999,113.3885 C93.8140038,113.3885 94.4542474,113.125253 94.9547499,112.59875 C95.4552524,112.072247 95.7054999,111.393004 95.7054999,110.561 L95.7054999,109.9955 L95.3544999,109.9955 C94.2104942,109.9955 93.3395029,110.04425 92.7414999,110.14175 C92.1434969,110.23925 91.7177512,110.401749 91.4642499,110.62925 C91.2107486,110.856751 91.0839999,111.191498 91.0839999,111.6335 C91.0839999,112.140503 91.2692481,112.559748 91.6397499,112.89125 C92.0102518,113.222752 92.4749971,113.3885 93.0339999,113.3885 Z M104.5845,104.7695 C106.859511,104.7695 107.997,106.023987 107.997,108.533 L107.997,113.8175 C107.997,114.064501 107.928751,114.256249 107.79225,114.39275 C107.655749,114.529251 107.464001,114.5975 107.217,114.5975 C106.969999,114.5975 106.775001,114.529251 106.632,114.39275 C106.488999,114.256249 106.4175,114.064501 106.4175,113.8175 L106.4175,108.6305 C106.4175,107.746496 106.245252,107.103002 105.90075,106.7 C105.556248,106.296998 105.007004,106.0955 104.253,106.0955 C103.381996,106.0955 102.686502,106.361997 102.1665,106.895 C101.646497,107.428003 101.3865,108.149495 101.3865,109.0595 L101.3865,113.8175 C101.3865,114.064501 101.318251,114.256249 101.18175,114.39275 C101.045249,114.529251 100.853501,114.5975 100.6065,114.5975 C100.359499,114.5975 100.164501,114.529251 100.0215,114.39275 C99.8784991,114.256249 99.8069999,114.064501 99.8069999,113.8175 L99.8069999,105.5885 C99.8069999,105.354499 99.8784991,105.166001 100.0215,105.023 C100.164501,104.879999 100.359499,104.8085 100.6065,104.8085 C100.840501,104.8085 101.025749,104.879999 101.16225,105.023 C101.298751,105.166001 101.367,105.347999 101.367,105.569 L101.367,106.5635 C101.679001,105.978497 102.114497,105.533252 102.6735,105.22775 C103.232503,104.922248 103.869496,104.7695 104.5845,104.7695 Z M113.756,114.6365 C113.157997,114.6365 112.589253,114.565001 112.04975,114.422 C111.510247,114.278999 111.032502,114.077501 110.6165,113.8175 C110.382499,113.661499 110.21675,113.515251 110.11925,113.37875 C110.021749,113.242249 109.973,113.076501 109.973,112.8815 C109.973,112.712499 110.021749,112.572751 110.11925,112.46225 C110.21675,112.351749 110.343499,112.2965 110.4995,112.2965 C110.655501,112.2965 110.882998,112.393999 111.182,112.589 C111.572002,112.823001 111.958748,113.008249 112.34225,113.14475 C112.725752,113.281251 113.203497,113.3495 113.7755,113.3495 C114.477503,113.3495 115.023498,113.226001 115.4135,112.979 C115.803502,112.731999 115.9985,112.374502 115.9985,111.9065 C115.9985,111.620499 115.927001,111.389751 115.784,111.21425 C115.640999,111.038749 115.394002,110.882751 115.043,110.74625 C114.691998,110.609749 114.178503,110.470001 113.5025,110.327 C112.358494,110.079999 111.539502,109.748502 111.0455,109.3325 C110.551497,108.916498 110.3045,108.351004 110.3045,107.636 C110.3045,107.076997 110.460498,106.583002 110.7725,106.154 C111.084501,105.724998 111.516747,105.387001 112.06925,105.14 C112.621753,104.892999 113.248996,104.7695 113.951,104.7695 C114.458002,104.7695 114.948747,104.837749 115.42325,104.97425 C115.897752,105.110751 116.316998,105.302499 116.681,105.5495 C117.123002,105.861502 117.344,106.186498 117.344,106.5245 C117.344,106.693501 117.292,106.836499 117.188,106.9535 C117.083999,107.070501 116.960501,107.129 116.8175,107.129 C116.661499,107.129 116.427501,107.018501 116.1155,106.7975 C115.751498,106.563499 115.407001,106.381501 115.082,106.2515 C114.756998,106.121499 114.354002,106.0565 113.873,106.0565 C113.261997,106.0565 112.771252,106.192999 112.40075,106.466 C112.030248,106.739001 111.845,107.102998 111.845,107.558 C111.845,107.844001 111.913249,108.074749 112.04975,108.25025 C112.18625,108.425751 112.413748,108.581749 112.73225,108.71825 C113.005251,108.835251 113.380921,108.949862 113.859269,109.062087 L114.107,109.118 C114.991004,109.313001 115.676747,109.527499 116.16425,109.7615 C116.651752,109.995501 116.999499,110.281498 117.2075,110.6195 C117.415501,110.957502 117.5195,111.386497 117.5195,111.9065 C117.5195,112.725504 117.175003,113.385247 116.486,113.88575 C115.796996,114.386253 114.887005,114.6365 113.756,114.6365 Z M123.7855,102.0005 C123.096496,102.0525 122.576502,102.270248 122.2255,102.65375 C121.874498,103.037252 121.699,103.612496 121.699,104.3795 L121.699,105.0035 L123.8635,105.0035 C124.084501,105.0035 124.253499,105.061999 124.3705,105.179 C124.4875,105.296001 124.546,105.451999 124.546,105.647 C124.546,105.842001 124.4875,105.991499 124.3705,106.0955 C124.253499,106.199501 124.084501,106.2515 123.8635,106.2515 L121.699,106.2515 L121.699,113.8175 C121.699,114.064501 121.624251,114.256249 121.47475,114.39275 C121.325249,114.529251 121.140001,114.5975 120.919,114.5975 C120.684999,114.5975 120.493251,114.529251 120.34375,114.39275 C120.194249,114.256249 120.1195,114.064501 120.1195,113.8175 L120.1195,106.2515 L118.813,106.2515 C118.591999,106.2515 118.41975,106.196251 118.29625,106.08575 C118.172749,105.975249 118.111,105.829001 118.111,105.647 C118.111,105.451999 118.172749,105.296001 118.29625,105.179 C118.41975,105.061999 118.591999,105.0035 118.813,105.0035 L120.1195,105.0035 L120.1195,104.6525 C120.1195,103.482494 120.411997,102.562753 120.997,101.89325 C121.582003,101.223747 122.420494,100.85 123.5125,100.772 L124.0195,100.733 C124.357501,100.707 124.601249,100.7395 124.75075,100.8305 C124.900251,100.9215 124.975,101.083999 124.975,101.318 C124.975,101.695002 124.747502,101.9095 124.2925,101.9615 L123.7855,102.0005 Z M132.918,112.2965 C133.061,112.2965 133.184499,112.354999 133.2885,112.472 C133.3925,112.589001 133.4445,112.738499 133.4445,112.9205 C133.4445,113.245502 133.217002,113.544499 132.762,113.8175 C132.293997,114.090501 131.800002,114.295249 131.28,114.43175 C130.759997,114.568251 130.253002,114.6365 129.759,114.6365 C128.289992,114.6365 127.129754,114.201004 126.27825,113.33 C125.426745,112.458996 125.001,111.256508 125.001,109.7225 C125.001,108.747495 125.189498,107.886254 125.5665,107.13875 C125.943502,106.391246 126.473246,105.809502 127.15575,105.3935 C127.838253,104.977498 128.614995,104.7695 129.486,104.7695 C130.721006,104.7695 131.702496,105.172496 132.4305,105.9785 C133.158503,106.784504 133.5225,107.876493 133.5225,109.2545 C133.5225,109.514501 133.4705,109.702999 133.3665,109.82 C133.262499,109.937001 133.093501,109.9955 132.8595,109.9955 L126.5805,109.9955 C126.6975,112.231511 127.75699,113.3495 129.759,113.3495 C130.266002,113.3495 130.701498,113.281251 131.0655,113.14475 C131.429502,113.008249 131.819498,112.823001 132.2355,112.589 C132.573501,112.393999 132.800999,112.2965 132.918,112.2965 Z M129.5055,105.998 C128.673496,105.998 128.007252,106.257997 127.50675,106.778 C127.006247,107.298003 126.7105,108.032495 126.6195,108.9815 L132.138,108.9815 C132.112,108.019495 131.871502,107.281753 131.4165,106.76825 C130.961497,106.254747 130.324504,105.998 129.5055,105.998 Z M140.2175,104.8085 C140.763502,104.7695 141.0365,104.990498 141.0365,105.4715 C141.0365,105.679501 140.978,105.845249 140.861,105.96875 C140.743999,106.092251 140.542501,106.167 140.2565,106.193 L139.6715,106.2515 C138.800495,106.3295 138.153752,106.638247 137.73125,107.17775 C137.308748,107.717253 137.0975,108.350996 137.0975,109.079 L137.0975,113.8175 C137.0975,114.077501 137.026,114.272499 136.883,114.4025 C136.739999,114.532501 136.551501,114.5975 136.3175,114.5975 C136.083498,114.5975 135.89175,114.529251 135.74225,114.39275 C135.592749,114.256249 135.518,114.064501 135.518,113.8175 L135.518,105.5885 C135.518,105.341499 135.595999,105.149751 135.752,105.01325 C135.908,104.876749 136.096499,104.8085 136.3175,104.8085 C136.525501,104.8085 136.700999,104.876749 136.844,105.01325 C136.987,105.149751 137.0585,105.334999 137.0585,105.569 L137.0585,106.661 C137.331501,106.088997 137.718247,105.653501 138.21875,105.3545 C138.719252,105.055499 139.294496,104.88 139.9445,104.828 L140.2175,104.8085 Z M145.177,114.6365 C144.578997,114.6365 144.010252,114.565001 143.47075,114.422 C142.931247,114.278999 142.453502,114.077501 142.0375,113.8175 C141.803498,113.661499 141.63775,113.515251 141.54025,113.37875 C141.442749,113.242249 141.394,113.076501 141.394,112.8815 C141.394,112.712499 141.442749,112.572751 141.54025,112.46225 C141.63775,112.351749 141.764499,112.2965 141.9205,112.2965 C142.0765,112.2965 142.303998,112.393999 142.603,112.589 C142.993002,112.823001 143.379748,113.008249 143.76325,113.14475 C144.146752,113.281251 144.624497,113.3495 145.1965,113.3495 C145.898503,113.3495 146.444498,113.226001 146.8345,112.979 C147.224502,112.731999 147.4195,112.374502 147.4195,111.9065 C147.4195,111.620499 147.348,111.389751 147.205,111.21425 C147.061999,111.038749 146.815001,110.882751 146.464,110.74625 C146.112998,110.609749 145.599503,110.470001 144.9235,110.327 C143.779494,110.079999 142.960502,109.748502 142.4665,109.3325 C141.972497,108.916498 141.7255,108.351004 141.7255,107.636 C141.7255,107.076997 141.881498,106.583002 142.1935,106.154 C142.505501,105.724998 142.937747,105.387001 143.49025,105.14 C144.042752,104.892999 144.669996,104.7695 145.372,104.7695 C145.879002,104.7695 146.369747,104.837749 146.84425,104.97425 C147.318752,105.110751 147.737998,105.302499 148.102,105.5495 C148.544002,105.861502 148.765,106.186498 148.765,106.5245 C148.765,106.693501 148.713,106.836499 148.609,106.9535 C148.504999,107.070501 148.3815,107.129 148.2385,107.129 C148.082499,107.129 147.848501,107.018501 147.5365,106.7975 C147.172498,106.563499 146.828001,106.381501 146.503,106.2515 C146.177998,106.121499 145.775002,106.0565 145.294,106.0565 C144.682997,106.0565 144.192251,106.192999 143.82175,106.466 C143.451248,106.739001 143.266,107.102998 143.266,107.558 C143.266,107.844001 143.334249,108.074749 143.47075,108.25025 C143.60725,108.425751 143.834748,108.581749 144.15325,108.71825 C144.426251,108.835251 144.801921,108.949862 145.280269,109.062087 L145.528,109.118 C146.412004,109.313001 147.097747,109.527499 147.58525,109.7615 C148.072752,109.995501 148.420499,110.281498 148.6285,110.6195 C148.836501,110.957502 148.9405,111.386497 148.9405,111.9065 C148.9405,112.725504 148.596003,113.385247 147.907,113.88575 C147.217996,114.386253 146.308005,114.6365 145.177,114.6365 Z" id="Transfers" fill="#696565" fill-rule="nonzero"></path>
                        </g>
                        <g id="income-copy" transform="translate(367.000000, 307.000000)">
                            <g id="Rectangle-9">
                                <use fill="black" fill-opacity="1" filter="url(#filter-8)" xlink:href="#path-7"></use>
                                <use fill="#FFFFFF" fill-rule="evenodd" xlink:href="#path-7"></use>
                            </g>
                            <g id="ic_add-income-copy" transform="translate(111.000000, 46.500000) scale(-1, 1) rotate(-225.000000) translate(-111.000000, -46.500000) translate(79.500000, 15.000000)">
                                <polygon id="Path" points="-7.27595761e-12 -3.63797881e-12 63 -3.63797881e-12 63 63 -7.27595761e-12 63"></polygon>
                                <path d="M31.5,57.96 C16.8865455,57.96 5.04,46.1134545 5.04,31.5 C5.04,16.8865455 16.8865455,5.04 31.5,5.04 C46.1134545,5.04 57.96,16.8865455 57.96,31.5 C57.96,46.1134545 46.1134545,57.96 31.5,57.96 Z" id="Path" fill="url(#linearGradient-9)"></path>
                                <g id="Stockholm-icons-/-General-/-Search" transform="translate(31.500000, 31.500000) rotate(-52.000000) translate(-31.500000, -31.500000) translate(13.500000, 13.500000)">
                                    <rect id="bound" x="0" y="0" width="36" height="36"></rect>
                                    <path d="M21.4393398,25.0606602 C20.8535534,24.4748737 20.8535534,23.5251263 21.4393398,22.9393398 C22.0251263,22.3535534 22.9748737,22.3535534 23.5606602,22.9393398 L29.5606602,28.9393398 C30.1464466,29.5251263 30.1464466,30.4748737 29.5606602,31.0606602 C28.9748737,31.6464466 28.0251263,31.6464466 27.4393398,31.0606602 L21.4393398,25.0606602 Z" id="Path-2" fill="#FFFFFF" fill-rule="nonzero" opacity="0.439999998"></path>
                                    <path d="M16.5,24 C20.6421356,24 24,20.6421356 24,16.5 C24,12.3578644 20.6421356,9 16.5,9 C12.3578644,9 9,12.3578644 9,16.5 C9,20.6421356 12.3578644,24 16.5,24 Z M16.5,27 C10.7010101,27 6,22.2989899 6,16.5 C6,10.7010101 10.7010101,6 16.5,6 C22.2989899,6 27,10.7010101 27,16.5 C27,22.2989899 22.2989899,27 16.5,27 Z" id="Path" fill="#FFFFFF" fill-rule="nonzero"></path>
                                </g>
                            </g>
                            <path d="M36.882,109.59 C36.6539989,109.59 36.4710007,109.521001 36.333,109.383 C36.1949993,109.244999 36.126,109.062001 36.126,108.834 L36.126,98.07 L32.256,98.07 C32.0399989,98.07 31.8720006,98.0160005 31.752,97.908 C31.6319994,97.7999995 31.572,97.644001 31.572,97.44 C31.572,97.235999 31.6319994,97.0800005 31.752,96.972 C31.8720006,96.8639995 32.0399989,96.81 32.256,96.81 L41.49,96.81 C41.7060011,96.81 41.8739994,96.8639995 41.994,96.972 C42.1140006,97.0800005 42.174,97.235999 42.174,97.44 C42.174,97.644001 42.1140006,97.7999995 41.994,97.908 C41.8739994,98.0160005 41.7060011,98.07 41.49,98.07 L37.62,98.07 L37.62,108.834 C37.62,109.062001 37.5540007,109.244999 37.422,109.383 C37.2899993,109.521001 37.1100011,109.59 36.882,109.59 Z M46.284,100.554 C46.7880025,100.518 47.04,100.721998 47.04,101.166 C47.04,101.358001 46.9860005,101.510999 46.878,101.625 C46.7699994,101.739001 46.5840013,101.808 46.32,101.832 L45.78,101.886 C44.9759959,101.958 44.3790019,102.242998 43.989,102.741 C43.598998,103.239002 43.404,103.823997 43.404,104.496 L43.404,108.87 C43.404,109.110001 43.3380006,109.289999 43.206,109.41 C43.0739993,109.530001 42.900001,109.59 42.684,109.59 C42.4679989,109.59 42.2910006,109.527001 42.153,109.401 C42.0149993,109.274999 41.946,109.098001 41.946,108.87 L41.946,101.274 C41.946,101.045999 42.0179992,100.869001 42.162,100.743 C42.3060007,100.616999 42.4799989,100.554 42.684,100.554 C42.8760009,100.554 43.0379993,100.616999 43.17,100.743 C43.3020006,100.869001 43.368,101.039999 43.368,101.256 L43.368,102.264 C43.6200012,101.735997 43.9769976,101.334001 44.439,101.058 C44.9010023,100.781999 45.431997,100.62 46.032,100.572 L46.284,100.554 Z M51.5099999,100.518 C53.7060109,100.518 54.8039999,101.669988 54.8039999,103.974 L54.8039999,108.87 C54.8039999,109.086001 54.7410005,109.259999 54.6149999,109.392 C54.4889993,109.524001 54.318001,109.59 54.1019999,109.59 C53.8859988,109.59 53.7120006,109.524001 53.5799999,109.392 C53.4479993,109.259999 53.3819999,109.086001 53.3819999,108.87 L53.3819999,108.006 C53.1539988,108.522003 52.8060023,108.920999 52.3379999,109.203 C51.8699976,109.485001 51.330003,109.626 50.7179999,109.626 C50.1539971,109.626 49.6350023,109.512001 49.1609999,109.284 C48.6869975,109.055999 48.3120013,108.738002 48.0359999,108.33 C47.7599985,107.921998 47.6219999,107.472002 47.6219999,106.98 C47.6219999,106.319997 47.7899982,105.807002 48.1259999,105.441 C48.4620016,105.074998 49.0139961,104.811001 49.7819999,104.649 C50.4801852,104.501727 51.4262924,104.421397 52.6203456,104.408008 L53.3819999,104.406 L53.3819999,103.812 C53.3819999,103.091996 53.2350014,102.564002 52.9409999,102.228 C52.6469984,101.891998 52.1700032,101.724 51.5099999,101.724 C50.6939958,101.724 49.8660041,101.945998 49.0259999,102.39 C48.7019983,102.594001 48.4740006,102.696 48.3419999,102.696 C48.1979992,102.696 48.0780004,102.642001 47.9819999,102.534 C47.8859994,102.425999 47.8379999,102.288001 47.8379999,102.12 C47.8379999,101.951999 47.8889994,101.805001 47.9909999,101.679 C48.0930004,101.552999 48.2579988,101.424001 48.4859999,101.292 C48.906002,101.051999 49.3829972,100.863001 49.9169999,100.725 C50.4510026,100.586999 50.9819973,100.518 51.5099999,100.518 Z M50.9159999,108.474 C51.6360035,108.474 52.2269976,108.231002 52.6889999,107.745 C53.1510022,107.258998 53.3819999,106.632004 53.3819999,105.864 L53.3819999,105.342 L53.0579999,105.342 C52.0019946,105.342 51.1980027,105.387 50.6459999,105.477 C50.0939972,105.567 49.7010011,105.716999 49.4669999,105.927 C49.2329987,106.137001 49.1159999,106.445998 49.1159999,106.854 C49.1159999,107.322002 49.2869982,107.708998 49.6289999,108.015 C49.9710016,108.321002 50.3999973,108.474 50.9159999,108.474 Z M61.5779999,100.518 C63.6780104,100.518 64.7279999,101.675988 64.7279999,103.992 L64.7279999,108.87 C64.7279999,109.098001 64.6650005,109.274999 64.5389999,109.401 C64.4129992,109.527001 64.236001,109.59 64.0079999,109.59 C63.7799987,109.59 63.6000005,109.527001 63.4679999,109.401 C63.3359992,109.274999 63.2699999,109.098001 63.2699999,108.87 L63.2699999,104.082 C63.2699999,103.265996 63.1110015,102.672002 62.7929999,102.3 C62.4749983,101.927998 61.9680033,101.742 61.2719999,101.742 C60.4679958,101.742 59.8260023,101.987998 59.3459999,102.48 C58.8659975,102.972002 58.6259999,103.637996 58.6259999,104.478 L58.6259999,108.87 C58.6259999,109.098001 58.5630005,109.274999 58.4369999,109.401 C58.3109992,109.527001 58.134001,109.59 57.9059999,109.59 C57.6779987,109.59 57.4980005,109.527001 57.3659999,109.401 C57.2339992,109.274999 57.1679999,109.098001 57.1679999,108.87 L57.1679999,101.274 C57.1679999,101.057999 57.2339992,100.884001 57.3659999,100.752 C57.4980005,100.619999 57.6779987,100.554 57.9059999,100.554 C58.1220009,100.554 58.2929992,100.619999 58.4189999,100.752 C58.5450005,100.884001 58.6079999,101.051999 58.6079999,101.256 L58.6079999,102.174 C58.8960013,101.633997 59.2979973,101.223001 59.8139999,100.941 C60.3300024,100.658999 60.9179966,100.518 61.5779999,100.518 Z M70.0439998,109.626 C69.4919971,109.626 68.9670023,109.560001 68.4689998,109.428 C67.9709973,109.295999 67.5300017,109.110001 67.1459998,108.87 C66.9299987,108.725999 66.7770003,108.591001 66.6869998,108.465 C66.5969994,108.338999 66.5519998,108.186001 66.5519998,108.006 C66.5519998,107.849999 66.5969994,107.721001 66.6869998,107.619 C66.7770003,107.516999 66.8939991,107.466 67.0379998,107.466 C67.1820005,107.466 67.3919984,107.555999 67.6679998,107.736 C68.0280016,107.952001 68.3849981,108.122999 68.7389998,108.249 C69.0930016,108.375001 69.5339972,108.438 70.0619998,108.438 C70.7100031,108.438 71.213998,108.324001 71.5739998,108.096 C71.9340016,107.867999 72.1139998,107.538002 72.1139998,107.106 C72.1139998,106.841999 72.0480005,106.629001 71.9159998,106.467 C71.7839992,106.304999 71.5560014,106.161001 71.2319998,106.035 C70.9079982,105.908999 70.4340029,105.780001 69.8099998,105.648 C68.7539945,105.419999 67.9980021,105.114002 67.5419998,104.73 C67.0859975,104.345998 66.8579998,103.824003 66.8579998,103.164 C66.8579998,102.647997 67.0019984,102.192002 67.2899998,101.796 C67.5780013,101.399998 67.9769973,101.088001 68.4869998,100.86 C68.9970024,100.631999 69.5759966,100.518 70.2239998,100.518 C70.6920022,100.518 71.1449976,100.580999 71.5829998,100.707 C72.021002,100.833001 72.4079981,101.009999 72.7439998,101.238 C73.1520019,101.526001 73.3559998,101.825998 73.3559998,102.138 C73.3559998,102.294001 73.3080003,102.425999 73.2119998,102.534 C73.1159993,102.642001 73.0020005,102.696 72.8699998,102.696 C72.7259991,102.696 72.5100013,102.594001 72.2219998,102.39 C71.8859981,102.173999 71.5680013,102.006001 71.2679998,101.886 C70.9679983,101.765999 70.596002,101.706 70.1519998,101.706 C69.587997,101.706 69.1350015,101.831999 68.7929998,102.084 C68.4509981,102.336001 68.2799998,102.671998 68.2799998,103.092 C68.2799998,103.356001 68.3429992,103.568999 68.4689998,103.731 C68.5950005,103.893001 68.8049984,104.036999 69.0989998,104.163 C69.3510011,104.271001 69.6977737,104.376796 70.1393256,104.480388 L70.3679998,104.532 C71.1840039,104.712001 71.8169976,104.909999 72.2669998,105.126 C72.7170021,105.342001 73.0379989,105.605998 73.2299998,105.918 C73.4220008,106.230002 73.5179998,106.625998 73.5179998,107.106 C73.5179998,107.862004 73.200003,108.470998 72.5639998,108.933 C71.9279966,109.395002 71.088005,109.626 70.0439998,109.626 Z M79.0139998,100.518 C81.2100108,100.518 82.3079998,101.669988 82.3079998,103.974 L82.3079998,108.87 C82.3079998,109.086001 82.2450004,109.259999 82.1189998,109.392 C81.9929991,109.524001 81.8220009,109.59 81.6059998,109.59 C81.3899987,109.59 81.2160004,109.524001 81.0839998,109.392 C80.9519991,109.259999 80.8859998,109.086001 80.8859998,108.87 L80.8859998,108.006 C80.6579986,108.522003 80.3100021,108.920999 79.8419998,109.203 C79.3739974,109.485001 78.8340028,109.626 78.2219998,109.626 C77.657997,109.626 77.1390021,109.512001 76.6649998,109.284 C76.1909974,109.055999 75.8160012,108.738002 75.5399998,108.33 C75.2639984,107.921998 75.1259998,107.472002 75.1259998,106.98 C75.1259998,106.319997 75.2939981,105.807002 75.6299998,105.441 C75.9660015,105.074998 76.5179959,104.811001 77.2859998,104.649 C77.9841851,104.501727 78.9302923,104.421397 80.1243454,104.408008 L80.8859998,104.406 L80.8859998,103.812 C80.8859998,103.091996 80.7390012,102.564002 80.4449998,102.228 C80.1509983,101.891998 79.6740031,101.724 79.0139998,101.724 C78.1979957,101.724 77.370004,101.945998 76.5299998,102.39 C76.2059982,102.594001 75.9780004,102.696 75.8459998,102.696 C75.7019991,102.696 75.5820003,102.642001 75.4859998,102.534 C75.3899993,102.425999 75.3419998,102.288001 75.3419998,102.12 C75.3419998,101.951999 75.3929993,101.805001 75.4949998,101.679 C75.5970003,101.552999 75.7619986,101.424001 75.9899998,101.292 C76.4100019,101.051999 76.8869971,100.863001 77.4209998,100.725 C77.9550024,100.586999 78.4859971,100.518 79.0139998,100.518 Z M78.4199998,108.474 C79.1400034,108.474 79.7309975,108.231002 80.1929998,107.745 C80.6550021,107.258998 80.8859998,106.632004 80.8859998,105.864 L80.8859998,105.342 L80.5619998,105.342 C79.5059945,105.342 78.7020025,105.387 78.1499998,105.477 C77.597997,105.567 77.2050009,105.716999 76.9709998,105.927 C76.7369986,106.137001 76.6199998,106.445998 76.6199998,106.854 C76.6199998,107.322002 76.7909981,107.708998 77.1329998,108.015 C77.4750015,108.321002 77.9039972,108.474 78.4199998,108.474 Z M88.2899997,109.626 C87.4739957,109.626 86.7510029,109.440002 86.1209997,109.068 C85.4909966,108.695998 85.0050014,108.168003 84.6629997,107.484 C84.320998,106.799997 84.1499997,106.008004 84.1499997,105.108 C84.1499997,104.207995 84.326998,103.410003 84.6809997,102.714 C85.0350015,102.018 85.5299966,101.478002 86.1659997,101.094 C86.8020029,100.709998 87.5339956,100.518 88.3619997,100.518 C88.818002,100.518 89.2709975,100.580999 89.7209997,100.707 C90.171002,100.833001 90.5639981,101.015999 90.8999997,101.256 C91.1160008,101.400001 91.2689993,101.540999 91.3589997,101.679 C91.4490002,101.817001 91.4939997,101.969999 91.4939997,102.138 C91.4939997,102.306001 91.4490002,102.443999 91.3589997,102.552 C91.2689993,102.660001 91.1520005,102.714 91.0079997,102.714 C90.9239993,102.714 90.8340002,102.69 90.7379997,102.642 C90.6739994,102.61 90.6166663,102.578 90.5659998,102.546 L90.3909997,102.426 C90.3783331,102.418 90.3679998,102.412 90.3599997,102.408 C90.0479982,102.203999 89.7510011,102.042001 89.4689997,101.922 C89.1869983,101.801999 88.8420018,101.742 88.4339997,101.742 C87.5579954,101.742 86.8770022,102.038997 86.3909997,102.633 C85.9049973,103.227003 85.6619997,104.051995 85.6619997,105.108 C85.6619997,106.164005 85.9049973,106.979997 86.3909997,107.556 C86.8770022,108.132003 87.5579954,108.42 88.4339997,108.42 C88.8420018,108.42 89.1929983,108.360001 89.4869997,108.24 C89.7810012,108.119999 90.0779982,107.958001 90.3779997,107.754 C90.5100004,107.67 90.6359991,107.598 90.7559997,107.538 C90.8760003,107.478 90.9779993,107.448 91.0619997,107.448 C91.1940004,107.448 91.3049993,107.501999 91.3949997,107.61 C91.4850002,107.718001 91.5299997,107.855999 91.5299997,108.024 C91.5299997,108.180001 91.4880002,108.320999 91.4039997,108.447 C91.3199993,108.573001 91.1640009,108.713999 90.9359997,108.87 C90.5999981,109.098001 90.1950021,109.280999 89.7209997,109.419 C89.2469974,109.557001 88.7700021,109.626 88.2899997,109.626 Z M97.0619997,108.438 C97.4820018,108.474 97.6919997,108.665998 97.6919997,109.014 C97.6919997,109.218001 97.6170004,109.370999 97.4669997,109.473 C97.3169989,109.575001 97.0920012,109.614 96.7919997,109.59 L96.3059997,109.554 C95.3459949,109.482 94.638002,109.194003 94.1819997,108.69 C93.7259974,108.185997 93.4979997,107.424005 93.4979997,106.404 L93.4979997,101.886 L92.2919997,101.886 C92.0879987,101.886 91.9290003,101.835001 91.8149997,101.733 C91.7009991,101.630999 91.6439997,101.496001 91.6439997,101.328 C91.6439997,101.147999 91.7009991,101.004001 91.8149997,100.896 C91.9290003,100.787999 92.0879987,100.734 92.2919997,100.734 L93.4979997,100.734 L93.4979997,98.7 C93.4979997,98.4719989 93.563999,98.2950006 93.6959997,98.169 C93.8280004,98.0429994 94.0079986,97.98 94.2359997,97.98 C94.4520008,97.98 94.625999,98.0429994 94.7579997,98.169 C94.8900004,98.2950006 94.9559997,98.4719989 94.9559997,98.7 L94.9559997,100.734 L96.9539997,100.734 C97.1460007,100.734 97.2989991,100.787999 97.4129997,100.896 C97.5270003,101.004001 97.5839997,101.147999 97.5839997,101.328 C97.5839997,101.496001 97.5270003,101.630999 97.4129997,101.733 C97.2989991,101.835001 97.1460007,101.886 96.9539997,101.886 L94.9559997,101.886 L94.9559997,106.476 C94.9559997,107.136003 95.0909983,107.612999 95.3609997,107.907 C95.631001,108.201001 96.035997,108.366 96.5759997,108.402 L97.0619997,108.438 Z M99.5699996,109.59 C99.3539986,109.59 99.1770003,109.527001 99.0389996,109.401 C98.900999,109.274999 98.8319996,109.098001 98.8319996,108.87 L98.8319996,101.274 C98.8319996,101.045999 98.900999,100.869001 99.0389996,100.743 C99.1770003,100.616999 99.3539986,100.554 99.5699996,100.554 C99.7860007,100.554 99.959999,100.616999 100.092,100.743 C100.224,100.869001 100.29,101.045999 100.29,101.274 L100.29,108.87 C100.29,109.110001 100.224,109.289999 100.092,109.41 C99.959999,109.530001 99.7860007,109.59 99.5699996,109.59 Z M99.5699996,98.664 C99.2819982,98.664 99.0480005,98.5800008 98.8679996,98.412 C98.6879987,98.2439992 98.5979996,98.0220014 98.5979996,97.746 C98.5979996,97.4819987 98.6879987,97.2660008 98.8679996,97.098 C99.0480005,96.9299992 99.2819982,96.846 99.5699996,96.846 C99.8580011,96.846 100.091999,96.9299992 100.272,97.098 C100.452001,97.2660008 100.542,97.4819987 100.542,97.746 C100.542,98.0220014 100.452001,98.2439992 100.272,98.412 C100.091999,98.5800008 99.8580011,98.664 99.5699996,98.664 Z M106.344,109.626 C105.515995,109.626 104.787003,109.440002 104.157,109.068 C103.526996,108.695998 103.041001,108.165003 102.699,107.475 C102.356998,106.784997 102.186,105.984005 102.186,105.072 C102.186,104.159995 102.356998,103.359003 102.699,102.669 C103.041001,101.978997 103.526996,101.448002 104.157,101.076 C104.787003,100.703998 105.515995,100.518 106.344,100.518 C107.172004,100.518 107.903996,100.703998 108.54,101.076 C109.176003,101.448002 109.664998,101.978997 110.007,102.669 C110.349001,103.359003 110.52,104.159995 110.52,105.072 C110.52,105.984005 110.349001,106.784997 110.007,107.475 C109.664998,108.165003 109.176003,108.695998 108.54,109.068 C107.903996,109.440002 107.172004,109.626 106.344,109.626 Z M106.344,108.42 C107.208004,108.42 107.870997,108.135003 108.333,107.565 C108.795002,106.994997 109.026,106.164005 109.026,105.072 C109.026,104.003995 108.792002,103.179003 108.324,102.597 C107.855997,102.014997 107.196004,101.724 106.344,101.724 C105.491995,101.724 104.832002,102.014997 104.364,102.597 C103.895997,103.179003 103.662,104.003995 103.662,105.072 C103.662,106.152005 103.892997,106.979997 104.355,107.556 C104.817002,108.132003 105.479995,108.42 106.344,108.42 Z M116.808,100.518 C118.90801,100.518 119.958,101.675988 119.958,103.992 L119.958,108.87 C119.958,109.098001 119.895,109.274999 119.769,109.401 C119.642999,109.527001 119.466001,109.59 119.238,109.59 C119.009998,109.59 118.83,109.527001 118.698,109.401 C118.565999,109.274999 118.5,109.098001 118.5,108.87 L118.5,104.082 C118.5,103.265996 118.341001,102.672002 118.023,102.3 C117.704998,101.927998 117.198003,101.742 116.502,101.742 C115.697996,101.742 115.056002,101.987998 114.576,102.48 C114.095997,102.972002 113.856,103.637996 113.856,104.478 L113.856,108.87 C113.856,109.098001 113.793,109.274999 113.667,109.401 C113.540999,109.527001 113.364001,109.59 113.136,109.59 C112.907998,109.59 112.728,109.527001 112.596,109.401 C112.463999,109.274999 112.398,109.098001 112.398,108.87 L112.398,101.274 C112.398,101.057999 112.463999,100.884001 112.596,100.752 C112.728,100.619999 112.907998,100.554 113.136,100.554 C113.352001,100.554 113.522999,100.619999 113.649,100.752 C113.775,100.884001 113.838,101.051999 113.838,101.256 L113.838,102.174 C114.126001,101.633997 114.527997,101.223001 115.044,100.941 C115.560002,100.658999 116.147996,100.518 116.808,100.518 Z M127.601999,109.5 C127.397998,109.5 127.227,109.437001 127.088999,109.311 C126.950999,109.184999 126.881999,109.020001 126.881999,108.816 L126.881999,97.476 C126.881999,97.2479989 126.947999,97.0650007 127.079999,96.927 C127.212,96.7889993 127.391998,96.72 127.619999,96.72 C127.848001,96.72 128.027999,96.7889993 128.159999,96.927 C128.292,97.0650007 128.357999,97.2479989 128.357999,97.476 L128.357999,108.24 L134.171999,108.24 C134.388001,108.24 134.555999,108.293999 134.675999,108.402 C134.796,108.510001 134.855999,108.665999 134.855999,108.87 C134.855999,109.074001 134.796,109.229999 134.675999,109.338 C134.555999,109.446001 134.388001,109.5 134.171999,109.5 L127.601999,109.5 Z M139.703999,109.626 C138.875995,109.626 138.147003,109.440002 137.516999,109.068 C136.886996,108.695998 136.401001,108.165003 136.058999,107.475 C135.716998,106.784997 135.545999,105.984005 135.545999,105.072 C135.545999,104.159995 135.716998,103.359003 136.058999,102.669 C136.401001,101.978997 136.886996,101.448002 137.516999,101.076 C138.147003,100.703998 138.875995,100.518 139.703999,100.518 C140.532004,100.518 141.263996,100.703998 141.899999,101.076 C142.536003,101.448002 143.024998,101.978997 143.366999,102.669 C143.709001,103.359003 143.879999,104.159995 143.879999,105.072 C143.879999,105.984005 143.709001,106.784997 143.366999,107.475 C143.024998,108.165003 142.536003,108.695998 141.899999,109.068 C141.263996,109.440002 140.532004,109.626 139.703999,109.626 Z M139.703999,108.42 C140.568004,108.42 141.230997,108.135003 141.692999,107.565 C142.155002,106.994997 142.385999,106.164005 142.385999,105.072 C142.385999,104.003995 142.152002,103.179003 141.683999,102.597 C141.215997,102.014997 140.556004,101.724 139.703999,101.724 C138.851995,101.724 138.192002,102.014997 137.723999,102.597 C137.255997,103.179003 137.021999,104.003995 137.021999,105.072 C137.021999,106.152005 137.252997,106.979997 137.714999,107.556 C138.177002,108.132003 138.839995,108.42 139.703999,108.42 Z M149.393999,109.626 C148.565995,109.626 147.837003,109.440002 147.206999,109.068 C146.576996,108.695998 146.091001,108.165003 145.748999,107.475 C145.406998,106.784997 145.235999,105.984005 145.235999,105.072 C145.235999,104.159995 145.406998,103.359003 145.748999,102.669 C146.091001,101.978997 146.576996,101.448002 147.206999,101.076 C147.837003,100.703998 148.565995,100.518 149.393999,100.518 C150.222004,100.518 150.953996,100.703998 151.589999,101.076 C152.226003,101.448002 152.714998,101.978997 153.056999,102.669 C153.399001,103.359003 153.569999,104.159995 153.569999,105.072 C153.569999,105.984005 153.399001,106.784997 153.056999,107.475 C152.714998,108.165003 152.226003,108.695998 151.589999,109.068 C150.953996,109.440002 150.222004,109.626 149.393999,109.626 Z M149.393999,108.42 C150.258004,108.42 150.920997,108.135003 151.382999,107.565 C151.845002,106.994997 152.075999,106.164005 152.075999,105.072 C152.075999,104.003995 151.842002,103.179003 151.373999,102.597 C150.905997,102.014997 150.246004,101.724 149.393999,101.724 C148.541995,101.724 147.882002,102.014997 147.413999,102.597 C146.945997,103.179003 146.711999,104.003995 146.711999,105.072 C146.711999,106.152005 146.942997,106.979997 147.404999,107.556 C147.867002,108.132003 148.529995,108.42 149.393999,108.42 Z M162.449999,108.348 C162.642,108.528001 162.737999,108.72 162.737999,108.924 C162.737999,109.104001 162.675,109.259999 162.548999,109.392 C162.422999,109.524001 162.27,109.59 162.089999,109.59 C161.933999,109.59 161.772,109.518001 161.603999,109.374 L156.905999,105.324 L156.905999,108.87 C156.905999,109.098001 156.837,109.274999 156.698999,109.401 C156.560999,109.527001 156.39,109.59 156.185999,109.59 C155.969998,109.59 155.793,109.527001 155.654999,109.401 C155.516999,109.274999 155.447999,109.098001 155.447999,108.87 L155.447999,97.44 C155.447999,97.2119989 155.516999,97.0350006 155.654999,96.909 C155.793,96.7829994 155.969998,96.72 156.185999,96.72 C156.39,96.72 156.560999,96.7829994 156.698999,96.909 C156.837,97.0350006 156.905999,97.2119989 156.905999,97.44 L156.905999,104.748 L161.207999,100.806 C161.352,100.661999 161.513998,100.59 161.693999,100.59 C161.874,100.59 162.029999,100.655999 162.161999,100.788 C162.294,100.920001 162.359999,101.075999 162.359999,101.256 C162.359999,101.460001 162.276,101.639999 162.107999,101.796 L158.561999,104.964 L162.449999,108.348 Z M170.807999,100.554 C171.036,100.554 171.212999,100.619999 171.338999,100.752 C171.465,100.884001 171.527999,101.057999 171.527999,101.274 L171.527999,108.888 C171.527999,109.092001 171.465,109.259999 171.338999,109.392 C171.212999,109.524001 171.036,109.59 170.807999,109.59 C170.591998,109.59 170.421,109.527001 170.294999,109.401 C170.168999,109.274999 170.105999,109.110001 170.105999,108.906 L170.105999,108.006 C169.829998,108.534003 169.443002,108.935999 168.944999,109.212 C168.446997,109.488001 167.886002,109.626 167.261999,109.626 C166.217994,109.626 165.432002,109.335003 164.903999,108.753 C164.375997,108.170997 164.111999,107.310006 164.111999,106.17 L164.111999,101.274 C164.111999,101.057999 164.177999,100.884001 164.309999,100.752 C164.442,100.619999 164.621998,100.554 164.849999,100.554 C165.078,100.554 165.254999,100.619999 165.380999,100.752 C165.507,100.884001 165.569999,101.057999 165.569999,101.274 L165.569999,106.134 C165.569999,106.914004 165.725998,107.486998 166.037999,107.853 C166.350001,108.219002 166.841996,108.402 167.513999,108.402 C168.282003,108.402 168.899997,108.153002 169.367999,107.655 C169.836002,107.156998 170.069999,106.500004 170.069999,105.684 L170.069999,101.274 C170.069999,101.057999 170.135999,100.884001 170.267999,100.752 C170.4,100.619999 170.579998,100.554 170.807999,100.554 Z M178.355999,100.518 C179.124003,100.518 179.801996,100.709998 180.389999,101.094 C180.978002,101.478002 181.433998,102.014997 181.757999,102.705 C182.082001,103.395003 182.243999,104.195995 182.243999,105.108 C182.243999,106.020005 182.082001,106.814997 181.757999,107.493 C181.433998,108.171003 180.981002,108.695998 180.398999,109.068 C179.816996,109.440002 179.136003,109.626 178.355999,109.626 C177.671996,109.626 177.075002,109.476001 176.564999,109.176 C176.054997,108.875999 175.668001,108.450003 175.403999,107.898 L175.403999,112.128 C175.403999,112.344001 175.341,112.514999 175.214999,112.641 C175.088999,112.767001 174.912,112.83 174.683999,112.83 C174.455998,112.83 174.276,112.764001 174.143999,112.632 C174.011999,112.499999 173.945999,112.332001 173.945999,112.128 L173.945999,101.274 C173.945999,101.057999 174.011999,100.884001 174.143999,100.752 C174.276,100.619999 174.455998,100.554 174.683999,100.554 C174.912,100.554 175.088999,100.619999 175.214999,100.752 C175.341,100.884001 175.403999,101.057999 175.403999,101.274 L175.403999,102.246 C175.668001,101.693997 176.054997,101.268001 176.564999,100.968 C177.075002,100.667998 177.671996,100.518 178.355999,100.518 Z M178.067999,101.742 C177.215995,101.742 176.559002,102.029997 176.096999,102.606 C175.634997,103.182003 175.403999,104.003995 175.403999,105.072 C175.403999,106.140005 175.634997,106.964997 176.096999,107.547 C176.559002,108.129003 177.215995,108.42 178.067999,108.42 C178.920004,108.42 179.579997,108.132003 180.047999,107.556 C180.516002,106.979997 180.749999,106.164005 180.749999,105.108 C180.749999,104.051995 180.516002,103.227003 180.047999,102.633 C179.579997,102.038997 178.920004,101.742 178.067999,101.742 Z" id="TransactionLookup" fill="#242F40" fill-rule="nonzero"></path>
                        </g>
                    </g>
                </g>
            </g>
        </g>
    </g>
</svg>