<svg xmlns="http://www.w3.org/2000/svg" width="50" height="51" viewBox="0 0 50 51">
    <g fill="none" fill-rule="evenodd" transform="translate(.172 .29)">
        <circle cx="25" cy="25" r="25" fill="#EFF2F6"/>
        <path d="M12.5 12.5h25v25h-25z"/>
        <path fill="#18214D" d="M22.032 32c6.038 0 9.34-5.387 9.34-10.058 0-.153 0-.306-.01-.457A6.975 6.975 0 0 0 33 19.655a6.178 6.178 0 0 1-1.885.557 3.518 3.518 0 0 0 1.443-1.956 6.302 6.302 0 0 1-2.084.858c-1.244-1.423-3.323-1.492-4.645-.153-.852.863-1.215 2.15-.95 3.378-2.639-.143-5.098-1.486-6.765-3.694-.872 1.616-.426 3.681 1.016 4.719a3.083 3.083 0 0 1-1.49-.442v.045c0 1.682 1.102 3.131 2.634 3.464a3.04 3.04 0 0 1-1.482.06c.43 1.441 1.662 2.428 3.066 2.456-1.162.984-2.598 1.518-4.076 1.516-.261 0-.522-.017-.782-.05a8.82 8.82 0 0 0 5.032 1.584"/>
    </g>
</svg>
