<svg xmlns="http://www.w3.org/2000/svg" width="16" height="14" viewBox="0 0 16 14">
    <g fill="none" fill-rule="evenodd" opacity=".556">
        <path d="M-4-5h24v24H-4z"/>
        <path fill="#DBDEEB" d="M5.032 14c6.038 0 9.34-5.387 9.34-10.058 0-.153 0-.306-.01-.457A6.975 6.975 0 0 0 16 1.655a6.178 6.178 0 0 1-1.885.557A3.518 3.518 0 0 0 15.558.256a6.302 6.302 0 0 1-2.084.858C12.23-.309 10.15-.378 8.829.961c-.852.863-1.215 2.15-.95 3.378C5.24 4.196 2.781 2.853 1.114.645.242 2.261.688 4.326 2.13 5.364a3.083 3.083 0 0 1-1.49-.442v.045c0 1.682 1.102 3.131 2.634 3.464a3.04 3.04 0 0 1-1.482.06c.43 1.441 1.662 2.428 3.066 2.456-1.162.984-2.598 1.518-4.076 1.516-.261 0-.522-.017-.782-.05a8.82 8.82 0 0 0 5.032 1.584"/>
    </g>
</svg>
