<svg xmlns="http://www.w3.org/2000/svg" width="96" height="20" viewBox="0 0 96 20">
    <g fill="#18214D" fill-rule="evenodd" opacity=".364">
        <path d="M15.036.48v10.956c0 3.659-1.625 5.178-5.44 5.178-3.814 0-5.44-1.52-5.44-5.178V0H.482C.16 0 0 .16 0 .48v11.136c0 6.118 3.915 8.257 9.596 8.257 5.682 0 9.596-2.139 9.596-8.257V0h-3.673c-.32 0-.483.16-.483.48zM68.294 3.179c.3 0 .441-.1.54-.32L69.9.239c.06-.159 0-.239-.16-.239H54.943c-1.385 0-1.906.42-1.906 1.36v17.013c0 .8.4 1.16 1.464 1.16h13.793c.3 0 .441-.1.54-.32l1.065-2.619c.06-.16 0-.24-.16-.24H57.112v-3.459c0-1.2.662-1.74 2.447-1.74h5.482c.302 0 .441-.099.542-.319l1.024-2.519c.06-.16 0-.24-.16-.24h-9.335V3.18h11.182zM38.395 16.394h-7.25v-3.579c0-1.2.663-1.739 2.45-1.739h4.8c2.308 0 2.95.88 2.95 2.68 0 1.799-.642 2.638-2.95 2.638zM31.145 3.14h6.487c2.169 0 2.77.813 2.77 2.499 0 1.686-.601 2.5-2.77 2.5h-6.487v-5zM42.25 9.237c1.605-.84 2.267-2.42 2.267-4.279C44.517.64 40.985 0 37.331 0h-8.352c-1.385 0-1.906.42-1.906 1.36v17.013c0 .8.4 1.16 1.465 1.16h10.279c3.874 0 6.645-1.5 6.645-5.398 0-2.339-1.004-4.318-3.212-4.898zM87.88 9.057h-6.826V3.139h6.825c2.55 0 3.113.98 3.113 2.959 0 2-.563 2.959-3.113 2.959zm7.668 10.136l-4.396-7.517c2.189-.56 3.954-2 3.954-5.658C95.106 1.28 92.156 0 87.278 0h-8.392C77.5 0 76.98.42 76.98 1.36v17.693c0 .32.16.48.482.48h3.593v-5.698c0-1.2.662-1.74 2.449-1.74h3.614l3.974 7.119c.121.2.242.32.543.32h3.734c.261 0 .261-.221.18-.34z"/>
    </g>
</svg>
